<svg width="208" height="322" viewBox="0 0 208 322" fill="none" xmlns="http://www.w3.org/2000/svg">
<path d="M143.501 19.0903C144.646 19.0903 145.574 18.1593 145.574 17.011C145.574 15.8626 144.646 14.9317 143.501 14.9317C142.356 14.9317 141.428 15.8626 141.428 17.011C141.428 18.1593 142.356 19.0903 143.501 19.0903Z" fill="#40916C"/>
<path d="M161.912 5.15265C163.057 5.15265 163.985 4.22172 163.985 3.07336C163.985 1.92501 163.057 0.99408 161.912 0.99408C160.767 0.99408 159.839 1.92501 159.839 3.07336C159.839 4.22172 160.767 5.15265 161.912 5.15265Z" fill="#40916C"/>
<path d="M183.593 6.53992C184.741 6.53992 185.671 5.61003 185.671 4.46295C185.671 3.31588 184.741 2.38599 183.593 2.38599C182.445 2.38599 181.515 3.31588 181.515 4.46295C181.515 5.61003 182.445 6.53992 183.593 6.53992Z" fill="#40916C"/>
<path d="M198.069 17.0163C199.217 17.0163 200.147 16.0843 200.147 14.9347C200.147 13.7851 199.217 12.8531 198.069 12.8531C196.922 12.8531 195.991 13.7851 195.991 14.9347C195.991 16.0843 196.922 17.0163 198.069 17.0163Z" fill="#40916C"/>
<path d="M199.103 57.7899C200.248 57.7899 201.177 56.8579 201.177 55.7083C201.177 54.5587 200.248 53.6267 199.103 53.6267C197.958 53.6267 197.03 54.5587 197.03 55.7083C197.03 56.8579 197.958 57.7899 199.103 57.7899Z" fill="#40916C"/>
<path d="M175.868 95.7426C177.013 95.7426 177.941 94.8106 177.941 93.661C177.941 92.5113 177.013 91.5794 175.868 91.5794C174.723 91.5794 173.795 92.5113 173.795 93.661C173.795 94.8106 174.723 95.7426 175.868 95.7426Z" fill="#40916C"/>
<path d="M187.523 78.5711C188.668 78.5711 189.596 77.6402 189.596 76.4918C189.596 75.3435 188.668 74.4125 187.523 74.4125C186.378 74.4125 185.45 75.3435 185.45 76.4918C185.45 77.6402 186.378 78.5711 187.523 78.5711Z" fill="#40916C"/>
<path d="M164.881 115.638C166.026 115.638 166.954 114.706 166.954 113.556C166.954 112.406 166.026 111.474 164.881 111.474C163.736 111.474 162.808 112.406 162.808 113.556C162.808 114.706 163.736 115.638 164.881 115.638Z" fill="#40916C"/>
<path d="M152.335 135.904C153.48 135.904 154.408 134.972 154.408 133.822C154.408 132.673 153.48 131.741 152.335 131.741C151.19 131.741 150.262 132.673 150.262 133.822C150.262 134.972 151.19 135.904 152.335 135.904Z" fill="#40916C"/>
<path d="M100.682 116.361C101.834 116.361 102.768 115.429 102.768 114.28C102.768 113.13 101.834 112.198 100.682 112.198C99.529 112.198 98.5947 113.13 98.5947 114.28C98.5947 115.429 99.529 116.361 100.682 116.361Z" fill="#40916C"/>
<path d="M150.699 10.2966C151.556 10.2966 152.25 9.59763 152.25 8.73539C152.25 7.87315 151.556 7.17416 150.699 7.17416C149.843 7.17416 149.149 7.87315 149.149 8.73539C149.149 9.59763 149.843 10.2966 150.699 10.2966Z" fill="#40916C"/>
<path d="M203.624 47.0383C204.477 47.0383 205.169 46.3403 205.169 45.4794C205.169 44.6184 204.477 43.9205 203.624 43.9205C202.77 43.9205 202.078 44.6184 202.078 45.4794C202.078 46.3403 202.77 47.0383 203.624 47.0383Z" fill="#40916C"/>
<path d="M201.991 24.6193C202.844 24.6193 203.536 23.9213 203.536 23.0604C203.536 22.1994 202.844 21.5015 201.991 21.5015C201.137 21.5015 200.445 22.1994 200.445 23.0604C200.445 23.9213 201.137 24.6193 201.991 24.6193Z" fill="#40916C"/>
<path d="M193.602 68.9747C194.456 68.9747 195.148 68.2768 195.148 67.4158C195.148 66.5549 194.456 65.8569 193.602 65.8569C192.749 65.8569 192.057 66.5549 192.057 67.4158C192.057 68.2768 192.749 68.9747 193.602 68.9747Z" fill="#40916C"/>
<path d="M122.281 62.2982C123.145 62.2982 123.845 61.5992 123.845 60.737C123.845 59.8748 123.145 59.1758 122.281 59.1758C121.417 59.1758 120.717 59.8748 120.717 60.737C120.717 61.5992 121.417 62.2982 122.281 62.2982Z" fill="#40916C"/>
<path d="M181.446 18.0495C182.31 18.0495 183.01 17.3516 183.01 16.4906C183.01 15.6296 182.31 14.9317 181.446 14.9317C180.582 14.9317 179.882 15.6296 179.882 16.4906C179.882 17.3516 180.582 18.0495 181.446 18.0495Z" fill="#40916C"/>
<path d="M171.429 12.8577C172.296 12.8577 172.998 12.1587 172.998 11.2965C172.998 10.4342 172.296 9.73523 171.429 9.73523C170.563 9.73523 169.86 10.4342 169.86 11.2965C169.86 12.1587 170.563 12.8577 171.429 12.8577Z" fill="#40916C"/>
<path d="M156.341 20.6524C157.197 20.6524 157.891 19.9534 157.891 19.0911C157.891 18.2289 157.197 17.5299 156.341 17.5299C155.485 17.5299 154.791 18.2289 154.791 19.0911C154.791 19.9534 155.485 20.6524 156.341 20.6524Z" fill="#40916C"/>
<path d="M145.59 30.6881C146.454 30.6881 147.154 29.9901 147.154 29.1292C147.154 28.2682 146.454 27.5703 145.59 27.5703C144.727 27.5703 144.026 28.2682 144.026 29.1292C144.026 29.9901 144.727 30.6881 145.59 30.6881Z" fill="#40916C"/>
<path d="M172.909 49.6411C173.773 49.6411 174.473 48.9422 174.473 48.0799C174.473 47.2177 173.773 46.5187 172.909 46.5187C172.045 46.5187 171.345 47.2177 171.345 48.0799C171.345 48.9422 172.045 49.6411 172.909 49.6411Z" fill="#40916C"/>
<path d="M168.288 33.175C169.142 33.175 169.834 32.477 169.834 31.616C169.834 30.7551 169.142 30.0571 168.288 30.0571C167.435 30.0571 166.743 30.7551 166.743 31.616C166.743 32.477 167.435 33.175 168.288 33.175Z" fill="#40916C"/>
<path d="M189.612 43.9204C190.476 43.9204 191.176 43.2225 191.176 42.3615C191.176 41.5006 190.476 40.8026 189.612 40.8026C188.748 40.8026 188.048 41.5006 188.048 42.3615C188.048 43.2225 188.748 43.9204 189.612 43.9204Z" fill="#40916C"/>
<path d="M192.136 21.4829C193 21.4829 193.7 20.785 193.7 19.924C193.7 19.0631 193 18.3651 192.136 18.3651C191.272 18.3651 190.572 19.0631 190.572 19.924C190.572 20.785 191.272 21.4829 192.136 21.4829Z" fill="#40916C"/>
<path d="M184.555 32.2516C185.414 32.2516 186.11 31.5526 186.11 30.6904C186.11 29.8282 185.414 29.1292 184.555 29.1292C183.696 29.1292 183 29.8282 183 30.6904C183 31.5526 183.696 32.2516 184.555 32.2516Z" fill="#40916C"/>
<path d="M179.961 67.4204C180.825 67.4204 181.526 66.7214 181.526 65.8592C181.526 64.997 180.825 64.298 179.961 64.298C179.098 64.298 178.397 64.997 178.397 65.8592C178.397 66.7214 179.098 67.4204 179.961 67.4204Z" fill="#40916C"/>
<path d="M177.493 80.1517C178.347 80.1517 179.039 79.4528 179.039 78.5905C179.039 77.7283 178.347 77.0293 177.493 77.0293C176.64 77.0293 175.948 77.7283 175.948 78.5905C175.948 79.4528 176.64 80.1517 177.493 80.1517Z" fill="#40916C"/>
<path d="M172.909 63.4859C173.773 63.4859 174.473 62.787 174.473 61.9247C174.473 61.0625 173.773 60.3635 172.909 60.3635C172.045 60.3635 171.345 61.0625 171.345 61.9247C171.345 62.787 172.045 63.4859 172.909 63.4859Z" fill="#40916C"/>
<path d="M182.04 56.211C182.904 56.211 183.604 55.512 183.604 54.6497C183.604 53.7875 182.904 53.0885 182.04 53.0885C181.176 53.0885 180.476 53.7875 180.476 54.6497C180.476 55.512 181.176 56.211 182.04 56.211Z" fill="#40916C"/>
<path d="M192.136 52.759C193 52.759 193.7 52.0601 193.7 51.1978C193.7 50.3356 193 49.6366 192.136 49.6366C191.272 49.6366 190.572 50.3356 190.572 51.1978C190.572 52.0601 191.272 52.759 192.136 52.759Z" fill="#40916C"/>
<path d="M154.721 61.5559C155.585 61.5559 156.285 60.8569 156.285 59.9947C156.285 59.1325 155.585 58.4335 154.721 58.4335C153.857 58.4335 153.157 59.1325 153.157 59.9947C153.157 60.8569 153.857 61.5559 154.721 61.5559Z" fill="#40916C"/>
<path d="M179.145 40.9556C180.009 40.9556 180.709 40.2567 180.709 39.3944C180.709 38.5322 180.009 37.8332 179.145 37.8332C178.281 37.8332 177.581 38.5322 177.581 39.3944C177.581 40.2567 178.281 40.9556 179.145 40.9556Z" fill="#40916C"/>
<path d="M151.585 51.7197C152.439 51.7197 153.131 51.0207 153.131 50.1585C153.131 49.2963 152.439 48.5973 151.585 48.5973C150.732 48.5973 150.04 49.2963 150.04 50.1585C150.04 51.0207 150.732 51.7197 151.585 51.7197Z" fill="#40916C"/>
<path d="M148.486 70.5383C149.35 70.5383 150.05 69.8393 150.05 68.977C150.05 68.1148 149.35 67.4158 148.486 67.4158C147.622 67.4158 146.922 68.1148 146.922 68.977C146.922 69.8393 147.622 70.5383 148.486 70.5383Z" fill="#40916C"/>
<path d="M163.983 68.3495C164.836 68.3495 165.528 67.6503 165.528 66.7877C165.528 65.9252 164.836 65.226 163.983 65.226C163.129 65.226 162.437 65.9252 162.437 66.7877C162.437 67.6503 163.129 68.3495 163.983 68.3495Z" fill="#40916C"/>
<path d="M128.799 60.0154C129.656 60.0154 130.35 59.3165 130.35 58.4542C130.35 57.592 129.656 56.893 128.799 56.893C127.943 56.893 127.249 57.592 127.249 58.4542C127.249 59.3165 127.943 60.0154 128.799 60.0154Z" fill="#40916C"/>
<path d="M146.333 60.7392C147.197 60.7392 147.897 60.0403 147.897 59.178C147.897 58.3158 147.197 57.6168 146.333 57.6168C145.469 57.6168 144.769 58.3158 144.769 59.178C144.769 60.0403 145.469 60.7392 146.333 60.7392Z" fill="#40916C"/>
<path d="M135.031 65.8569C135.884 65.8569 136.576 65.1589 136.576 64.298C136.576 63.437 135.884 62.739 135.031 62.739C134.177 62.739 133.485 63.437 133.485 64.298C133.485 65.1589 134.177 65.8569 135.031 65.8569Z" fill="#40916C"/>
<path d="M142.992 75.6234C143.856 75.6234 144.556 74.9244 144.556 74.0622C144.556 73.2 143.856 72.501 142.992 72.501C142.128 72.501 141.428 73.2 141.428 74.0622C141.428 74.9244 142.128 75.6234 142.992 75.6234Z" fill="#40916C"/>
<path d="M118.049 84.0862C118.913 84.0862 119.614 83.3872 119.614 82.525C119.614 81.6627 118.913 80.9637 118.049 80.9637C117.186 80.9637 116.485 81.6627 116.485 82.525C116.485 83.3872 117.186 84.0862 118.049 84.0862Z" fill="#40916C"/>
<path d="M126.661 72.5056C127.525 72.5056 128.225 71.8066 128.225 70.9443C128.225 70.0821 127.525 69.3831 126.661 69.3831C125.797 69.3831 125.097 70.0821 125.097 70.9443C125.097 71.8066 125.797 72.5056 126.661 72.5056Z" fill="#40916C"/>
<path d="M129.778 96.7804C130.642 96.7804 131.343 96.0814 131.343 95.2192C131.343 94.3569 130.642 93.658 129.778 93.658C128.915 93.658 128.214 94.3569 128.214 95.2192C128.214 96.0814 128.915 96.7804 129.778 96.7804Z" fill="#40916C"/>
<path d="M135.031 81.191C135.884 81.191 136.576 80.492 136.576 79.6298C136.576 78.7676 135.884 78.0686 135.031 78.0686C134.177 78.0686 133.485 78.7676 133.485 79.6298C133.485 80.492 134.177 81.191 135.031 81.191Z" fill="#40916C"/>
<path d="M123.765 86.4896C124.629 86.4896 125.329 85.7927 125.329 84.933C125.329 84.0733 124.629 83.3764 123.765 83.3764C122.901 83.3764 122.201 84.0733 122.201 84.933C122.201 85.7927 122.901 86.4896 123.765 86.4896Z" fill="#40916C"/>
<path d="M135.94 73.5077C136.804 73.5077 137.504 72.8087 137.504 71.9465C137.504 71.0842 136.804 70.3853 135.94 70.3853C135.076 70.3853 134.376 71.0842 134.376 71.9465C134.376 72.8087 135.076 73.5077 135.94 73.5077Z" fill="#40916C"/>
<path d="M135.94 105.429C136.804 105.429 137.504 104.73 137.504 103.868C137.504 103.005 136.804 102.306 135.94 102.306C135.076 102.306 134.376 103.005 134.376 103.868C134.376 104.73 135.076 105.429 135.94 105.429Z" fill="#40916C"/>
<path d="M160.215 83.3717C161.079 83.3717 161.779 82.6748 161.779 81.8151C161.779 80.9555 161.079 80.2585 160.215 80.2585C159.351 80.2585 158.651 80.9555 158.651 81.8151C158.651 82.6748 159.351 83.3717 160.215 83.3717Z" fill="#40916C"/>
<path d="M172.909 73.9717C173.773 73.9717 174.473 73.2727 174.473 72.4104C174.473 71.5482 173.773 70.8492 172.909 70.8492C172.045 70.8492 171.345 71.5482 171.345 72.4104C171.345 73.2727 172.045 73.9717 172.909 73.9717Z" fill="#40916C"/>
<path d="M157.097 75.2152C157.961 75.2152 158.661 74.5162 158.661 73.6539C158.661 72.7917 157.961 72.0927 157.097 72.0927C156.233 72.0927 155.533 72.7917 155.533 73.6539C155.533 74.5162 156.233 75.2152 157.097 75.2152Z" fill="#40916C"/>
<path d="M142.992 93.4909C143.856 93.4909 144.556 92.7929 144.556 91.932C144.556 91.071 143.856 90.373 142.992 90.373C142.128 90.373 141.428 91.071 141.428 91.932C141.428 92.7929 142.128 93.4909 142.992 93.4909Z" fill="#40916C"/>
<path d="M149.952 82.5272C150.805 82.5272 151.497 81.8283 151.497 80.966C151.497 80.1038 150.805 79.4048 149.952 79.4048C149.098 79.4048 148.406 80.1038 148.406 80.966C148.406 81.8283 149.098 82.5272 149.952 82.5272Z" fill="#40916C"/>
<path d="M134.455 89.3893C135.319 89.3893 136.019 88.6914 136.019 87.8304C136.019 86.9695 135.319 86.2715 134.455 86.2715C133.591 86.2715 132.891 86.9695 132.891 87.8304C132.891 88.6914 133.591 89.3893 134.455 89.3893Z" fill="#40916C"/>
<path d="M163.983 91.9134C164.836 91.9134 165.528 91.2155 165.528 90.3545C165.528 89.4935 164.836 88.7956 163.983 88.7956C163.129 88.7956 162.437 89.4935 162.437 90.3545C162.437 91.2155 163.129 91.9134 163.983 91.9134Z" fill="#40916C"/>
<path d="M172.909 87.6495C173.773 87.6495 174.473 86.9505 174.473 86.0882C174.473 85.226 173.773 84.527 172.909 84.527C172.045 84.527 171.345 85.226 171.345 86.0882C171.345 86.9505 172.045 87.6495 172.909 87.6495Z" fill="#40916C"/>
<path d="M151.158 89.2084C152.022 89.2084 152.723 88.5094 152.723 87.6472C152.723 86.785 152.022 86.086 151.158 86.086C150.295 86.086 149.594 86.785 149.594 87.6472C149.594 88.5094 150.295 89.2084 151.158 89.2084Z" fill="#40916C"/>
<path d="M149.952 115.84C150.805 115.84 151.497 115.141 151.497 114.279C151.497 113.417 150.805 112.718 149.952 112.718C149.098 112.718 148.406 113.417 148.406 114.279C148.406 115.141 149.098 115.84 149.952 115.84Z" fill="#40916C"/>
<path d="M162.887 101.791C163.751 101.791 164.452 101.092 164.452 100.23C164.452 99.3678 163.751 98.6688 162.887 98.6688C162.024 98.6688 161.323 99.3678 161.323 100.23C161.323 101.092 162.024 101.791 162.887 101.791Z" fill="#40916C"/>
<path d="M146.333 106.292C147.197 106.292 147.897 105.595 147.897 104.735C147.897 103.875 147.197 103.179 146.333 103.179C145.469 103.179 144.769 103.875 144.769 104.735C144.769 105.595 145.469 106.292 146.333 106.292Z" fill="#40916C"/>
<path d="M139.193 99.4528C140.049 99.4528 140.743 98.7539 140.743 97.8916C140.743 97.0294 140.049 96.3304 139.193 96.3304C138.336 96.3304 137.642 97.0294 137.642 97.8916C137.642 98.7539 138.336 99.4528 139.193 99.4528Z" fill="#40916C"/>
<path d="M155.464 109.41C156.328 109.41 157.028 108.713 157.028 107.853C157.028 106.993 156.328 106.297 155.464 106.297C154.6 106.297 153.9 106.993 153.9 107.853C153.9 108.713 154.6 109.41 155.464 109.41Z" fill="#40916C"/>
<path d="M123.246 136.942C124.11 136.942 124.81 136.243 124.81 135.38C124.81 134.518 124.11 133.819 123.246 133.819C122.382 133.819 121.682 134.518 121.682 135.38C121.682 136.243 122.382 136.942 123.246 136.942Z" fill="#40916C"/>
<path d="M115.006 116.36C115.869 116.36 116.57 115.661 116.57 114.799C116.57 113.936 115.869 113.237 115.006 113.237C114.142 113.237 113.441 113.936 113.441 114.799C113.441 115.661 114.142 116.36 115.006 116.36Z" fill="#40916C"/>
<path d="M128.275 130.279C129.129 130.279 129.821 129.58 129.821 128.718C129.821 127.855 129.129 127.156 128.275 127.156C127.422 127.156 126.729 127.855 126.729 128.718C126.729 129.58 127.422 130.279 128.275 130.279Z" fill="#40916C"/>
<path d="M139.193 128.72C140.049 128.72 140.743 128.021 140.743 127.159C140.743 126.297 140.049 125.598 139.193 125.598C138.336 125.598 137.642 126.297 137.642 127.159C137.642 128.021 138.336 128.72 139.193 128.72Z" fill="#40916C"/>
<path d="M135.94 153.051C136.804 153.051 137.504 152.352 137.504 151.489C137.504 150.627 136.804 149.928 135.94 149.928C135.076 149.928 134.376 150.627 134.376 151.489C134.376 152.352 135.076 153.051 135.94 153.051Z" fill="#40916C"/>
<path d="M132.878 141.117C133.731 141.117 134.423 140.418 134.423 139.556C134.423 138.694 133.731 137.995 132.878 137.995C132.024 137.995 131.332 138.694 131.332 139.556C131.332 140.418 132.024 141.117 132.878 141.117Z" fill="#40916C"/>
<path d="M107.285 156.159C108.149 156.159 108.849 155.462 108.849 154.603C108.849 153.743 108.149 153.046 107.285 153.046C106.421 153.046 105.721 153.743 105.721 154.603C105.721 155.462 106.421 156.159 107.285 156.159Z" fill="#40916C"/>
<path d="M120.648 174.727C121.511 174.727 122.212 174.028 122.212 173.166C122.212 172.304 121.511 171.605 120.648 171.605C119.784 171.605 119.083 172.304 119.083 173.166C119.083 174.028 119.784 174.727 120.648 174.727Z" fill="#40916C"/>
<path d="M107.285 179.404C108.149 179.404 108.849 178.705 108.849 177.843C108.849 176.981 108.149 176.282 107.285 176.282C106.421 176.282 105.721 176.981 105.721 177.843C105.721 178.705 106.421 179.404 107.285 179.404Z" fill="#40916C"/>
<path d="M116.788 165.856C117.652 165.856 118.352 165.157 118.352 164.295C118.352 163.433 117.652 162.734 116.788 162.734C115.924 162.734 115.224 163.433 115.224 164.295C115.224 165.157 115.924 165.856 116.788 165.856Z" fill="#40916C"/>
<path d="M125.993 180.388C126.857 180.388 127.557 179.689 127.557 178.826C127.557 177.964 126.857 177.265 125.993 177.265C125.129 177.265 124.429 177.964 124.429 178.826C124.429 179.689 125.129 180.388 125.993 180.388Z" fill="#40916C"/>
<path d="M125.993 161.699C126.857 161.699 127.557 161 127.557 160.138C127.557 159.275 126.857 158.576 125.993 158.576C125.129 158.576 124.429 159.275 124.429 160.138C124.429 161 125.129 161.699 125.993 161.699Z" fill="#40916C"/>
<path d="M91.2507 162.998C92.1145 162.998 92.8148 162.299 92.8148 161.437C92.8148 160.575 92.1145 159.876 91.2507 159.876C90.3868 159.876 89.6865 160.575 89.6865 161.437C89.6865 162.299 90.3868 162.998 91.2507 162.998Z" fill="#40916C"/>
<path d="M85.757 188.025C86.6208 188.025 87.321 187.328 87.321 186.468C87.321 185.608 86.6208 184.911 85.757 184.911C84.8931 184.911 84.1929 185.608 84.1929 186.468C84.1929 187.328 84.8931 188.025 85.757 188.025Z" fill="#40916C"/>
<path d="M80.7697 177.836C81.626 177.836 82.3202 177.139 82.3202 176.279C82.3202 175.42 81.626 174.723 80.7697 174.723C79.9134 174.723 79.2192 175.42 79.2192 176.279C79.2192 177.139 79.9134 177.836 80.7697 177.836Z" fill="#40916C"/>
<path d="M94.3683 177.27C95.2321 177.27 95.9324 176.571 95.9324 175.708C95.9324 174.846 95.2321 174.147 94.3683 174.147C93.5045 174.147 92.8042 174.846 92.8042 175.708C92.8042 176.571 93.5045 177.27 94.3683 177.27Z" fill="#40916C"/>
<path d="M96.7995 188.025C97.6531 188.025 98.3451 187.328 98.3451 186.468C98.3451 185.608 97.6531 184.911 96.7995 184.911C95.9459 184.911 95.2539 185.608 95.2539 186.468C95.2539 187.328 95.9459 188.025 96.7995 188.025Z" fill="#40916C"/>
<path d="M81.7302 211.576C82.5838 211.576 83.2758 210.879 83.2758 210.019C83.2758 209.159 82.5838 208.462 81.7302 208.462C80.8766 208.462 80.1846 209.159 80.1846 210.019C80.1846 210.879 80.8766 211.576 81.7302 211.576Z" fill="#40916C"/>
<path d="M74.0328 199.048C74.8994 199.048 75.6018 198.351 75.6018 197.492C75.6018 196.632 74.8994 195.935 74.0328 195.935C73.1663 195.935 72.4639 196.632 72.4639 197.492C72.4639 198.351 73.1663 199.048 74.0328 199.048Z" fill="#40916C"/>
<path d="M96.0016 210.861C96.8654 210.861 97.5657 210.162 97.5657 209.3C97.5657 208.438 96.8654 207.739 96.0016 207.739C95.1378 207.739 94.4375 208.438 94.4375 209.3C94.4375 210.162 95.1378 210.861 96.0016 210.861Z" fill="#40916C"/>
<path d="M87.6178 199.902C88.4843 199.902 89.1868 199.205 89.1868 198.346C89.1868 197.486 88.4843 196.789 87.6178 196.789C86.7513 196.789 86.0488 197.486 86.0488 198.346C86.0488 199.205 86.7513 199.902 87.6178 199.902Z" fill="#40916C"/>
<path d="M110.403 206.695C111.267 206.695 111.967 205.994 111.967 205.129C111.967 204.264 111.267 203.563 110.403 203.563C109.539 203.563 108.839 204.264 108.839 205.129C108.839 205.994 109.539 206.695 110.403 206.695Z" fill="#40916C"/>
<path d="M96.7995 228.984C97.6531 228.984 98.3451 228.287 98.3451 227.427C98.3451 226.567 97.6531 225.871 96.7995 225.871C95.9459 225.871 95.2539 226.567 95.2539 227.427C95.2539 228.287 95.9459 228.984 96.7995 228.984Z" fill="#40916C"/>
<path d="M82.4215 224.223C83.288 224.223 83.9905 223.524 83.9905 222.662C83.9905 221.8 83.288 221.101 82.4215 221.101C81.555 221.101 80.8525 221.8 80.8525 222.662C80.8525 223.524 81.555 224.223 82.4215 224.223Z" fill="#40916C"/>
<path d="M67.4214 194.103C68.2852 194.103 68.9855 193.404 68.9855 192.541C68.9855 191.679 68.2852 190.98 67.4214 190.98C66.5577 190.98 65.8574 191.679 65.8574 192.541C65.8574 193.404 66.5577 194.103 67.4214 194.103Z" fill="#40916C"/>
<path d="M85.9802 232.111C86.844 232.111 87.5443 231.412 87.5443 230.55C87.5443 229.687 86.844 228.988 85.9802 228.988C85.1163 228.988 84.416 229.687 84.416 230.55C84.416 231.412 85.1163 232.111 85.9802 232.111Z" fill="#40916C"/>
<path d="M89.0842 238.913C89.9405 238.913 90.6346 238.216 90.6346 237.356C90.6346 236.496 89.9405 235.799 89.0842 235.799C88.2279 235.799 87.5337 236.496 87.5337 237.356C87.5337 238.216 88.2279 238.913 89.0842 238.913Z" fill="#40916C"/>
<path d="M90.731 219.407C91.5948 219.407 92.295 218.71 92.295 217.851C92.295 216.991 91.5948 216.294 90.731 216.294C89.8672 216.294 89.167 216.991 89.167 217.851C89.167 218.71 89.8672 219.407 90.731 219.407Z" fill="#40916C"/>
<path d="M65.862 217.19C66.7259 217.19 67.4261 216.491 67.4261 215.628C67.4261 214.766 66.7259 214.067 65.862 214.067C64.9981 214.067 64.2979 214.766 64.2979 215.628C64.2979 216.491 64.9981 217.19 65.862 217.19Z" fill="#40916C"/>
<path d="M74.0328 213.135C74.8994 213.135 75.6018 212.438 75.6018 211.578C75.6018 210.718 74.8994 210.021 74.0328 210.021C73.1663 210.021 72.4639 210.718 72.4639 211.578C72.4639 212.438 73.1663 213.135 74.0328 213.135Z" fill="#40916C"/>
<path d="M73.5085 230.543C74.3724 230.543 75.0728 229.846 75.0728 228.986C75.0728 228.126 74.3724 227.429 73.5085 227.429C72.6447 227.429 71.9443 228.126 71.9443 228.986C71.9443 229.846 72.6447 230.543 73.5085 230.543Z" fill="#40916C"/>
<path d="M74.0328 240.574C74.8994 240.574 75.6018 239.875 75.6018 239.012C75.6018 238.15 74.8994 237.451 74.0328 237.451C73.1663 237.451 72.4639 238.15 72.4639 239.012C72.4639 239.875 73.1663 240.574 74.0328 240.574Z" fill="#40916C"/>
<path d="M55.9146 267.586C56.7784 267.586 57.4786 266.889 57.4786 266.029C57.4786 265.17 56.7784 264.473 55.9146 264.473C55.0508 264.473 54.3506 265.17 54.3506 266.029C54.3506 266.889 55.0508 267.586 55.9146 267.586Z" fill="#40916C"/>
<path d="M69.7085 277.116C70.5647 277.116 71.2588 276.417 71.2588 275.555C71.2588 274.692 70.5647 273.993 69.7085 273.993C68.8523 273.993 68.1582 274.692 68.1582 275.555C68.1582 276.417 68.8523 277.116 69.7085 277.116Z" fill="#40916C"/>
<path d="M69.7085 263.252C70.5647 263.252 71.2588 262.553 71.2588 261.691C71.2588 260.829 70.5647 260.13 69.7085 260.13C68.8523 260.13 68.1582 260.829 68.1582 261.691C68.1582 262.553 68.8523 263.252 69.7085 263.252Z" fill="#40916C"/>
<path d="M80.7697 270.713C81.626 270.713 82.3202 270.014 82.3202 269.152C82.3202 268.29 81.626 267.591 80.7697 267.591C79.9134 267.591 79.2192 268.29 79.2192 269.152C79.2192 270.014 79.9134 270.713 80.7697 270.713Z" fill="#40916C"/>
<path d="M75.6475 287.898C76.5038 287.898 77.1979 287.199 77.1979 286.337C77.1979 285.475 76.5038 284.776 75.6475 284.776C74.7913 284.776 74.0972 285.475 74.0972 286.337C74.0972 287.199 74.7913 287.898 75.6475 287.898Z" fill="#40916C"/>
<path d="M59.1628 283.89C60.0165 283.89 60.7085 283.191 60.7085 282.329C60.7085 281.466 60.0165 280.767 59.1628 280.767C58.3092 280.767 57.6172 281.466 57.6172 282.329C57.6172 283.191 58.3092 283.89 59.1628 283.89Z" fill="#40916C"/>
<path d="M56.1374 293.689C57.0012 293.689 57.7015 292.99 57.7015 292.128C57.7015 291.265 57.0012 290.566 56.1374 290.566C55.2735 290.566 54.5732 291.265 54.5732 292.128C54.5732 292.99 55.2735 293.689 56.1374 293.689Z" fill="#40916C"/>
<path d="M62.819 299.405C63.6828 299.405 64.3831 298.706 64.3831 297.844C64.3831 296.981 63.6828 296.283 62.819 296.283C61.9551 296.283 61.2549 296.981 61.2549 297.844C61.2549 298.706 61.9551 299.405 62.819 299.405Z" fill="#40916C"/>
<path d="M73.5085 295.767C74.3724 295.767 75.0728 295.068 75.0728 294.206C75.0728 293.344 74.3724 292.645 73.5085 292.645C72.6447 292.645 71.9443 293.344 71.9443 294.206C71.9443 295.068 72.6447 295.767 73.5085 295.767Z" fill="#40916C"/>
<path d="M68.0757 289.457C68.932 289.457 69.6261 288.758 69.6261 287.896C69.6261 287.034 68.932 286.335 68.0757 286.335C67.2195 286.335 66.5254 287.034 66.5254 287.896C66.5254 288.758 67.2195 289.457 68.0757 289.457Z" fill="#40916C"/>
<path d="M49.2388 297.846C50.1053 297.846 50.8077 297.147 50.8077 296.285C50.8077 295.423 50.1053 294.724 49.2388 294.724C48.3723 294.724 47.6699 295.423 47.6699 296.285C47.6699 297.147 48.3723 297.846 49.2388 297.846Z" fill="#40916C"/>
<path d="M60.8884 309.352C61.7523 309.352 62.4526 308.653 62.4526 307.791C62.4526 306.929 61.7523 306.23 60.8884 306.23C60.0245 306.23 59.3242 306.929 59.3242 307.791C59.3242 308.653 60.0245 309.352 60.8884 309.352Z" fill="#40916C"/>
<path d="M10.6338 301.892C11.4989 301.892 12.2002 301.193 12.2002 300.331C12.2002 299.468 11.4989 298.769 10.6338 298.769C9.76869 298.769 9.06738 299.468 9.06738 300.331C9.06738 301.193 9.76869 301.892 10.6338 301.892Z" fill="#40916C"/>
<path d="M7.51324 311.078C8.37703 311.078 9.07727 310.379 9.07727 309.517C9.07727 308.655 8.37703 307.956 7.51324 307.956C6.64946 307.956 5.94922 308.655 5.94922 309.517C5.94922 310.379 6.64946 311.078 7.51324 311.078Z" fill="#40916C"/>
<path d="M81.0802 290.822C81.944 290.822 82.6443 290.125 82.6443 289.265C82.6443 288.405 81.944 287.708 81.0802 287.708C80.2164 287.708 79.5161 288.405 79.5161 289.265C79.5161 290.125 80.2164 290.822 81.0802 290.822Z" fill="#40916C"/>
<path d="M47.1364 285.467C47.9899 285.467 48.6819 284.768 48.6819 283.906C48.6819 283.044 47.9899 282.345 47.1364 282.345C46.2828 282.345 45.5908 283.044 45.5908 283.906C45.5908 284.768 46.2828 285.467 47.1364 285.467Z" fill="#40916C"/>
<path d="M37.9523 307.784C38.8175 307.784 39.5189 307.087 39.5189 306.228C39.5189 305.368 38.8175 304.671 37.9523 304.671C37.0871 304.671 36.3857 305.368 36.3857 306.228C36.3857 307.087 37.0871 307.784 37.9523 307.784Z" fill="#40916C"/>
<path d="M48.6212 307.784C49.4748 307.784 50.1667 307.087 50.1667 306.228C50.1667 305.368 49.4748 304.671 48.6212 304.671C47.7676 304.671 47.0757 305.368 47.0757 306.228C47.0757 307.087 47.7676 307.784 48.6212 307.784Z" fill="#40916C"/>
<path d="M36.3146 295.767C37.177 295.767 37.8762 295.068 37.8762 294.206C37.8762 293.344 37.177 292.645 36.3146 292.645C35.4521 292.645 34.7529 293.344 34.7529 294.206C34.7529 295.068 35.4521 295.767 36.3146 295.767Z" fill="#40916C"/>
<path d="M26.3692 304.713C27.233 304.713 27.9332 304.014 27.9332 303.151C27.9332 302.289 27.233 301.59 26.3692 301.59C25.5054 301.59 24.8052 302.289 24.8052 303.151C24.8052 304.014 25.5054 304.713 26.3692 304.713Z" fill="#40916C"/>
<path d="M33.2012 313.658C34.0664 313.658 34.7677 312.959 34.7677 312.097C34.7677 311.235 34.0664 310.536 33.2012 310.536C32.3361 310.536 31.6348 311.235 31.6348 312.097C31.6348 312.959 32.3361 313.658 33.2012 313.658Z" fill="#40916C"/>
<path d="M41.8845 316.767C42.7483 316.767 43.4486 316.07 43.4486 315.21C43.4486 314.35 42.7483 313.653 41.8845 313.653C41.0206 313.653 40.3203 314.35 40.3203 315.21C40.3203 316.07 41.0206 316.767 41.8845 316.767Z" fill="#40916C"/>
<path d="M24.2907 312.433C25.1546 312.433 25.8549 311.734 25.8549 310.872C25.8549 310.01 25.1546 309.311 24.2907 309.311C23.4269 309.311 22.7266 310.01 22.7266 310.872C22.7266 311.734 23.4269 312.433 24.2907 312.433Z" fill="#40916C"/>
<path d="M13.6749 309.352C14.5387 309.352 15.239 308.653 15.239 307.791C15.239 306.929 14.5387 306.23 13.6749 306.23C12.8111 306.23 12.1108 306.929 12.1108 307.791C12.1108 308.653 12.8111 309.352 13.6749 309.352Z" fill="#40916C"/>
<path d="M12.7677 315.208C13.6226 315.208 14.3157 314.511 14.3157 313.651C14.3157 312.791 13.6226 312.095 12.7677 312.095C11.9128 312.095 11.2197 312.791 11.2197 313.651C11.2197 314.511 11.9128 315.208 12.7677 315.208Z" fill="#40916C"/>
<path d="M38.1774 321.657C39.044 321.657 39.7465 320.958 39.7465 320.096C39.7465 319.233 39.044 318.534 38.1774 318.534C37.3109 318.534 36.6084 319.233 36.6084 320.096C36.6084 320.958 37.3109 321.657 38.1774 321.657Z" fill="#40916C"/>
<path d="M19.3726 304.193C20.2262 304.193 20.9181 303.494 20.9181 302.632C20.9181 301.77 20.2262 301.071 19.3726 301.071C18.5191 301.071 17.8271 301.77 17.8271 302.632C17.8271 303.494 18.5191 304.193 19.3726 304.193Z" fill="#40916C"/>
<path d="M27.3923 294.199C28.2472 294.199 28.9403 293.502 28.9403 292.643C28.9403 291.783 28.2472 291.086 27.3923 291.086C26.5373 291.086 25.8442 291.783 25.8442 292.643C25.8442 293.502 26.5373 294.199 27.3923 294.199Z" fill="#40916C"/>
<path d="M25.7589 283.89C26.6138 283.89 27.3069 283.191 27.3069 282.329C27.3069 281.466 26.6138 280.767 25.7589 280.767C24.904 280.767 24.2109 281.466 24.2109 282.329C24.2109 283.191 24.904 283.89 25.7589 283.89Z" fill="#40916C"/>
<path d="M34.8346 284.771C35.6998 284.771 36.4011 284.074 36.4011 283.215C36.4011 282.355 35.6998 281.658 34.8346 281.658C33.9694 281.658 33.2681 282.355 33.2681 283.215C33.2681 284.074 33.9694 284.771 34.8346 284.771Z" fill="#40916C"/>
<path d="M27.3923 272.346C28.2472 272.346 28.9403 271.647 28.9403 270.785C28.9403 269.923 28.2472 269.224 27.3923 269.224C26.5373 269.224 25.8442 269.923 25.8442 270.785C25.8442 271.647 26.5373 272.346 27.3923 272.346Z" fill="#40916C"/>
<path d="M19.9106 259.17C20.7744 259.17 21.4746 258.471 21.4746 257.608C21.4746 256.746 20.7744 256.047 19.9106 256.047C19.0469 256.047 18.3467 256.746 18.3467 257.608C18.3467 258.471 19.0469 259.17 19.9106 259.17Z" fill="#40916C"/>
<path d="M51.6648 255.69C52.5184 255.69 53.2104 254.993 53.2104 254.133C53.2104 253.273 52.5184 252.577 51.6648 252.577C50.8112 252.577 50.1191 253.273 50.1191 254.133C50.1191 254.993 50.8112 255.69 51.6648 255.69Z" fill="#40916C"/>
<path d="M35.7229 238.764C36.5868 238.764 37.2871 238.067 37.2871 237.208C37.2871 236.348 36.5868 235.651 35.7229 235.651C34.859 235.651 34.1587 236.348 34.1587 237.208C34.1587 238.067 34.859 238.764 35.7229 238.764Z" fill="#40916C"/>
<path d="M43.5173 275.019C44.3812 275.019 45.0815 274.32 45.0815 273.457C45.0815 272.595 44.3812 271.896 43.5173 271.896C42.6534 271.896 41.9531 272.595 41.9531 273.457C41.9531 274.32 42.6534 275.019 43.5173 275.019Z" fill="#40916C"/>
<path d="M36.3146 267.586C37.177 267.586 37.8762 266.889 37.8762 266.029C37.8762 265.17 37.177 264.473 36.3146 264.473C35.4521 264.473 34.7529 265.17 34.7529 266.029C34.7529 266.889 35.4521 267.586 36.3146 267.586Z" fill="#40916C"/>
<path d="M26.3692 263.252C27.233 263.252 27.9332 262.553 27.9332 261.691C27.9332 260.829 27.233 260.13 26.3692 260.13C25.5054 260.13 24.8052 260.829 24.8052 261.691C24.8052 262.553 25.5054 263.252 26.3692 263.252Z" fill="#40916C"/>
<path d="M31.5654 255.69C32.4292 255.69 33.1294 254.993 33.1294 254.133C33.1294 253.273 32.4292 252.577 31.5654 252.577C30.7017 252.577 30.0015 253.273 30.0015 254.133C30.0015 254.993 30.7017 255.69 31.5654 255.69Z" fill="#40916C"/>
<path d="M48.6212 264.821C49.4748 264.821 50.1667 264.124 50.1667 263.264C50.1667 262.404 49.4748 261.707 48.6212 261.707C47.7676 261.707 47.0757 262.404 47.0757 263.264C47.0757 264.124 47.7676 264.821 48.6212 264.821Z" fill="#40916C"/>
<path d="M40.2325 258.817C41.0861 258.817 41.7781 258.118 41.7781 257.256C41.7781 256.393 41.0861 255.694 40.2325 255.694C39.379 255.694 38.687 256.393 38.687 257.256C38.687 258.118 39.379 258.817 40.2325 258.817Z" fill="#40916C"/>
<path d="M47.1364 253.611C47.9899 253.611 48.6819 252.914 48.6819 252.055C48.6819 251.195 47.9899 250.498 47.1364 250.498C46.2828 250.498 45.5908 251.195 45.5908 252.055C45.5908 252.914 46.2828 253.611 47.1364 253.611Z" fill="#40916C"/>
<path d="M47.6608 243.682C48.517 243.682 49.2112 242.985 49.2112 242.126C49.2112 241.266 48.517 240.569 47.6608 240.569C46.8045 240.569 46.1104 241.266 46.1104 242.126C46.1104 242.985 46.8045 243.682 47.6608 243.682Z" fill="#40916C"/>
<path d="M34.8346 245.26C35.6998 245.26 36.4011 244.559 36.4011 243.694C36.4011 242.829 35.6998 242.128 34.8346 242.128C33.9694 242.128 33.2681 242.829 33.2681 243.694C33.2681 244.559 33.9694 245.26 34.8346 245.26Z" fill="#40916C"/>
<path d="M39.4343 249.974C40.2981 249.974 40.9984 249.277 40.9984 248.417C40.9984 247.557 40.2981 246.86 39.4343 246.86C38.5704 246.86 37.8701 247.557 37.8701 248.417C37.8701 249.277 38.5704 249.974 39.4343 249.974Z" fill="#40916C"/>
<path d="M53.8223 276.578C54.6786 276.578 55.3727 275.879 55.3727 275.016C55.3727 274.154 54.6786 273.455 53.8223 273.455C52.9661 273.455 52.272 274.154 52.272 275.016C52.272 275.879 52.9661 276.578 53.8223 276.578Z" fill="#40916C"/>
<path d="M59.2556 260.376C60.1194 260.376 60.8197 259.677 60.8197 258.815C60.8197 257.952 60.1194 257.253 59.2556 257.253C58.3917 257.253 57.6914 257.952 57.6914 258.815C57.6914 259.677 58.3917 260.376 59.2556 260.376Z" fill="#40916C"/>
<path d="M76.8492 260.376C77.7131 260.376 78.4133 259.677 78.4133 258.815C78.4133 257.952 77.7131 257.253 76.8492 257.253C75.9854 257.253 75.2852 257.952 75.2852 258.815C75.2852 259.677 75.9854 260.376 76.8492 260.376Z" fill="#40916C"/>
<path d="M64.4333 271.381C65.2869 271.381 65.9789 270.682 65.9789 269.82C65.9789 268.958 65.2869 268.259 64.4333 268.259C63.5797 268.259 62.8877 268.958 62.8877 269.82C62.8877 270.682 63.5797 271.381 64.4333 271.381Z" fill="#40916C"/>
<path d="M62.819 232.111C63.6828 232.111 64.3831 231.412 64.3831 230.55C64.3831 229.687 63.6828 228.988 62.819 228.988C61.9551 228.988 61.2549 229.687 61.2549 230.55C61.2549 231.412 61.9551 232.111 62.819 232.111Z" fill="#40916C"/>
<path d="M57.6218 216.243C58.4856 216.243 59.1859 215.544 59.1859 214.682C59.1859 213.82 58.4856 213.121 57.6218 213.121C56.7579 213.121 56.0576 213.82 56.0576 214.682C56.0576 215.544 56.7579 216.243 57.6218 216.243Z" fill="#40916C"/>
<path d="M57.6218 239.015C58.4856 239.015 59.1859 238.316 59.1859 237.453C59.1859 236.591 58.4856 235.892 57.6218 235.892C56.7579 235.892 56.0576 236.591 56.0576 237.453C56.0576 238.316 56.7579 239.015 57.6218 239.015Z" fill="#40916C"/>
<path d="M71.8751 247.969C72.7389 247.969 73.4392 247.272 73.4392 246.413C73.4392 245.553 72.7389 244.856 71.8751 244.856C71.0113 244.856 70.311 245.553 70.311 246.413C70.311 247.272 71.0113 247.969 71.8751 247.969Z" fill="#40916C"/>
<path d="M101.124 198.352C101.988 198.352 102.688 197.653 102.688 196.791C102.688 195.929 101.988 195.23 101.124 195.23C100.26 195.23 99.5596 195.929 99.5596 196.791C99.5596 197.653 100.26 198.352 101.124 198.352Z" fill="#40916C"/>
<path d="M110.403 189.583C111.267 189.583 111.967 188.887 111.967 188.027C111.967 187.167 111.267 186.47 110.403 186.47C109.539 186.47 108.839 187.167 108.839 188.027C108.839 188.887 109.539 189.583 110.403 189.583Z" fill="#40916C"/>
<path d="M102.743 141.117C103.599 141.117 104.294 140.418 104.294 139.556C104.294 138.694 103.599 137.995 102.743 137.995C101.887 137.995 101.193 138.694 101.193 139.556C101.193 140.418 101.887 141.117 102.743 141.117Z" fill="#40916C"/>
<path d="M120.648 152.382C121.511 152.382 122.212 151.683 122.212 150.821C122.212 149.959 121.511 149.26 120.648 149.26C119.784 149.26 119.083 149.959 119.083 150.821C119.083 151.683 119.784 152.382 120.648 152.382Z" fill="#40916C"/>
<path d="M112.631 142.667C113.495 142.667 114.195 141.97 114.195 141.11C114.195 140.251 113.495 139.554 112.631 139.554C111.767 139.554 111.066 140.251 111.066 141.11C111.066 141.97 111.767 142.667 112.631 142.667Z" fill="#40916C"/>
<path d="M99.6393 130.279C100.503 130.279 101.203 129.58 101.203 128.718C101.203 127.855 100.503 127.156 99.6393 127.156C98.7755 127.156 98.0752 127.855 98.0752 128.718C98.0752 129.58 98.7755 130.279 99.6393 130.279Z" fill="#40916C"/>
<path d="M94.3683 146.991C95.2321 146.991 95.9324 146.294 95.9324 145.435C95.9324 144.575 95.2321 143.878 94.3683 143.878C93.5045 143.878 92.8042 144.575 92.8042 145.435C92.8042 146.294 93.5045 146.991 94.3683 146.991Z" fill="#40916C"/>
<path d="M102.743 167.155C103.599 167.155 104.294 166.456 104.294 165.594C104.294 164.732 103.599 164.033 102.743 164.033C101.887 164.033 101.193 164.732 101.193 165.594C101.193 166.456 101.887 167.155 102.743 167.155Z" fill="#40916C"/>
<path d="M142.992 150.814C143.856 150.814 144.556 150.117 144.556 149.258C144.556 148.398 143.856 147.701 142.992 147.701C142.128 147.701 141.428 148.398 141.428 149.258C141.428 150.117 142.128 150.814 142.992 150.814Z" fill="#40916C"/>
<path d="M170.891 105.429C171.747 105.429 172.442 104.73 172.442 103.868C172.442 103.005 171.747 102.306 170.891 102.306C170.035 102.306 169.341 103.005 169.341 103.868C169.341 104.73 170.035 105.429 170.891 105.429Z" fill="#40916C"/>
<path d="M106.172 103.87C107.035 103.87 107.736 103.171 107.736 102.309C107.736 101.446 107.035 100.747 106.172 100.747C105.308 100.747 104.607 101.446 104.607 102.309C104.607 103.171 105.308 103.87 106.172 103.87Z" fill="#40916C"/>
<path d="M85.2374 150.814C86.1012 150.814 86.8015 150.117 86.8015 149.258C86.8015 148.398 86.1012 147.701 85.2374 147.701C84.3736 147.701 83.6733 148.398 83.6733 149.258C83.6733 150.117 84.3736 150.814 85.2374 150.814Z" fill="#40916C"/>
<path d="M118.722 107.86C119.589 107.86 120.291 107.161 120.291 106.299C120.291 105.437 119.589 104.738 118.722 104.738C117.856 104.738 117.153 105.437 117.153 106.299C117.153 107.161 117.856 107.86 118.722 107.86Z" fill="#40916C"/>
<path d="M111.888 130.279C112.752 130.279 113.452 129.58 113.452 128.718C113.452 127.855 112.752 127.156 111.888 127.156C111.024 127.156 110.324 127.855 110.324 128.718C110.324 129.58 111.024 130.279 111.888 130.279Z" fill="#40916C"/>
<path d="M128.799 117.919C129.656 117.919 130.35 117.22 130.35 116.358C130.35 115.495 129.656 114.796 128.799 114.796C127.943 114.796 127.249 115.495 127.249 116.358C127.249 117.22 127.943 117.919 128.799 117.919Z" fill="#40916C"/>
<path d="M108.77 107.86C109.634 107.86 110.334 107.161 110.334 106.299C110.334 105.437 109.634 104.738 108.77 104.738C107.906 104.738 107.206 105.437 107.206 106.299C107.206 107.161 107.906 107.86 108.77 107.86Z" fill="#40916C"/>
<path d="M120.648 123.338C121.511 123.338 122.212 122.639 122.212 121.777C122.212 120.915 121.511 120.216 120.648 120.216C119.784 120.216 119.083 120.915 119.083 121.777C119.083 122.639 119.784 123.338 120.648 123.338Z" fill="#40916C"/>
<path d="M139.508 117.195C140.375 117.195 141.077 116.496 141.077 115.634C141.077 114.772 140.375 114.073 139.508 114.073C138.642 114.073 137.939 114.772 137.939 115.634C137.939 116.496 138.642 117.195 139.508 117.195Z" fill="#40916C"/>
<path d="M140.914 139.549C141.778 139.549 142.478 138.852 142.478 137.992C142.478 137.133 141.778 136.436 140.914 136.436C140.05 136.436 139.35 137.133 139.35 137.992C139.35 138.852 140.05 139.549 140.914 139.549Z" fill="#40916C"/>
<path d="M151.585 125.918C152.439 125.918 153.131 125.219 153.131 124.356C153.131 123.494 152.439 122.795 151.585 122.795C150.732 122.795 150.04 123.494 150.04 124.356C150.04 125.219 150.732 125.918 151.585 125.918Z" fill="#40916C"/>
<path d="M120.202 96.0891C121.066 96.0891 121.766 95.3911 121.766 94.5302C121.766 93.6692 121.066 92.9713 120.202 92.9713C119.338 92.9713 118.638 93.6692 118.638 94.5302C118.638 95.3911 119.338 96.0891 120.202 96.0891Z" fill="#40916C"/>
<path d="M107.731 121.77C108.595 121.77 109.295 121.073 109.295 120.213C109.295 119.354 108.595 118.657 107.731 118.657C106.867 118.657 106.167 119.354 106.167 120.213C106.167 121.073 106.867 121.77 107.731 121.77Z" fill="#40916C"/>
<path d="M127.626 109.41C128.49 109.41 129.19 108.713 129.19 107.853C129.19 106.993 128.49 106.297 127.626 106.297C126.762 106.297 126.062 106.993 126.062 107.853C126.062 108.713 126.762 109.41 127.626 109.41Z" fill="#40916C"/>
<path d="M152.643 97.3C153.507 97.3 154.207 96.6011 154.207 95.7388C154.207 94.8766 153.507 94.1776 152.643 94.1776C151.779 94.1776 151.079 94.8766 151.079 95.7388C151.079 96.6011 151.779 97.3 152.643 97.3Z" fill="#40916C"/>
<path d="M167.119 81.706C167.983 81.706 168.683 81.0081 168.683 80.1471C168.683 79.2862 167.983 78.5882 167.119 78.5882C166.255 78.5882 165.555 79.2862 165.555 80.1471C165.555 81.0081 166.255 81.706 167.119 81.706Z" fill="#40916C"/>
<path d="M165.634 57.2688C166.498 57.2688 167.198 56.5698 167.198 55.7076C167.198 54.8453 166.498 54.1464 165.634 54.1464C164.77 54.1464 164.07 54.8453 164.07 55.7076C164.07 56.5698 164.77 57.2688 165.634 57.2688Z" fill="#40916C"/>
<path d="M187.961 64.2979C188.814 64.2979 189.506 63.6 189.506 62.739C189.506 61.878 188.814 61.1801 187.961 61.1801C187.107 61.1801 186.415 61.878 186.415 62.739C186.415 63.6 187.107 64.2979 187.961 64.2979Z" fill="#40916C"/>
<path d="M156.341 39.3967C157.197 39.3967 157.891 38.6977 157.891 37.8355C157.891 36.9732 157.197 36.2743 156.341 36.2743C155.485 36.2743 154.791 36.9732 154.791 37.8355C154.791 38.6977 155.485 39.3967 156.341 39.3967Z" fill="#40916C"/>
<path d="M162.572 48.0776C163.425 48.0776 164.117 47.3797 164.117 46.5187C164.117 45.6577 163.425 44.9598 162.572 44.9598C161.718 44.9598 161.026 45.6577 161.026 46.5187C161.026 47.3797 161.718 48.0776 162.572 48.0776Z" fill="#40916C"/>
<path d="M176.027 28.5352C176.891 28.5352 177.591 27.8373 177.591 26.9763C177.591 26.1154 176.891 25.4174 176.027 25.4174C175.163 25.4174 174.463 26.1154 174.463 26.9763C174.463 27.8373 175.163 28.5352 176.027 28.5352Z" fill="#40916C"/>
<path d="M198.075 35.2581C198.939 35.2581 199.639 34.5591 199.639 33.6969C199.639 32.8347 198.939 32.1357 198.075 32.1357C197.211 32.1357 196.511 32.8347 196.511 33.6969C196.511 34.5591 197.211 35.2581 198.075 35.2581Z" fill="#40916C"/>
<path d="M167.397 21.4829C168.251 21.4829 168.943 20.785 168.943 19.924C168.943 19.0631 168.251 18.3651 167.397 18.3651C166.544 18.3651 165.852 19.0631 165.852 19.924C165.852 20.785 166.544 21.4829 167.397 21.4829Z" fill="#40916C"/>
<path d="M157.826 28.5352C158.682 28.5352 159.376 27.8373 159.376 26.9763C159.376 26.1154 158.682 25.4174 157.826 25.4174C156.97 25.4174 156.275 26.1154 156.275 26.9763C156.275 27.8373 156.97 28.5352 157.826 28.5352Z" fill="#40916C"/>
<path d="M145.59 40.9556C146.454 40.9556 147.154 40.2567 147.154 39.3944C147.154 38.5322 146.454 37.8332 145.59 37.8332C144.727 37.8332 144.026 38.5322 144.026 39.3944C144.026 40.2567 144.727 40.9556 145.59 40.9556Z" fill="#40916C"/>
<path d="M136.664 43.3265C137.517 43.3265 138.209 42.6286 138.209 41.7676C138.209 40.9067 137.517 40.2087 136.664 40.2087C135.81 40.2087 135.118 40.9067 135.118 41.7676C135.118 42.6286 135.81 43.3265 136.664 43.3265Z" fill="#40916C"/>
<path d="M139.193 54.6474C140.049 54.6474 140.743 53.9494 140.743 53.0885C140.743 52.2275 140.049 51.5296 139.193 51.5296C138.336 51.5296 137.642 52.2275 137.642 53.0885C137.642 53.9494 138.336 54.6474 139.193 54.6474Z" fill="#40916C"/>
<path d="M90.7996 140.079C91.9472 140.079 92.8776 139.147 92.8776 137.998C92.8776 136.848 91.9472 135.916 90.7996 135.916C89.652 135.916 88.7217 136.848 88.7217 137.998C88.7217 139.147 89.652 140.079 90.7996 140.079Z" fill="#40916C"/>
<path d="M135.044 165.588C136.191 165.588 137.122 164.659 137.122 163.511C137.122 162.364 136.191 161.435 135.044 161.435C133.896 161.435 132.966 162.364 132.966 163.511C132.966 164.659 133.896 165.588 135.044 165.588Z" fill="#40916C"/>
<path d="M118.786 192.545C119.934 192.545 120.864 191.613 120.864 190.463C120.864 189.314 119.934 188.382 118.786 188.382C117.638 188.382 116.708 189.314 116.708 190.463C116.708 191.613 117.638 192.545 118.786 192.545Z" fill="#40916C"/>
<path d="M80.847 164.289C81.992 164.289 82.9202 163.359 82.9202 162.212C82.9202 161.065 81.992 160.135 80.847 160.135C79.7021 160.135 78.7739 161.065 78.7739 162.212C78.7739 163.359 79.7021 164.289 80.847 164.289Z" fill="#40916C"/>
<path d="M71.9574 184.917C73.1126 184.917 74.0491 183.985 74.0491 182.836C74.0491 181.686 73.1126 180.754 71.9574 180.754C70.8022 180.754 69.8657 181.686 69.8657 182.836C69.8657 183.985 70.8022 184.917 71.9574 184.917Z" fill="#40916C"/>
<path d="M62.8869 204.608C64.0345 204.608 64.9647 203.676 64.9647 202.527C64.9647 201.377 64.0345 200.445 62.8869 200.445C61.7394 200.445 60.8091 201.377 60.8091 202.527C60.8091 203.676 61.7394 204.608 62.8869 204.608Z" fill="#40916C"/>
<path d="M54.4935 229.505C55.6385 229.505 56.5667 228.575 56.5667 227.428C56.5667 226.281 55.6385 225.351 54.4935 225.351C53.3486 225.351 52.4204 226.281 52.4204 227.428C52.4204 228.575 53.3486 229.505 54.4935 229.505Z" fill="#40916C"/>
<path d="M64.3719 245.475C65.5195 245.475 66.4498 244.543 66.4498 243.393C66.4498 242.243 65.5195 241.311 64.3719 241.311C63.2243 241.311 62.2939 242.243 62.2939 243.393C62.2939 244.543 63.2243 245.475 64.3719 245.475Z" fill="#40916C"/>
<path d="M80.9955 246.959C82.1405 246.959 83.0687 246.027 83.0687 244.878C83.0687 243.728 82.1405 242.796 80.9955 242.796C79.8506 242.796 78.9224 243.728 78.9224 244.878C78.9224 246.027 79.8506 246.959 80.9955 246.959Z" fill="#40916C"/>
<path d="M58.7387 252.035C59.8912 252.035 60.8256 251.105 60.8256 249.958C60.8256 248.811 59.8912 247.881 58.7387 247.881C57.5862 247.881 56.6519 248.811 56.6519 249.958C56.6519 251.105 57.5862 252.035 58.7387 252.035Z" fill="#40916C"/>
<path d="M83.1669 256.202C84.3221 256.202 85.2585 255.27 85.2585 254.12C85.2585 252.97 84.3221 252.038 83.1669 252.038C82.0117 252.038 81.0752 252.97 81.0752 254.12C81.0752 255.27 82.0117 256.202 83.1669 256.202Z" fill="#40916C"/>
<path d="M85.2318 282.332C86.3794 282.332 87.3097 281.4 87.3097 280.251C87.3097 279.101 86.3794 278.169 85.2318 278.169C84.0841 278.169 83.1538 279.101 83.1538 280.251C83.1538 281.4 84.0841 282.332 85.2318 282.332Z" fill="#40916C"/>
<path d="M74.7781 303.564C75.9333 303.564 76.8698 302.632 76.8698 301.482C76.8698 300.332 75.9333 299.4 74.7781 299.4C73.623 299.4 72.6865 300.332 72.6865 301.482C72.6865 302.632 73.623 303.564 74.7781 303.564Z" fill="#40916C"/>
<path d="M53.8256 318.578C54.9705 318.578 55.8987 317.646 55.8987 316.496C55.8987 315.346 54.9705 314.414 53.8256 314.414C52.6806 314.414 51.7524 315.346 51.7524 316.496C51.7524 317.646 52.6806 318.578 53.8256 318.578Z" fill="#40916C"/>
<path d="M26.2864 321.204C27.4327 321.204 28.3619 320.274 28.3619 319.127C28.3619 317.98 27.4327 317.05 26.2864 317.05C25.1402 317.05 24.2109 317.98 24.2109 319.127C24.2109 320.274 25.1402 321.204 26.2864 321.204Z" fill="#40916C"/>
<path d="M19.3831 296.279C20.5293 296.279 21.4585 295.349 21.4585 294.202C21.4585 293.055 20.5293 292.125 19.3831 292.125C18.2368 292.125 17.3076 293.055 17.3076 294.202C17.3076 295.349 18.2368 296.279 19.3831 296.279Z" fill="#40916C"/>
<path d="M19.3831 273.981C20.5293 273.981 21.4585 273.049 21.4585 271.899C21.4585 270.75 20.5293 269.818 19.3831 269.818C18.2368 269.818 17.3076 270.75 17.3076 271.899C17.3076 273.049 18.2368 273.981 19.3831 273.981Z" fill="#40916C"/>
<path d="M24.2802 250.485C25.4251 250.485 26.3533 249.554 26.3533 248.404C26.3533 247.254 25.4251 246.322 24.2802 246.322C23.1352 246.322 22.207 247.254 22.207 248.404C22.207 249.554 23.1352 250.485 24.2802 250.485Z" fill="#40916C"/>
<path d="M47.1492 235.304C48.2968 235.304 49.2272 234.372 49.2272 233.223C49.2272 232.073 48.2968 231.141 47.1492 231.141C46.0016 231.141 45.0713 232.073 45.0713 233.223C45.0713 234.372 46.0016 235.304 47.1492 235.304Z" fill="#40916C"/>
<path d="M2.82611 305.234C3.9711 305.234 4.89929 304.302 4.89929 303.152C4.89929 302.003 3.9711 301.071 2.82611 301.071C1.68112 301.071 0.75293 302.003 0.75293 303.152C0.75293 304.302 1.68112 305.234 2.82611 305.234Z" fill="#40916C"/>
<path d="M102.245 220.457C103.4 220.457 104.337 219.525 104.337 218.376C104.337 217.226 103.4 216.294 102.245 216.294C101.09 216.294 100.153 217.226 100.153 218.376C100.153 219.525 101.09 220.457 102.245 220.457Z" fill="#40916C"/>
<path d="M134.013 35.7885C135.166 35.7885 136.1 34.8586 136.1 33.7115C136.1 32.5645 135.166 31.6346 134.013 31.6346C132.861 31.6346 131.926 32.5645 131.926 33.7115C131.926 34.8586 132.861 35.7885 134.013 35.7885Z" fill="#40916C"/>
<path d="M118.563 72.507C119.711 72.507 120.641 71.5751 120.641 70.4254C120.641 69.2758 119.711 68.3438 118.563 68.3438C117.416 68.3438 116.485 69.2758 116.485 70.4254C116.485 71.5751 117.416 72.507 118.563 72.507Z" fill="#40916C"/>
<path d="M126.645 52.2362C127.788 52.2362 128.714 51.3053 128.714 50.1569C128.714 49.0086 127.788 48.0776 126.645 48.0776C125.503 48.0776 124.577 49.0086 124.577 50.1569C124.577 51.3053 125.503 52.2362 126.645 52.2362Z" fill="#40916C"/>
<path d="M109.725 94.5316C110.87 94.5316 111.798 93.6007 111.798 92.4523C111.798 91.304 110.87 90.373 109.725 90.373C108.58 90.373 107.651 91.304 107.651 92.4523C107.651 93.6007 108.58 94.5316 109.725 94.5316Z" fill="#40916C"/>
<path d="M205.196 33.7099C206.343 33.7099 207.273 32.78 207.273 31.6329C207.273 30.4859 206.343 29.556 205.196 29.556C204.048 29.556 203.118 30.4859 203.118 31.6329C203.118 32.78 204.048 33.7099 205.196 33.7099Z" fill="#40916C"/>
<path d="M134 33.694L143.493 17.053L150.68 8.78451L161.99 3.06417C169.187 1.89809 176.554 2.3745 183.541 4.45786C183.541 4.45786 193.927 9.72057 198.081 14.9209C200.158 17.5834 202.101 23.0438 202.101 23.0438L205.029 32.2483C206.202 36.6743 205.715 41.3773 203.658 45.4675C203.658 45.4675 202.391 53.0703 199.141 55.7017L193.252 66.7783L187.498 76.4925L175.928 94.5168L164.971 113.55L118.369 190.982L89.8699 237.442C89.8699 237.442 86.2141 246.709 72.0061 246.407C72.0061 246.407 54.2253 243.287 54.5784 227.426L57.6942 214.685L72.4942 179.875L91.3759 135.37L127.81 49.6173L134 33.694Z" stroke="#40916C" stroke-width="0.25" stroke-miterlimit="10"/>
<path d="M198.151 33.6969L203.729 44.9507L189.186 42.8706L191.627 51.493L198.764 33.6657L205.755 31.5855L191.731 20.238L189.653 42.3505L178.766 39.3862C178.766 39.3862 173.073 48.7471 173.001 48.5911L172.928 48.3831L168.274 31.6167L179.701 39.3862L162.591 46.5109L156.358 37.8261L157.906 26.9883L168.357 31.2943L146.105 29.5573L156.348 19.1563L150.749 8.80734L171.058 11.2828L167.547 19.926" stroke="#40916C" stroke-width="0.25" stroke-miterlimit="10"/>
<path d="M181.608 16.2632L183.476 3.98206L171.345 11.2925L197.715 14.589" stroke="#40916C" stroke-width="0.25" stroke-miterlimit="10"/>
<path d="M192.36 19.9276L162.726 2.94275L183.5 3.98285L167.764 19.4076L161.988 3.06756L171.399 10.8267L156.275 18.5755L157.833 26.9691L166.995 19.9276L167.764 31.868L176.073 27.822L171.399 11.5444L182.181 16.4849L167.764 19.9276L175.201 27.2812L192.859 20.2501L183.864 31.0359L198.094 34.4371V14.9247L191.186 20.6453C191.415 20.3437 202.114 23.0479 202.114 23.0479L184.882 30.6927L189.577 42.3522L198.042 33.6986L179.189 39.804L176.073 26.5635L184.58 30.9735L181.267 16.4849L192.402 19.9276L183.801 4.59651" stroke="#40916C" stroke-width="0.25" stroke-miterlimit="10"/>
<path d="M167.317 19.5314L151.001 8.62138L145.341 29.131L157.939 26.9469L143.284 17.5241L156.423 18.897L162.311 2.94275L157.835 27.5709L176.156 26.9677" stroke="#40916C" stroke-width="0.25" stroke-miterlimit="10"/>
<path d="M143.284 17.5299L145.652 29.0857V39.3933L156.358 37.8331L168.363 31.6652L162.589 47.0382L173.43 48.0783L189.401 42.2848L182.433 54.6519L188.124 62.7336L199.204 55.7128L191.894 51.5315L203.721 45.7068" stroke="#40916C" stroke-width="0.25" stroke-miterlimit="10"/>
<path d="M182.37 54.6534L172.904 48.3907L172.977 61.9251L179.92 65.8574L188.057 63.1838L193.672 67.0642L192.115 51.3972L188.057 62.7365L179.204 39.3921" stroke="#40916C" stroke-width="0.25" stroke-miterlimit="10"/>
<path d="M172.978 61.9234L182.151 54.8887" stroke="#40916C" stroke-width="0.25" stroke-miterlimit="10"/>
<path d="M193.269 67.4093L187.482 76.4979L179.856 66.1614L182.069 54.8889L165.332 55.7105L172.75 48.0776" stroke="#40916C" stroke-width="0.25" stroke-miterlimit="10"/>
<path d="M180.541 66.102L173.409 72.4046L177.468 78.5825L172.941 86.0916L166.982 80.1425L164.054 67.0588L172.941 61.5674L165.612 55.9616L162.736 46.414L154.71 59.7265L146.374 59.6641L151.326 50.1581L148.481 69.6173L157.067 73.6631L155.51 59.7785L166.328 55.3064L163.463 67.0588L157.067 74.0687L172.516 72.5086L173.232 62.285L167.574 79.8721L160.182 81.817L164.054 90.3662L173.834 86.3724L175.911 93.6631L162.497 100.236L163.463 90.0645L152.686 95.7432L151.129 87.6516L160.431 81.1826L150.039 80.9642L158.168 73.3303L142.968 74.0687L150.319 81.7026L147.931 68.6085L146.374 58.6449L139.127 53.0911L145.564 39.3937L151.596 50.4182L156.268 38.2601L154.71 60.361" stroke="#40916C" stroke-width="0.25" stroke-miterlimit="10"/>
<path d="M177.432 78.5884L187.478 76.5084L187.997 62.739" stroke="#40916C" stroke-width="0.25" stroke-miterlimit="10"/>
<path d="M176.096 92.4444L178.374 78.4026" stroke="#40916C" stroke-width="0.25" stroke-miterlimit="10"/>
<path d="M173.424 85.5127L186.901 77.4107L173.424 72.4081" stroke="#40916C" stroke-width="0.25" stroke-miterlimit="10"/>
<path d="M134.14 33.7096L145.558 29.092L136.009 41.3015L139.123 53.095L126.729 50.1623L145.558 39.3983L136.59 41.7695L133.985 33.2416" stroke="#40916C" stroke-width="0.25" stroke-miterlimit="10"/>
<path d="M134.458 63.4767L146.041 59.1706L135.071 72.0994L143.496 74.0653L134.458 64.288L126.729 70.9449L128.807 58.4425L139.434 53.6267L135.071 64.288" stroke="#40916C" stroke-width="0.25" stroke-miterlimit="10"/>
<path d="M148.489 68.9677L129.139 57.7889L126.729 50.1562" stroke="#40916C" stroke-width="0.25" stroke-miterlimit="10"/>
<path d="M126.746 71.9356L124.669 84.5223L134.471 87.8094V78.9467L117.599 82.5147L118.658 70.937L128.823 58.4335" stroke="#40916C" stroke-width="0.25" stroke-miterlimit="10"/>
<path d="M118.638 70.9519H126.716L121.749 60.0109" stroke="#40916C" stroke-width="0.25" stroke-miterlimit="10"/>
<path d="M118.119 82.5197L126.726 70.942" stroke="#40916C" stroke-width="0.25" stroke-miterlimit="10"/>
<path d="M142.987 74.0599V92.4381L149.963 80.9556" stroke="#40916C" stroke-width="0.25" stroke-miterlimit="10"/>
<path d="M162.571 100.238L152.638 95.2248L160.252 81.8174" stroke="#40916C" stroke-width="0.25" stroke-miterlimit="10"/>
<path d="M151.524 87.812L163.403 90.0599L175.863 93.6608" stroke="#40916C" stroke-width="0.25" stroke-miterlimit="10"/>
<path d="M164.477 113.232L162.533 99.7111L155.54 107.855L151.622 124.351L139.141 127.149L139.973 115.635L146.395 104.735L151.154 87.6462L139.141 97.8806L136.024 103.871L139.141 116.352L139.973 98.151L146.395 105.432L149.596 114.792L155.54 108.427L153.638 95.738L142.986 91.9209L135.078 72.0969L126.733 70.9424L135.567 79.3983L143.069 74.0627L134.901 87.8126L151.154 87.6462L150.063 80.9584L123.834 84.9315L118.638 70.4224" stroke="#40916C" stroke-width="0.25" stroke-miterlimit="10"/>
<path d="M152.325 134.766L151.579 124.355L150.024 114.277L139.127 127.152L140.983 137.99L152.325 134.766Z" stroke="#40916C" stroke-width="0.25" stroke-miterlimit="10"/>
<path d="M152.326 133.834L138.162 127.156" stroke="#40916C" stroke-width="0.25" stroke-miterlimit="10"/>
<path d="M139.409 115.635L150.03 114.272L152.576 95.2169L138.162 97.2971" stroke="#40916C" stroke-width="0.25" stroke-miterlimit="10"/>
<path d="M120.18 96.0867L117.562 82.5227L109.285 91.9259L120.18 94.5264L123.295 85.508L128.79 95.0361L139.113 97.8862L134.44 87.8172L142.53 91.0314L146.363 104.741L155.503 107.862L170.521 103.878L164.435 90.7401" stroke="#40916C" stroke-width="0.25" stroke-miterlimit="10"/>
<path d="M164.89 113.551L151.524 124.348L162.429 100.747" stroke="#40916C" stroke-width="0.25" stroke-miterlimit="10"/>
<path d="M165 112.718L150.04 114.273" stroke="#40916C" stroke-width="0.25" stroke-miterlimit="10"/>
<path d="M109.184 92.4496L118.528 106.304H108.675L105.561 101.8L120.096 94.5195L127.478 108.426L114.926 114.792L107.658 120.221L111.811 128.709L123.232 135.386L128.174 128.719L120.605 121.792L111.261 128.719H99.5596L100.307 114.084L107.575 120.232L108.613 106.304L114.843 114.802L129.295 116.882L128.952 117.184C128.61 117.486 127.395 108.416 127.395 108.416L129.658 95.3724L117.999 107.084L123.709 84.8982L121.633 121.75" stroke="#40916C" stroke-width="0.25" stroke-miterlimit="10"/>
<path d="M100.45 114.077L108.835 106.297" stroke="#40916C" stroke-width="0.25" stroke-miterlimit="10"/>
<path d="M127.732 107.867L136.046 103.884L129.166 117.206C129.166 117.206 139.08 126.671 139.164 127.159C139.247 127.648 139.953 127.981 139.953 127.981L127.711 129.531L139.143 116.364L120.717 121.793" stroke="#40916C" stroke-width="0.25" stroke-miterlimit="10"/>
<path d="M135.997 103.877L129.848 94.8271" stroke="#40916C" stroke-width="0.25" stroke-miterlimit="10"/>
<path d="M102.691 139.558L99.5745 127.992L90.6514 137.998L94.2871 145.445L107.126 154.619L120.62 150.822L111.801 141.118L123.217 135.397L102.691 140.078L111.292 128.72L107.126 156.179L102.691 139.558Z" stroke="#40916C" stroke-width="0.25" stroke-miterlimit="10"/>
<path d="M120.765 150.82L102.826 140.073" stroke="#40916C" stroke-width="0.25" stroke-miterlimit="10"/>
<path d="M136.759 151.489L133.008 139.548L139.138 127.149L120.717 151.489L123.314 135.387L140.998 137.988L151.149 124.466" stroke="#40916C" stroke-width="0.25" stroke-miterlimit="10"/>
<path d="M128.359 129.458L141.061 137.996L143.045 149.259L136.086 151.495L120.268 150.819L133.24 140.076L126.094 160.137L107.108 155.447L102.86 165.607L91.3412 161.447L85.3066 149.259L94.4572 145.442L102.86 139.556L90.8219 137.996" stroke="#40916C" stroke-width="0.25" stroke-miterlimit="10"/>
<path d="M143.039 148.739L132.978 139.554L112.699 142.04" stroke="#40916C" stroke-width="0.25" stroke-miterlimit="10"/>
<path d="M107.187 154.611L116.779 164.295L125.997 160.134L134.956 163.525L120.167 173.656L120.936 150.846L103.674 166.864L93.8327 145.437L91.2242 162.214L80.8525 162.735L107.187 154.611Z" stroke="#40916C" stroke-width="0.25" stroke-miterlimit="10"/>
<path d="M134.97 163.516L136.013 151.483L139.936 137.828" stroke="#40916C" stroke-width="0.25" stroke-miterlimit="10"/>
<path d="M126.117 159.556L135.889 152.378L120.858 173.173L116.708 164.299L134.333 164.05" stroke="#40916C" stroke-width="0.25" stroke-miterlimit="10"/>
<path d="M125.967 179.4L120.906 173.16L107.157 177.84L116.749 164.288L102.158 165.39L107.157 178.818V154.605" stroke="#40916C" stroke-width="0.25" stroke-miterlimit="10"/>
<path d="M94.3486 175.688L91.2294 161.435L80.8525 176.27V162.204L94.3486 175.688Z" stroke="#40916C" stroke-width="0.25" stroke-miterlimit="10"/>
<path d="M96.9155 186.997L107.109 178.292L94.4399 175.693L102.293 165.386L101.295 196.783L110.417 188.027L91.3193 161.435" stroke="#40916C" stroke-width="0.25" stroke-miterlimit="10"/>
<path d="M110.323 188.041L126.406 178.823L107.206 177.845L119.143 190.475L120.951 173.164L110.323 188.041Z" stroke="#40916C" stroke-width="0.25" stroke-miterlimit="10"/>
<path d="M85.7973 186.471L87.6474 198.345C87.6474 198.345 96.4094 186.336 96.8771 186.471L97.3345 186.606L80.1846 176.282H94.4034L85.7973 186.471Z" stroke="#40916C" stroke-width="0.25" stroke-miterlimit="10"/>
<path d="M71.8583 182.363L85.1173 186.482L80.7876 176.726L73.9349 198.36H87.5157L67.3418 192.556L85.6676 186.482H96.7357L94.2646 175.706" stroke="#40916C" stroke-width="0.25" stroke-miterlimit="10"/>
<path d="M71.9443 182.834L81.288 175.7L102.387 165.852" stroke="#40916C" stroke-width="0.25" stroke-miterlimit="10"/>
<path d="M119.167 190.476L101.247 196.797L97.333 186.619L110.352 188.043V205.134L101.247 196.797" stroke="#40916C" stroke-width="0.25" stroke-miterlimit="10"/>
<path d="M110.267 188.033L102.087 218.373L87.0884 199.058L101.152 196.79L95.861 209.303L96.6094 185.765" stroke="#40916C" stroke-width="0.25" stroke-miterlimit="10"/>
<path d="M102.128 218.367L101.193 196.789" stroke="#40916C" stroke-width="0.25" stroke-miterlimit="10"/>
<path d="M67.5058 192.539L74.1005 211.559L81.7858 209.999L82.5128 222.177C82.5128 222.177 74.0694 228.864 73.5812 228.978C73.0931 229.092 86.127 230.538 86.127 230.538L81.5262 244.858L74.1005 238.993L64.3901 243.672L62.9673 230.538L53.6826 227.418L65.4702 215.615L62.3545 202.096L74.1421 197.52L82.5543 209.999L87.7471 198.342C87.7471 198.342 90.1254 217.799 90.8627 217.84H91.6105L81.0173 209.251H96.0555L111.291 205.091" stroke="#40916C" stroke-width="0.25" stroke-miterlimit="10"/>
<path d="M101.704 218.143L91.5139 217.904L86.0971 230.559L96.8684 227.44L82.4858 222.198L90.7667 217.862L95.6854 210.021" stroke="#40916C" stroke-width="0.25" stroke-miterlimit="10"/>
<path d="M97.4777 227.43L89.6865 217.185" stroke="#40916C" stroke-width="0.25" stroke-miterlimit="10"/>
<path d="M82.4854 223.142L86.1611 230.559" stroke="#40916C" stroke-width="0.25" stroke-miterlimit="10"/>
<path d="M73.9836 228.666L73.4643 211.57L66.3508 216.249L62.8511 230.548L57.6172 214.69L73.9836 197.5L75.0221 212.048L62.8511 202.075L81.6683 210.01L71.9066 183.315L87.5669 198.352" stroke="#40916C" stroke-width="0.25" stroke-miterlimit="10"/>
<path d="M64.8762 243.399L73.4644 228.996L65.3539 215.634L73.9836 239.01L86.0093 231.139L62.8511 230.556L57.6172 237.887V214.698" stroke="#40916C" stroke-width="0.25" stroke-miterlimit="10"/>
<path d="M74.0292 239.016L71.9506 246.422L62.8877 230.56L89.8268 237.456L90.7415 217.859L66.3902 216.257" stroke="#40916C" stroke-width="0.25" stroke-miterlimit="10"/>
<path d="M47.1741 233.22L54.5834 245.481L52.505 254.456C52.505 254.456 53.9391 248.538 58.74 249.194C58.74 249.194 74.608 254.269 83.3786 253.613C83.3786 253.613 89.6136 267.518 85.2906 279.238C82.4038 286.909 78.9296 294.346 74.899 301.483C74.899 301.483 63.2188 314.836 53.9287 316.5C53.9287 316.5 42.7265 322.344 26.4116 319.131C26.4116 319.131 9.78503 316.146 2.90576 303.147C9.24999 301.99 15.0681 298.86 19.5324 294.203C19.5324 294.203 22.8057 275.026 19.5324 271.906C19.5324 271.906 18.2334 254.841 24.3645 248.414C24.3021 248.414 30.0903 236.724 47.1741 233.22Z" stroke="#40916C" stroke-width="0.25" stroke-miterlimit="10"/>
<path d="M77.6602 258.801L83.1174 254.117" stroke="#40916C" stroke-width="0.25" stroke-miterlimit="10"/>
<path d="M75.2971 286.811L81.5609 268.267L85.1965 280.258L68.8257 275.547L77.0111 258.199L69.6151 261.694L55.3737 266.54L59.2275 258.813L48.6529 263.254L53.8155 275.547L47.0947 283.899L49.1723 296.285L56.0697 292.125L59.1859 281.662L42.7423 273.467L35.4814 266.041L40.27 257.253L47.6141 252.052L31.6276 254.133L34.7438 242.796L23.6914 247.975L26.3091 261.694L40.27 256.213L39.4183 248.412L30.6407 255.339L24.7509 248.412L40.27 247.975" stroke="#40916C" stroke-width="0.25" stroke-miterlimit="10"/>
<path d="M31.8201 253.619L47.1263 233.22L40.3086 247.981L34.788 243.695L35.7426 237.204L24.8052 247.513" stroke="#40916C" stroke-width="0.25" stroke-miterlimit="10"/>
<path d="M26.3271 261.694L32.0003 254.082L27.3661 270.792L35.9383 266.04L26.3271 262.079L40.562 257.254L19.3862 271.385L23.9269 249.143" stroke="#40916C" stroke-width="0.25" stroke-miterlimit="10"/>
<path d="M25.463 261.953L20.1993 257.959L27.3903 271.388L19.1631 272.355L26.3541 262.078" stroke="#40916C" stroke-width="0.25" stroke-miterlimit="10"/>
<path d="M64.3458 270.722L53.8739 275.548L56.1283 266.042L48.7107 261.694L47.1524 283.9H34.1976L27.4033 270.722L43.8695 273.468L53.8739 275.028L35.9741 266.042L48.7107 263.255L40.5971 257.253L59.2865 258.813" stroke="#40916C" stroke-width="0.25" stroke-miterlimit="10"/>
<path d="M59.687 282.339L70.3983 275.152L53.8483 275.028L68.0919 287.414L64.4557 269.828L55.4067 266.541L80.8914 269.162L69.91 261.57L59.2195 250.494V258.814L70.3567 261.695C64.4141 269.828 64.7674 269.235 64.7674 269.235L69.6087 275.548L81.5563 269.162L77.1097 258.814L58.6481 249.974L48.6537 263.255L47.0953 252.054L39.4177 248.414L47.6148 242.174L34.7529 243.693L47.1057 233.22L47.6252 242.133V252.054L51.7808 254.134L48.529 241.321L35.7399 237.161L47.168 251.243L43.376 273.488L40.5293 257.275L37.2463 266.063" stroke="#40916C" stroke-width="0.25" stroke-miterlimit="10"/>
<path d="M58.582 257.948L83.2362 253.597L81.5205 269.157" stroke="#40916C" stroke-width="0.25" stroke-miterlimit="10"/>
<path d="M37.3202 294.211L34.8148 282.345L27.4128 293.139L19.46 294.211L24.8139 282.345" stroke="#40916C" stroke-width="0.25" stroke-miterlimit="10"/>
<path d="M68.1345 287.422L75.6384 286.351L69.6935 275.033L73.5598 294.214L74.8589 301.496L62.9378 297.855L68.9036 287.911L73.5598 294.214L56.1407 292.134L68.1345 288.285L47.1608 283.906L27.4032 270.727L25.8442 282.346L43.4504 273.993L34.8032 283.23" stroke="#40916C" stroke-width="0.25" stroke-miterlimit="10"/>
<path d="M56.1353 292.114L53.3608 317.031L60.853 307.786L62.9313 297.833L47.6766 296.273L48.7158 306.226H37.9191L47.1571 283.888L36.3604 294.194L27.403 292.114L25.8442 282.328L35.9759 266.032L35.3005 283.888L53.3608 274.31" stroke="#40916C" stroke-width="0.25" stroke-miterlimit="10"/>
<path d="M75.5801 301.067L60.8081 307.795L48.6746 306.235L36.3231 294.204L26.3296 303.147L33.2066 312.089L38.0995 305.715L19.4215 294.204V303.147L13.1055 307.795L2.83154 303.147L18.3827 302.076L24.7714 310.53L26.3296 319.119L14.539 307.795L23.7118 310.873" stroke="#40916C" stroke-width="0.25" stroke-miterlimit="10"/>
<path d="M26.29 302.626L27.3142 293.127" stroke="#40916C" stroke-width="0.25" stroke-miterlimit="10"/>
<path d="M53.9037 316.411L49.2571 306.312L41.9077 315.215L33.2589 312.095L24.2983 310.878L26.3773 303.15L19.1631 302.63" stroke="#40916C" stroke-width="0.25" stroke-miterlimit="10"/>
<path d="M38.0695 319.122L33.1725 312.095L26.8096 318.582" stroke="#40916C" stroke-width="0.25" stroke-miterlimit="10"/>
<path d="M53.7047 315.888L41.9531 315.212L46.8574 284.776" stroke="#40916C" stroke-width="0.25" stroke-miterlimit="10"/>
<path d="M74.0972 294.204L81.0656 289.261L75.1357 285.774L85.2922 280.248" stroke="#40916C" stroke-width="0.25" stroke-miterlimit="10"/>
<path d="M60.8679 307.806L48.7359 296.285L36.3857 294.204" stroke="#40916C" stroke-width="0.25" stroke-miterlimit="10"/>
<path d="M49.1543 306.32L62.8351 297.86" stroke="#40916C" stroke-width="0.25" stroke-miterlimit="10"/>
<path d="M25.8229 282.32L19.46 271.896" stroke="#40916C" stroke-width="0.25" stroke-miterlimit="10"/>
<path d="M27.388 270.727L19.46 294.21L34.1656 283.228L32.4764 312.098" stroke="#40916C" stroke-width="0.25" stroke-miterlimit="10"/>
<path d="M37.9194 305.999L36.0146 293.684" stroke="#40916C" stroke-width="0.25" stroke-miterlimit="10"/>
<path d="M53.86 316.774L38.115 306.664L25.8205 303.117L18.9197 294.724L13.7441 307.33" stroke="#40916C" stroke-width="0.25" stroke-miterlimit="10"/>
<path d="M11.2197 300.996L13.7663 308.266L12.9036 313.643L24.2851 310.866L38.1403 320.09L41.8926 315.203L38.1403 305.708" stroke="#40916C" stroke-width="0.25" stroke-miterlimit="10"/>
<path d="M12.7552 313.042L10.2305 300.774L8.02783 309.518" stroke="#40916C" stroke-width="0.25" stroke-miterlimit="10"/>
<path d="M9.06738 309.52L12.7396 307.956" stroke="#40916C" stroke-width="0.25" stroke-miterlimit="10"/>
</svg>
