<svg width="504" height="466" viewBox="0 0 504 466" fill="none" xmlns="http://www.w3.org/2000/svg">
<path d="M30.1006 100.646C31.1155 100.646 31.9382 99.8237 31.9382 98.8088C31.9382 97.7939 31.1155 96.9712 30.1006 96.9712C29.0857 96.9712 28.2629 97.7939 28.2629 98.8088C28.2629 99.8237 29.0857 100.646 30.1006 100.646Z" fill="#222222"/>
<path d="M81.9962 121.514C82.7672 121.514 83.3922 120.89 83.3922 120.119C83.3922 119.348 82.7672 118.723 81.9962 118.723C81.2253 118.723 80.6003 119.348 80.6003 120.119C80.6003 120.89 81.2253 121.514 81.9962 121.514Z" fill="#222222"/>
<path d="M57.6742 85.2918C58.4452 85.2918 59.0701 84.6668 59.0701 83.8959C59.0701 83.125 58.4452 82.5 57.6742 82.5C56.9033 82.5 56.2783 83.125 56.2783 83.8959C56.2783 84.6668 56.9033 85.2918 57.6742 85.2918Z" fill="#222222"/>
<path d="M105.762 100.17C106.533 100.17 107.158 99.5448 107.158 98.7738C107.158 98.0029 106.533 97.3779 105.762 97.3779C104.991 97.3779 104.366 98.0029 104.366 98.7738C104.366 99.5448 104.991 100.17 105.762 100.17Z" fill="#222222"/>
<path d="M120.075 112.194C120.846 112.194 121.471 111.569 121.471 110.798C121.471 110.027 120.846 109.402 120.075 109.402C119.304 109.402 118.679 110.027 118.679 110.798C118.679 111.569 119.304 112.194 120.075 112.194Z" fill="#222222"/>
<path d="M131.427 93.6937C132.198 93.6937 132.823 93.0687 132.823 92.2978C132.823 91.5268 132.198 90.9019 131.427 90.9019C130.656 90.9019 130.031 91.5268 130.031 92.2978C130.031 93.0687 130.656 93.6937 131.427 93.6937Z" fill="#222222"/>
<path d="M171.944 96.2557C172.715 96.2557 173.34 95.6307 173.34 94.8598C173.34 94.0888 172.715 93.4639 171.944 93.4639C171.173 93.4639 170.548 94.0888 170.548 94.8598C170.548 95.6307 171.173 96.2557 171.944 96.2557Z" fill="#222222"/>
<path d="M193.28 121.514C194.051 121.514 194.676 120.89 194.676 120.119C194.676 119.348 194.051 118.723 193.28 118.723C192.509 118.723 191.884 119.348 191.884 120.119C191.884 120.89 192.509 121.514 193.28 121.514Z" fill="#222222"/>
<path d="M150.06 101.795C150.831 101.795 151.456 101.17 151.456 100.399C151.456 99.6284 150.831 99.0034 150.06 99.0034C149.289 99.0034 148.664 99.6284 148.664 100.399C148.664 101.17 149.289 101.795 150.06 101.795Z" fill="#222222"/>
<path d="M185.718 78.0203C186.489 78.0203 187.114 77.3954 187.114 76.6244C187.114 75.8535 186.489 75.2285 185.718 75.2285C184.947 75.2285 184.322 75.8535 184.322 76.6244C184.322 77.3954 184.947 78.0203 185.718 78.0203Z" fill="#222222"/>
<path d="M197.327 99.0916C198.098 99.0916 198.722 98.4667 198.722 97.6957C198.722 96.9248 198.098 96.2998 197.327 96.2998C196.556 96.2998 195.931 96.9248 195.931 97.6957C195.931 98.4667 196.556 99.0916 197.327 99.0916Z" fill="#222222"/>
<path d="M164.991 62.0823C165.762 62.0823 166.387 61.4574 166.387 60.6864C166.387 59.9155 165.762 59.2905 164.991 59.2905C164.22 59.2905 163.595 59.9155 163.595 60.6864C163.595 61.4574 164.22 62.0823 164.991 62.0823Z" fill="#222222"/>
<path d="M180.85 59.1141C181.62 59.1141 182.245 58.4891 182.245 57.7182C182.245 56.9472 181.62 56.3223 180.85 56.3223C180.079 56.3223 179.454 56.9472 179.454 57.7182C179.454 58.4891 180.079 59.1141 180.85 59.1141Z" fill="#222222"/>
<path d="M185.179 35.6131C185.95 35.6131 186.575 34.9881 186.575 34.2172C186.575 33.4463 185.95 32.8213 185.179 32.8213C184.408 32.8213 183.783 33.4463 183.783 34.2172C183.783 34.9881 184.408 35.6131 185.179 35.6131Z" fill="#222222"/>
<path d="M219.21 3.60432C219.981 3.60432 220.606 2.97935 220.606 2.20841C220.606 1.43747 219.981 0.8125 219.21 0.8125C218.439 0.8125 217.814 1.43747 217.814 2.20841C217.814 2.97935 218.439 3.60432 219.21 3.60432Z" fill="#222222"/>
<path d="M246.351 41.8245C247.122 41.8245 247.747 41.1996 247.747 40.4286C247.747 39.6577 247.122 39.0327 246.351 39.0327C245.58 39.0327 244.955 39.6577 244.955 40.4286C244.955 41.1996 245.58 41.8245 246.351 41.8245Z" fill="#222222"/>
<path d="M237.817 15.514C238.588 15.514 239.213 14.889 239.213 14.1181C239.213 13.3471 238.588 12.7222 237.817 12.7222C237.046 12.7222 236.421 13.3471 236.421 14.1181C236.421 14.889 237.046 15.514 237.817 15.514Z" fill="#222222"/>
<path d="M257.262 21.7249C258.033 21.7249 258.658 21.1 258.658 20.329C258.658 19.5581 258.033 18.9331 257.262 18.9331C256.491 18.9331 255.866 19.5581 255.866 20.329C255.866 21.1 256.491 21.7249 257.262 21.7249Z" fill="#222222"/>
<path d="M287.106 33.6165C287.877 33.6165 288.502 32.9916 288.502 32.2206C288.502 31.4497 287.877 30.8247 287.106 30.8247C286.335 30.8247 285.71 31.4497 285.71 32.2206C285.71 32.9916 286.335 33.6165 287.106 33.6165Z" fill="#222222"/>
<path d="M275.356 2.95099C276.127 2.95099 276.752 2.32603 276.752 1.55509C276.752 0.784149 276.127 0.15918 275.356 0.15918C274.585 0.15918 273.96 0.784149 273.96 1.55509C273.96 2.32603 274.585 2.95099 275.356 2.95099Z" fill="#222222"/>
<path d="M285.083 13.8973C285.854 13.8973 286.479 13.2723 286.479 12.5014C286.479 11.7304 285.854 11.1055 285.083 11.1055C284.312 11.1055 283.688 11.7304 283.688 12.5014C283.688 13.2723 284.312 13.8973 285.083 13.8973Z" fill="#222222"/>
<path d="M304.935 7.7923C305.706 7.7923 306.331 7.16733 306.331 6.3964C306.331 5.62546 305.706 5.00049 304.935 5.00049C304.164 5.00049 303.539 5.62546 303.539 6.3964C303.539 7.16733 304.164 7.7923 304.935 7.7923Z" fill="#222222"/>
<path d="M334.797 33.2103C335.568 33.2103 336.193 32.5853 336.193 31.8144C336.193 31.0434 335.568 30.4185 334.797 30.4185C334.026 30.4185 333.401 31.0434 333.401 31.8144C333.401 32.5853 334.026 33.2103 334.797 33.2103Z" fill="#222222"/>
<path d="M312.904 34.2879C313.675 34.2879 314.3 33.6629 314.3 32.892C314.3 32.1211 313.675 31.4961 312.904 31.4961C312.133 31.4961 311.508 32.1211 311.508 32.892C311.508 33.6629 312.133 34.2879 312.904 34.2879Z" fill="#222222"/>
<path d="M299.802 58.7342C300.573 58.7342 301.198 58.1092 301.198 57.3383C301.198 56.5674 300.573 55.9424 299.802 55.9424C299.031 55.9424 298.406 56.5674 298.406 57.3383C298.406 58.1092 299.031 58.7342 299.802 58.7342Z" fill="#222222"/>
<path d="M321.412 64.5389C322.183 64.5389 322.808 63.9139 322.808 63.143C322.808 62.372 322.183 61.7471 321.412 61.7471C320.642 61.7471 320.017 62.372 320.017 63.143C320.017 63.9139 320.642 64.5389 321.412 64.5389Z" fill="#222222"/>
<path d="M271.309 82.2347C272.08 82.2347 272.705 81.6097 272.705 80.8388C272.705 80.0678 272.08 79.4429 271.309 79.4429C270.539 79.4429 269.914 80.0678 269.914 80.8388C269.914 81.6097 270.539 82.2347 271.309 82.2347Z" fill="#222222"/>
<path d="M287.787 98.5706C288.558 98.5706 289.183 97.9456 289.183 97.1747C289.183 96.4038 288.558 95.7788 287.787 95.7788C287.016 95.7788 286.391 96.4038 286.391 97.1747C286.391 97.9456 287.016 98.5706 287.787 98.5706Z" fill="#222222"/>
<path d="M264.957 104.79C265.728 104.79 266.353 104.165 266.353 103.394C266.353 102.624 265.728 101.999 264.957 101.999C264.186 101.999 263.562 102.624 263.562 103.394C263.562 104.165 264.186 104.79 264.957 104.79Z" fill="#222222"/>
<path d="M352.882 96.4149C353.653 96.4149 354.278 95.7899 354.278 95.019C354.278 94.248 353.653 93.623 352.882 93.623C352.111 93.623 351.486 94.248 351.486 95.019C351.486 95.7899 352.111 96.4149 352.882 96.4149Z" fill="#222222"/>
<path d="M386.375 120.993C387.146 120.993 387.771 120.369 387.771 119.598C387.771 118.827 387.146 118.202 386.375 118.202C385.604 118.202 384.979 118.827 384.979 119.598C384.979 120.369 385.604 120.993 386.375 120.993Z" fill="#222222"/>
<path d="M369.766 111.266C370.536 111.266 371.161 110.641 371.161 109.87C371.161 109.099 370.536 108.474 369.766 108.474C368.995 108.474 368.37 109.099 368.37 109.87C368.37 110.641 368.995 111.266 369.766 111.266Z" fill="#222222"/>
<path d="M361.655 82.367C362.426 82.367 363.051 81.742 363.051 80.9711C363.051 80.2002 362.426 79.5752 361.655 79.5752C360.884 79.5752 360.259 80.2002 360.259 80.9711C360.259 81.742 360.884 82.367 361.655 82.367Z" fill="#222222"/>
<path d="M417.438 82.6409C418.209 82.6409 418.834 82.016 418.834 81.245C418.834 80.4741 418.209 79.8491 417.438 79.8491C416.667 79.8491 416.042 80.4741 416.042 81.245C416.042 82.016 416.667 82.6409 417.438 82.6409Z" fill="#222222"/>
<path d="M414.063 105.462C414.834 105.462 415.459 104.837 415.459 104.066C415.459 103.295 414.834 102.67 414.063 102.67C413.292 102.67 412.667 103.295 412.667 104.066C412.667 104.837 413.292 105.462 414.063 105.462Z" fill="#222222"/>
<path d="M394.609 94.5242C395.38 94.5242 396.005 93.8993 396.005 93.1283C396.005 92.3574 395.38 91.7324 394.609 91.7324C393.838 91.7324 393.213 92.3574 393.213 93.1283C393.213 93.8993 393.838 94.5242 394.609 94.5242Z" fill="#222222"/>
<path d="M435.806 123.829C436.577 123.829 437.202 123.204 437.202 122.434C437.202 121.663 436.577 121.038 435.806 121.038C435.035 121.038 434.41 121.663 434.41 122.434C434.41 123.204 435.035 123.829 435.806 123.829Z" fill="#222222"/>
<path d="M409.876 121.665C410.647 121.665 411.272 121.04 411.272 120.269C411.272 119.498 410.647 118.873 409.876 118.873C409.105 118.873 408.48 119.498 408.48 120.269C408.48 121.04 409.105 121.665 409.876 121.665Z" fill="#222222"/>
<path d="M444.446 110.86C445.217 110.86 445.842 110.235 445.842 109.464C445.842 108.693 445.217 108.068 444.446 108.068C443.675 108.068 443.05 108.693 443.05 109.464C443.05 110.235 443.675 110.86 444.446 110.86Z" fill="#222222"/>
<path d="M474.564 102.087C475.335 102.087 475.96 101.462 475.96 100.691C475.96 99.9199 475.335 99.2949 474.564 99.2949C473.793 99.2949 473.168 99.9199 473.168 100.691C473.168 101.462 473.793 102.087 474.564 102.087Z" fill="#222222"/>
<path d="M456.603 141.119C457.374 141.119 457.999 140.494 457.999 139.723C457.999 138.952 457.374 138.327 456.603 138.327C455.833 138.327 455.208 138.952 455.208 139.723C455.208 140.494 455.833 141.119 456.603 141.119Z" fill="#222222"/>
<path d="M472.267 120.048C473.038 120.048 473.663 119.423 473.663 118.652C473.663 117.881 473.038 117.256 472.267 117.256C471.496 117.256 470.871 117.881 470.871 118.652C470.871 119.423 471.496 120.048 472.267 120.048Z" fill="#222222"/>
<path d="M492.393 124.103C493.164 124.103 493.789 123.478 493.789 122.707C493.789 121.936 493.164 121.312 492.393 121.312C491.622 121.312 490.997 121.936 490.997 122.707C490.997 123.478 491.622 124.103 492.393 124.103Z" fill="#222222"/>
<path d="M469.166 145.165C469.937 145.165 470.562 144.54 470.562 143.769C470.562 142.999 469.937 142.374 469.166 142.374C468.395 142.374 467.771 142.999 467.771 143.769C467.771 144.54 468.395 145.165 469.166 145.165Z" fill="#222222"/>
<path d="M490.635 154.76C491.406 154.76 492.031 154.135 492.031 153.364C492.031 152.593 491.406 151.968 490.635 151.968C489.864 151.968 489.239 152.593 489.239 153.364C489.239 154.135 489.864 154.76 490.635 154.76Z" fill="#222222"/>
<path d="M462.814 187.308C463.585 187.308 464.21 186.683 464.21 185.912C464.21 185.141 463.585 184.516 462.814 184.516C462.043 184.516 461.418 185.141 461.418 185.912C461.418 186.683 462.043 187.308 462.814 187.308Z" fill="#222222"/>
<path d="M500.901 196.081C501.672 196.081 502.297 195.456 502.297 194.685C502.297 193.914 501.672 193.289 500.901 193.289C500.13 193.289 499.505 193.914 499.505 194.685C499.505 195.456 500.13 196.081 500.901 196.081Z" fill="#222222"/>
<path d="M468.353 198.378C469.124 198.378 469.749 197.753 469.749 196.982C469.749 196.211 469.124 195.586 468.353 195.586C467.583 195.586 466.958 196.211 466.958 196.982C466.958 197.753 467.583 198.378 468.353 198.378Z" fill="#222222"/>
<path d="M489.557 226.34C490.328 226.34 490.953 225.715 490.953 224.944C490.953 224.173 490.328 223.548 489.557 223.548C488.786 223.548 488.161 224.173 488.161 224.944C488.161 225.715 488.786 226.34 489.557 226.34Z" fill="#222222"/>
<path d="M454.58 210.941C455.351 210.941 455.976 210.316 455.976 209.545C455.976 208.774 455.351 208.149 454.58 208.149C453.809 208.149 453.184 208.774 453.184 209.545C453.184 210.316 453.809 210.941 454.58 210.941Z" fill="#222222"/>
<path d="M444.853 232.277C445.624 232.277 446.249 231.652 446.249 230.881C446.249 230.11 445.624 229.485 444.853 229.485C444.082 229.485 443.457 230.11 443.457 230.881C443.457 231.652 444.082 232.277 444.853 232.277Z" fill="#222222"/>
<path d="M420.133 207.292C420.904 207.292 421.529 206.667 421.529 205.896C421.529 205.125 420.904 204.5 420.133 204.5C419.362 204.5 418.737 205.125 418.737 205.896C418.737 206.667 419.362 207.292 420.133 207.292Z" fill="#222222"/>
<path d="M400.961 210.402C401.732 210.402 402.357 209.777 402.357 209.006C402.357 208.235 401.732 207.61 400.961 207.61C400.19 207.61 399.565 208.235 399.565 209.006C399.565 209.777 400.19 210.402 400.961 210.402Z" fill="#222222"/>
<path d="M500.627 280.895C501.398 280.895 502.023 280.27 502.023 279.499C502.023 278.728 501.398 278.104 500.627 278.104C499.856 278.104 499.231 278.728 499.231 279.499C499.231 280.27 499.856 280.895 500.627 280.895Z" fill="#222222"/>
<path d="M467.876 288.697C468.647 288.697 469.272 288.072 469.272 287.301C469.272 286.53 468.647 285.905 467.876 285.905C467.105 285.905 466.48 286.53 466.48 287.301C466.48 288.072 467.105 288.697 467.876 288.697Z" fill="#222222"/>
<path d="M500.901 214.855C501.672 214.855 502.297 214.23 502.297 213.459C502.297 212.688 501.672 212.063 500.901 212.063C500.13 212.063 499.505 212.688 499.505 213.459C499.505 214.23 500.13 214.855 500.901 214.855Z" fill="#222222"/>
<path d="M400.687 229.847C401.458 229.847 402.083 229.222 402.083 228.452C402.083 227.681 401.458 227.056 400.687 227.056C399.916 227.056 399.292 227.681 399.292 228.452C399.292 229.222 399.916 229.847 400.687 229.847Z" fill="#222222"/>
<path d="M383.265 219.723C384.036 219.723 384.661 219.098 384.661 218.327C384.661 217.556 384.036 216.931 383.265 216.931C382.494 216.931 381.869 217.556 381.869 218.327C381.869 219.098 382.494 219.723 383.265 219.723Z" fill="#222222"/>
<path d="M368.546 229.397C369.317 229.397 369.942 228.772 369.942 228.001C369.942 227.23 369.317 226.605 368.546 226.605C367.775 226.605 367.15 227.23 367.15 228.001C367.15 228.772 367.775 229.397 368.546 229.397Z" fill="#222222"/>
<path d="M334.647 226.067C335.418 226.067 336.043 225.442 336.043 224.671C336.043 223.9 335.418 223.275 334.647 223.275C333.876 223.275 333.251 223.9 333.251 224.671C333.251 225.442 333.876 226.067 334.647 226.067Z" fill="#222222"/>
<path d="M319.247 232.957C320.018 232.957 320.643 232.332 320.643 231.561C320.643 230.791 320.018 230.166 319.247 230.166C318.477 230.166 317.852 230.791 317.852 231.561C317.852 232.332 318.477 232.957 319.247 232.957Z" fill="#222222"/>
<path d="M326.678 206.215C327.449 206.215 328.074 205.59 328.074 204.819C328.074 204.048 327.449 203.423 326.678 203.423C325.907 203.423 325.282 204.048 325.282 204.819C325.282 205.59 325.907 206.215 326.678 206.215Z" fill="#222222"/>
<path d="M293.997 204.863C294.768 204.863 295.393 204.238 295.393 203.467C295.393 202.696 294.768 202.071 293.997 202.071C293.227 202.071 292.602 202.696 292.602 203.467C292.602 204.238 293.227 204.863 293.997 204.863Z" fill="#222222"/>
<path d="M299.263 231.199C300.034 231.199 300.659 230.574 300.659 229.803C300.659 229.032 300.034 228.407 299.263 228.407C298.492 228.407 297.867 229.032 297.867 229.803C297.867 230.574 298.492 231.199 299.263 231.199Z" fill="#222222"/>
<path d="M311.685 217.019C312.456 217.019 313.081 216.394 313.081 215.623C313.081 214.853 312.456 214.228 311.685 214.228C310.914 214.228 310.289 214.853 310.289 215.623C310.289 216.394 310.914 217.019 311.685 217.019Z" fill="#222222"/>
<path d="M274.278 219.449C275.049 219.449 275.674 218.824 275.674 218.053C275.674 217.282 275.049 216.657 274.278 216.657C273.507 216.657 272.882 217.282 272.882 218.053C272.882 218.824 273.507 219.449 274.278 219.449Z" fill="#222222"/>
<path d="M278.192 206.621C278.963 206.621 279.588 205.996 279.588 205.225C279.588 204.454 278.963 203.829 278.192 203.829C277.421 203.829 276.796 204.454 276.796 205.225C276.796 205.996 277.421 206.621 278.192 206.621Z" fill="#222222"/>
<path d="M253.207 226.605C253.978 226.605 254.603 225.98 254.603 225.209C254.603 224.438 253.978 223.813 253.207 223.813C252.436 223.813 251.811 224.438 251.811 225.209C251.811 225.98 252.436 226.605 253.207 226.605Z" fill="#222222"/>
<path d="M257.668 199.279C258.439 199.279 259.064 198.654 259.064 197.883C259.064 197.112 258.439 196.487 257.668 196.487C256.897 196.487 256.272 197.112 256.272 197.883C256.272 198.654 256.897 199.279 257.668 199.279Z" fill="#222222"/>
<path d="M244.973 259.153C245.744 259.153 246.369 258.528 246.369 257.757C246.369 256.986 245.744 256.361 244.973 256.361C244.202 256.361 243.577 256.986 243.577 257.757C243.577 258.528 244.202 259.153 244.973 259.153Z" fill="#222222"/>
<path d="M220.394 224.989C221.165 224.989 221.79 224.364 221.79 223.593C221.79 222.822 221.165 222.197 220.394 222.197C219.624 222.197 218.999 222.822 218.999 223.593C218.999 224.364 219.624 224.989 220.394 224.989Z" fill="#222222"/>
<path d="M189.331 211.887C190.102 211.887 190.727 211.262 190.727 210.491C190.727 209.72 190.102 209.095 189.331 209.095C188.56 209.095 187.935 209.72 187.935 210.491C187.935 211.262 188.56 211.887 189.331 211.887Z" fill="#222222"/>
<path d="M239.973 234.707C240.743 234.707 241.368 234.082 241.368 233.311C241.368 232.54 240.743 231.915 239.973 231.915C239.202 231.915 238.577 232.54 238.577 233.311C238.577 234.082 239.202 234.707 239.973 234.707Z" fill="#222222"/>
<path d="M179.198 227.957C179.969 227.957 180.594 227.332 180.594 226.561C180.594 225.79 179.969 225.165 179.198 225.165C178.427 225.165 177.802 225.79 177.802 226.561C177.802 227.332 178.427 227.957 179.198 227.957Z" fill="#222222"/>
<path d="M238.214 280.489C238.985 280.489 239.61 279.864 239.61 279.093C239.61 278.322 238.985 277.697 238.214 277.697C237.443 277.697 236.818 278.322 236.818 279.093C236.818 279.864 237.443 280.489 238.214 280.489Z" fill="#222222"/>
<path d="M256.856 272.926C257.627 272.926 258.252 272.301 258.252 271.53C258.252 270.759 257.627 270.134 256.856 270.134C256.085 270.134 255.46 270.759 255.46 271.53C255.46 272.301 256.085 272.926 256.856 272.926Z" fill="#222222"/>
<path d="M271.575 268.067C272.346 268.067 272.971 267.442 272.971 266.671C272.971 265.9 272.346 265.275 271.575 265.275C270.804 265.275 270.179 265.9 270.179 266.671C270.179 267.442 270.804 268.067 271.575 268.067Z" fill="#222222"/>
<path d="M259.418 249.434C260.189 249.434 260.814 248.809 260.814 248.038C260.814 247.268 260.189 246.643 259.418 246.643C258.647 246.643 258.022 247.268 258.022 248.038C258.022 248.809 258.647 249.434 259.418 249.434Z" fill="#222222"/>
<path d="M148.947 227.012C149.718 227.012 150.343 226.387 150.343 225.616C150.343 224.845 149.718 224.22 148.947 224.22C148.176 224.22 147.551 224.845 147.551 225.616C147.551 226.387 148.176 227.012 148.947 227.012Z" fill="#222222"/>
<path d="M126.524 238.895C127.295 238.895 127.92 238.27 127.92 237.499C127.92 236.728 127.295 236.103 126.524 236.103C125.753 236.103 125.128 236.728 125.128 237.499C125.128 238.27 125.753 238.895 126.524 238.895Z" fill="#222222"/>
<path d="M97.8991 199.465C98.67 199.465 99.295 198.84 99.295 198.069C99.295 197.298 98.67 196.673 97.8991 196.673C97.1281 196.673 96.5032 197.298 96.5032 198.069C96.5032 198.84 97.1281 199.465 97.8991 199.465Z" fill="#222222"/>
<path d="M117.345 205.676C118.116 205.676 118.741 205.051 118.741 204.28C118.741 203.509 118.116 202.884 117.345 202.884C116.574 202.884 115.949 203.509 115.949 204.28C115.949 205.051 116.574 205.676 117.345 205.676Z" fill="#222222"/>
<path d="M80.8742 202.972C81.6451 202.972 82.2701 202.347 82.2701 201.576C82.2701 200.805 81.6451 200.18 80.8742 200.18C80.1032 200.18 79.4783 200.805 79.4783 201.576C79.4783 202.347 80.1032 202.972 80.8742 202.972Z" fill="#222222"/>
<path d="M71.8275 238.762C72.5985 238.762 73.2235 238.137 73.2235 237.366C73.2235 236.595 72.5985 235.97 71.8275 235.97C71.0566 235.97 70.4316 236.595 70.4316 237.366C70.4316 238.137 71.0566 238.762 71.8275 238.762Z" fill="#222222"/>
<path d="M80.3354 220.527C81.1063 220.527 81.7313 219.902 81.7313 219.131C81.7313 218.36 81.1063 217.735 80.3354 217.735C79.5644 217.735 78.9395 218.36 78.9395 219.131C78.9395 219.902 79.5644 220.527 80.3354 220.527Z" fill="#222222"/>
<path d="M102.078 213.645C102.849 213.645 103.474 213.02 103.474 212.249C103.474 211.478 102.849 210.853 102.078 210.853C101.307 210.853 100.682 211.478 100.682 212.249C100.682 213.02 101.307 213.645 102.078 213.645Z" fill="#222222"/>
<path d="M60.2184 199.597C60.9894 199.597 61.6143 198.972 61.6143 198.201C61.6143 197.43 60.9894 196.805 60.2184 196.805C59.4475 196.805 58.8225 197.43 58.8225 198.201C58.8225 198.972 59.4475 199.597 60.2184 199.597Z" fill="#222222"/>
<path d="M55.8896 219.988C56.6605 219.988 57.2855 219.363 57.2855 218.592C57.2855 217.821 56.6605 217.196 55.8896 217.196C55.1186 217.196 54.4937 217.821 54.4937 218.592C54.4937 219.363 55.1186 219.988 55.8896 219.988Z" fill="#222222"/>
<path d="M26.8578 214.59C27.6288 214.59 28.2537 213.965 28.2537 213.194C28.2537 212.423 27.6288 211.798 26.8578 211.798C26.0869 211.798 25.4619 212.423 25.4619 213.194C25.4619 213.965 26.0869 214.59 26.8578 214.59Z" fill="#222222"/>
<path d="M41.5768 175.018C42.3478 175.018 42.9727 174.393 42.9727 173.622C42.9727 172.852 42.3478 172.227 41.5768 172.227C40.8059 172.227 40.1809 172.852 40.1809 173.622C40.1809 174.393 40.8059 175.018 41.5768 175.018Z" fill="#222222"/>
<path d="M16.0529 200.542C16.8238 200.542 17.4488 199.917 17.4488 199.146C17.4488 198.375 16.8238 197.75 16.0529 197.75C15.282 197.75 14.657 198.375 14.657 199.146C14.657 199.917 15.282 200.542 16.0529 200.542Z" fill="#222222"/>
<path d="M30.2331 185.143C31.004 185.143 31.629 184.518 31.629 183.747C31.629 182.977 31.004 182.352 30.2331 182.352C29.4621 182.352 28.8372 182.977 28.8372 183.747C28.8372 184.518 29.4621 185.143 30.2331 185.143Z" fill="#222222"/>
<path d="M16.318 178.12C17.089 178.12 17.7139 177.495 17.7139 176.724C17.7139 175.953 17.089 175.328 16.318 175.328C15.5471 175.328 14.9221 175.953 14.9221 176.724C14.9221 177.495 15.5471 178.12 16.318 178.12Z" fill="#222222"/>
<path d="M3.08341 150.837C3.85435 150.837 4.47932 150.212 4.47932 149.441C4.47932 148.67 3.85435 148.045 3.08341 148.045C2.31247 148.045 1.6875 148.67 1.6875 149.441C1.6875 150.212 2.31247 150.837 3.08341 150.837Z" fill="#222222"/>
<path d="M46.4359 120.454C47.2069 120.454 47.8319 119.829 47.8319 119.059C47.8319 118.288 47.2069 117.663 46.4359 117.663C45.665 117.663 45.04 118.288 45.04 119.059C45.04 119.829 45.665 120.454 46.4359 120.454Z" fill="#222222"/>
<path d="M27.8034 118.431C28.5743 118.431 29.1993 117.806 29.1993 117.036C29.1993 116.265 28.5743 115.64 27.8034 115.64C27.0324 115.64 26.4075 116.265 26.4075 117.036C26.4075 117.806 27.0324 118.431 27.8034 118.431Z" fill="#222222"/>
<path d="M45.7648 96.5477C46.5357 96.5477 47.1607 95.9227 47.1607 95.1518C47.1607 94.3808 46.5357 93.7559 45.7648 93.7559C44.9939 93.7559 44.3689 94.3808 44.3689 95.1518C44.3689 95.9227 44.9939 96.5477 45.7648 96.5477Z" fill="#222222"/>
<path d="M75.07 108.43C75.8409 108.43 76.4659 107.805 76.4659 107.034C76.4659 106.263 75.8409 105.638 75.07 105.638C74.299 105.638 73.6741 106.263 73.6741 107.034C73.6741 107.805 74.299 108.43 75.07 108.43Z" fill="#222222"/>
<path d="M66.0229 97.6248C66.7938 97.6248 67.4188 96.9999 67.4188 96.2289C67.4188 95.458 66.7938 94.833 66.0229 94.833C65.2519 94.833 64.627 95.458 64.627 96.2289C64.627 96.9999 65.2519 97.6248 66.0229 97.6248Z" fill="#222222"/>
<path d="M94.9215 112.212C95.6925 112.212 96.3174 111.587 96.3174 110.816C96.3174 110.045 95.6925 109.42 94.9215 109.42C94.1506 109.42 93.5256 110.045 93.5256 110.816C93.5256 111.587 94.1506 112.212 94.9215 112.212Z" fill="#222222"/>
<path d="M95.602 93.9857C96.3729 93.9857 96.9979 93.3607 96.9979 92.5898C96.9979 91.8188 96.3729 91.1938 95.602 91.1938C94.831 91.1938 94.2061 91.8188 94.2061 92.5898C94.2061 93.3607 94.831 93.9857 95.602 93.9857Z" fill="#222222"/>
<path d="M105.32 121.267C106.091 121.267 106.716 120.642 106.716 119.871C106.716 119.101 106.091 118.476 105.32 118.476C104.549 118.476 103.924 119.101 103.924 119.871C103.924 120.642 104.549 121.267 105.32 121.267Z" fill="#222222"/>
<path d="M82.2262 82.2347C82.9972 82.2347 83.6221 81.6097 83.6221 80.8388C83.6221 80.0678 82.9972 79.4429 82.2262 79.4429C81.4553 79.4429 80.8303 80.0678 80.8303 80.8388C80.8303 81.6097 81.4553 82.2347 82.2262 82.2347Z" fill="#222222"/>
<path d="M34.5529 139.9C35.3238 139.9 35.9488 139.275 35.9488 138.504C35.9488 137.733 35.3238 137.108 34.5529 137.108C33.782 137.108 33.157 137.733 33.157 138.504C33.157 139.275 33.782 139.9 34.5529 139.9Z" fill="#222222"/>
<path d="M9.8422 161.378C10.6131 161.378 11.2381 160.753 11.2381 159.982C11.2381 159.211 10.6131 158.586 9.8422 158.586C9.07126 158.586 8.44629 159.211 8.44629 159.982C8.44629 160.753 9.07126 161.378 9.8422 161.378Z" fill="#222222"/>
<path d="M12.4042 121.532C13.1751 121.532 13.8001 120.907 13.8001 120.136C13.8001 119.365 13.1751 118.74 12.4042 118.74C11.6333 118.74 11.0083 119.365 11.0083 120.136C11.0083 120.907 11.6333 121.532 12.4042 121.532Z" fill="#222222"/>
<path d="M26.319 155.838C27.0899 155.838 27.7149 155.213 27.7149 154.442C27.7149 153.671 27.0899 153.046 26.319 153.046C25.5481 153.046 24.9231 153.671 24.9231 154.442C24.9231 155.213 25.5481 155.838 26.319 155.838Z" fill="#222222"/>
<path d="M16.1857 140.306C16.9566 140.306 17.5816 139.681 17.5816 138.911C17.5816 138.14 16.9566 137.515 16.1857 137.515C15.4148 137.515 14.7898 138.14 14.7898 138.911C14.7898 139.681 15.4148 140.306 16.1857 140.306Z" fill="#222222"/>
<path d="M62.3742 118.431C63.1451 118.431 63.7701 117.806 63.7701 117.036C63.7701 116.265 63.1451 115.64 62.3742 115.64C61.6032 115.64 60.9783 116.265 60.9783 117.036C60.9783 117.806 61.6032 118.431 62.3742 118.431Z" fill="#222222"/>
<path d="M51.569 135.041C52.3399 135.041 52.9649 134.416 52.9649 133.645C52.9649 132.874 52.3399 132.249 51.569 132.249C50.7981 132.249 50.1731 132.874 50.1731 133.645C50.1731 134.416 50.7981 135.041 51.569 135.041Z" fill="#222222"/>
<path d="M14.9753 233.903C15.7462 233.903 16.3712 233.278 16.3712 232.507C16.3712 231.736 15.7462 231.111 14.9753 231.111C14.2043 231.111 13.5793 231.736 13.5793 232.507C13.5793 233.278 14.2043 233.903 14.9753 233.903Z" fill="#222222"/>
<path d="M2.6857 251.722C3.45664 251.722 4.08161 251.097 4.08161 250.327C4.08161 249.556 3.45664 248.931 2.6857 248.931C1.91476 248.931 1.28979 249.556 1.28979 250.327C1.28979 251.097 1.91476 251.722 2.6857 251.722Z" fill="#222222"/>
<path d="M41.7094 268.747C42.4803 268.747 43.1053 268.122 43.1053 267.351C43.1053 266.581 42.4803 265.956 41.7094 265.956C40.9384 265.956 40.3135 266.581 40.3135 267.351C40.3135 268.122 40.9384 268.747 41.7094 268.747Z" fill="#222222"/>
<path d="M30.7719 245.105C31.5428 245.105 32.1678 244.48 32.1678 243.709C32.1678 242.938 31.5428 242.313 30.7719 242.313C30.0009 242.313 29.376 242.938 29.376 243.709C29.376 244.48 30.0009 245.105 30.7719 245.105Z" fill="#222222"/>
<path d="M15.5141 259.966C16.285 259.966 16.91 259.341 16.91 258.57C16.91 257.799 16.285 257.174 15.5141 257.174C14.7431 257.174 14.1182 257.799 14.1182 258.57C14.1182 259.341 14.7431 259.966 15.5141 259.966Z" fill="#222222"/>
<path d="M2.13785 310.209C2.90879 310.209 3.53376 309.584 3.53376 308.813C3.53376 308.042 2.90879 307.417 2.13785 307.417C1.36691 307.417 0.741943 308.042 0.741943 308.813C0.741943 309.584 1.36691 310.209 2.13785 310.209Z" fill="#222222"/>
<path d="M26.7255 277.388C27.4964 277.388 28.1214 276.763 28.1214 275.992C28.1214 275.221 27.4964 274.596 26.7255 274.596C25.9546 274.596 25.3296 275.221 25.3296 275.992C25.3296 276.763 25.9546 277.388 26.7255 277.388Z" fill="#222222"/>
<path d="M10.3808 291.435C11.1517 291.435 11.7767 290.81 11.7767 290.039C11.7767 289.269 11.1517 288.644 10.3808 288.644C9.60983 288.644 8.98486 289.269 8.98486 290.039C8.98486 290.81 9.60983 291.435 10.3808 291.435Z" fill="#222222"/>
<path d="M34.0141 259.966C34.785 259.966 35.41 259.341 35.41 258.57C35.41 257.799 34.785 257.174 34.0141 257.174C33.2431 257.174 32.6182 257.799 32.6182 258.57C32.6182 259.341 33.2431 259.966 34.0141 259.966Z" fill="#222222"/>
<path d="M41.7094 328.842C42.4803 328.842 43.1053 328.217 43.1053 327.446C43.1053 326.675 42.4803 326.05 41.7094 326.05C40.9384 326.05 40.3135 326.675 40.3135 327.446C40.3135 328.217 40.9384 328.842 41.7094 328.842Z" fill="#222222"/>
<path d="M33.6078 312.1C34.3788 312.1 35.0037 311.475 35.0037 310.704C35.0037 309.934 34.3788 309.309 33.6078 309.309C32.8369 309.309 32.2119 309.934 32.2119 310.704C32.2119 311.475 32.8369 312.1 33.6078 312.1Z" fill="#222222"/>
<path d="M26.8578 298.459C27.6288 298.459 28.2537 297.834 28.2537 297.063C28.2537 296.292 27.6288 295.667 26.8578 295.667C26.0869 295.667 25.4619 296.292 25.4619 297.063C25.4619 297.834 26.0869 298.459 26.8578 298.459Z" fill="#222222"/>
<path d="M26.4513 327.764C27.2223 327.764 27.8472 327.14 27.8472 326.369C27.8472 325.598 27.2223 324.973 26.4513 324.973C25.6804 324.973 25.0554 325.598 25.0554 326.369C25.0554 327.14 25.6804 327.764 26.4513 327.764Z" fill="#222222"/>
<path d="M2.9506 370.304C3.72153 370.304 4.3465 369.679 4.3465 368.908C4.3465 368.137 3.72153 367.512 2.9506 367.512C2.17966 367.512 1.55469 368.137 1.55469 368.908C1.55469 369.679 2.17966 370.304 2.9506 370.304Z" fill="#222222"/>
<path d="M29.8266 343.429C30.5975 343.429 31.2225 342.804 31.2225 342.033C31.2225 341.262 30.5975 340.637 29.8266 340.637C29.0556 340.637 28.4307 341.262 28.4307 342.033C28.4307 342.804 29.0556 343.429 29.8266 343.429Z" fill="#222222"/>
<path d="M17.6696 362.609C18.4405 362.609 19.0655 361.984 19.0655 361.213C19.0655 360.442 18.4405 359.817 17.6696 359.817C16.8987 359.817 16.2737 360.442 16.2737 361.213C16.2737 361.984 16.8987 362.609 17.6696 362.609Z" fill="#222222"/>
<path d="M37.1239 371.789C37.8949 371.789 38.5198 371.164 38.5198 370.393C38.5198 369.622 37.8949 368.997 37.1239 368.997C36.353 368.997 35.728 369.622 35.728 370.393C35.728 371.164 36.353 371.789 37.1239 371.789Z" fill="#222222"/>
<path d="M12.943 383.274C13.714 383.274 14.3389 382.649 14.3389 381.878C14.3389 381.107 13.714 380.482 12.943 380.482C12.1721 380.482 11.5471 381.107 11.5471 381.878C11.5471 382.649 12.1721 383.274 12.943 383.274Z" fill="#222222"/>
<path d="M14.0297 428.111C14.8006 428.111 15.4256 427.486 15.4256 426.715C15.4256 425.944 14.8006 425.319 14.0297 425.319C13.2588 425.319 12.6338 425.944 12.6338 426.715C12.6338 427.486 13.2588 428.111 14.0297 428.111Z" fill="#222222"/>
<path d="M62.2416 422.032C63.0125 422.032 63.6375 421.407 63.6375 420.636C63.6375 419.865 63.0125 419.24 62.2416 419.24C61.4707 419.24 60.8457 419.865 60.8457 420.636C60.8457 421.407 61.4707 422.032 62.2416 422.032Z" fill="#222222"/>
<path d="M44.1479 399.609C44.9188 399.609 45.5438 398.984 45.5438 398.213C45.5438 397.442 44.9188 396.817 44.1479 396.817C43.3769 396.817 42.752 397.442 42.752 398.213C42.752 398.984 43.3769 399.609 44.1479 399.609Z" fill="#222222"/>
<path d="M34.0141 387.055C34.785 387.055 35.41 386.43 35.41 385.659C35.41 384.888 34.785 384.263 34.0141 384.263C33.2431 384.263 32.6182 384.888 32.6182 385.659C32.6182 386.43 33.2431 387.055 34.0141 387.055Z" fill="#222222"/>
<path d="M40.2253 419.196C40.9962 419.196 41.6212 418.571 41.6212 417.8C41.6212 417.029 40.9962 416.404 40.2253 416.404C39.4543 416.404 38.8293 417.029 38.8293 417.8C38.8293 418.571 39.4543 419.196 40.2253 419.196Z" fill="#222222"/>
<path d="M13.8886 401.642C14.6595 401.642 15.2845 401.017 15.2845 400.246C15.2845 399.475 14.6595 398.85 13.8886 398.85C13.1176 398.85 12.4927 399.475 12.4927 400.246C12.4927 401.017 13.1176 401.642 13.8886 401.642Z" fill="#222222"/>
<path d="M21.0534 416.36C21.8243 416.36 22.4493 415.735 22.4493 414.964C22.4493 414.193 21.8243 413.568 21.0534 413.568C20.2824 413.568 19.6575 414.193 19.6575 414.964C19.6575 415.735 20.2824 416.36 21.0534 416.36Z" fill="#222222"/>
<path d="M89.1173 464.573C89.8883 464.573 90.5132 463.948 90.5132 463.177C90.5132 462.406 89.8883 461.781 89.1173 461.781C88.3464 461.781 87.7214 462.406 87.7214 463.177C87.7214 463.948 88.3464 464.573 89.1173 464.573Z" fill="#222222"/>
<path d="M131.799 426.22C132.57 426.22 133.195 425.595 133.195 424.824C133.195 424.053 132.57 423.428 131.799 423.428C131.028 423.428 130.403 424.053 130.403 424.824C130.403 425.595 131.028 426.22 131.799 426.22Z" fill="#222222"/>
<path d="M107.617 453.767C108.388 453.767 109.013 453.142 109.013 452.372C109.013 451.601 108.388 450.976 107.617 450.976C106.846 450.976 106.221 451.601 106.221 452.372C106.221 453.142 106.846 453.767 107.617 453.767Z" fill="#222222"/>
<path d="M71.9687 455.251C72.7396 455.251 73.3646 454.626 73.3646 453.855C73.3646 453.084 72.7396 452.459 71.9687 452.459C71.1977 452.459 70.5728 453.084 70.5728 453.855C70.5728 454.626 71.1977 455.251 71.9687 455.251Z" fill="#222222"/>
<path d="M52.5143 450.26C53.2853 450.26 53.9102 449.635 53.9102 448.864C53.9102 448.093 53.2853 447.468 52.5143 447.468C51.7434 447.468 51.1184 448.093 51.1184 448.864C51.1184 449.635 51.7434 450.26 52.5143 450.26Z" fill="#222222"/>
<path d="M28.6161 435.134C29.3871 435.134 30.012 434.509 30.012 433.738C30.012 432.967 29.3871 432.342 28.6161 432.342C27.8452 432.342 27.2202 432.967 27.2202 433.738C27.2202 434.509 27.8452 435.134 28.6161 435.134Z" fill="#222222"/>
<path d="M75.7502 437.29C76.5211 437.29 77.1461 436.665 77.1461 435.894C77.1461 435.123 76.5211 434.498 75.7502 434.498C74.9792 434.498 74.3542 435.123 74.3542 435.894C74.3542 436.665 74.9792 437.29 75.7502 437.29Z" fill="#222222"/>
<path d="M91.8207 449.579C92.5917 449.579 93.2166 448.954 93.2166 448.184C93.2166 447.413 92.5917 446.788 91.8207 446.788C91.0498 446.788 90.4248 447.413 90.4248 448.184C90.4248 448.954 91.0498 449.579 91.8207 449.579Z" fill="#222222"/>
<path d="M109.914 434.048C110.685 434.048 111.31 433.423 111.31 432.652C111.31 431.881 110.685 431.256 109.914 431.256C109.144 431.256 108.519 431.881 108.519 432.652C108.519 433.423 109.144 434.048 109.914 434.048Z" fill="#222222"/>
<path d="M129.766 443.501C130.537 443.501 131.162 442.876 131.162 442.105C131.162 441.334 130.537 440.709 129.766 440.709C128.995 440.709 128.37 441.334 128.37 442.105C128.37 442.876 128.995 443.501 129.766 443.501Z" fill="#222222"/>
<path d="M153.806 440.4C154.577 440.4 155.202 439.775 155.202 439.004C155.202 438.233 154.577 437.608 153.806 437.608C153.035 437.608 152.41 438.233 152.41 439.004C152.41 439.775 153.035 440.4 153.806 440.4Z" fill="#222222"/>
<path d="M173.26 445.665C174.031 445.665 174.656 445.04 174.656 444.269C174.656 443.498 174.031 442.874 173.26 442.874C172.489 442.874 171.864 443.498 171.864 444.269C171.864 445.04 172.489 445.665 173.26 445.665Z" fill="#222222"/>
<path d="M200.268 425.814C201.039 425.814 201.664 425.189 201.664 424.418C201.664 423.647 201.039 423.022 200.268 423.022C199.498 423.022 198.873 423.647 198.873 424.418C198.873 425.189 199.498 425.814 200.268 425.814Z" fill="#222222"/>
<path d="M61.7025 463.627C62.4735 463.627 63.0985 463.002 63.0985 462.231C63.0985 461.46 62.4735 460.835 61.7025 460.835C60.9316 460.835 60.3066 461.46 60.3066 462.231C60.3066 463.002 60.9316 463.627 61.7025 463.627Z" fill="#222222"/>
<path d="M199.73 444.049C200.501 444.049 201.126 443.424 201.126 442.653C201.126 441.882 200.501 441.257 199.73 441.257C198.959 441.257 198.334 441.882 198.334 442.653C198.334 443.424 198.959 444.049 199.73 444.049Z" fill="#222222"/>
<path d="M218.362 445.533C219.133 445.533 219.758 444.908 219.758 444.137C219.758 443.366 219.133 442.741 218.362 442.741C217.591 442.741 216.966 443.366 216.966 444.137C216.966 444.908 217.591 445.533 218.362 445.533Z" fill="#222222"/>
<path d="M185.682 456.294C186.453 456.294 187.078 455.669 187.078 454.898C187.078 454.127 186.453 453.502 185.682 453.502C184.911 453.502 184.286 454.127 184.286 454.898C184.286 455.669 184.911 456.294 185.682 456.294Z" fill="#222222"/>
<path d="M253.613 428.65C254.384 428.65 255.009 428.025 255.009 427.254C255.009 426.483 254.384 425.858 253.613 425.858C252.842 425.858 252.217 426.483 252.217 427.254C252.217 428.025 252.842 428.65 253.613 428.65Z" fill="#222222"/>
<path d="M236.871 464.979C237.642 464.979 238.267 464.354 238.267 463.583C238.267 462.812 237.642 462.187 236.871 462.187C236.1 462.187 235.475 462.812 235.475 463.583C235.475 464.354 236.1 464.979 236.871 464.979Z" fill="#222222"/>
<path d="M250.371 441.346C251.142 441.346 251.767 440.721 251.767 439.95C251.767 439.179 251.142 438.554 250.371 438.554C249.6 438.554 248.975 439.179 248.975 439.95C248.975 440.721 249.6 441.346 250.371 441.346Z" fill="#222222"/>
<path d="M241.73 452.822C242.501 452.822 243.126 452.197 243.126 451.426C243.126 450.655 242.501 450.03 241.73 450.03C240.959 450.03 240.334 450.655 240.334 451.426C240.334 452.197 240.959 452.822 241.73 452.822Z" fill="#222222"/>
<path d="M256.582 461.329C257.353 461.329 257.978 460.704 257.978 459.934C257.978 459.163 257.353 458.538 256.582 458.538C255.811 458.538 255.186 459.163 255.186 459.934C255.186 460.704 255.811 461.329 256.582 461.329Z" fill="#222222"/>
<path d="M232.003 432.431C232.774 432.431 233.399 431.806 233.399 431.035C233.399 430.264 232.774 429.639 232.003 429.639C231.232 429.639 230.607 430.264 230.607 431.035C230.607 431.806 231.232 432.431 232.003 432.431Z" fill="#222222"/>
<path d="M222.55 458.229C223.321 458.229 223.946 457.604 223.946 456.833C223.946 456.062 223.321 455.437 222.55 455.437C221.779 455.437 221.154 456.062 221.154 456.833C221.154 457.604 221.779 458.229 222.55 458.229Z" fill="#222222"/>
<path d="M185.408 433.915C186.179 433.915 186.804 433.29 186.804 432.519C186.804 431.748 186.179 431.124 185.408 431.124C184.637 431.124 184.012 431.748 184.012 432.519C184.012 433.29 184.637 433.915 185.408 433.915Z" fill="#222222"/>
<path d="M153.002 464.979C153.773 464.979 154.398 464.354 154.398 463.583C154.398 462.812 153.773 462.187 153.002 462.187C152.231 462.187 151.606 462.812 151.606 463.583C151.606 464.354 152.231 464.979 153.002 464.979Z" fill="#222222"/>
<path d="M141.251 454.854C142.022 454.854 142.647 454.229 142.647 453.458C142.647 452.687 142.022 452.062 141.251 452.062C140.48 452.062 139.855 452.687 139.855 453.458C139.855 454.229 140.48 454.854 141.251 454.854Z" fill="#222222"/>
<path d="M55.3503 432.97C56.1212 432.97 56.7462 432.345 56.7462 431.574C56.7462 430.803 56.1212 430.178 55.3503 430.178C54.5793 430.178 53.9543 430.803 53.9543 431.574C53.9543 432.345 54.5793 432.97 55.3503 432.97Z" fill="#222222"/>
<path d="M11.0526 343.022C11.8236 343.022 12.4486 342.397 12.4486 341.626C12.4486 340.855 11.8236 340.23 11.0526 340.23C10.2817 340.23 9.65674 340.855 9.65674 341.626C9.65674 342.397 10.2817 343.022 11.0526 343.022Z" fill="#222222"/>
<path d="M2.27945 355.453C3.05039 355.453 3.67536 354.828 3.67536 354.057C3.67536 353.286 3.05039 352.661 2.27945 352.661C1.50851 352.661 0.883545 353.286 0.883545 354.057C0.883545 354.828 1.50851 355.453 2.27945 355.453Z" fill="#222222"/>
<path d="M17.1308 311.826C17.9017 311.826 18.5267 311.202 18.5267 310.431C18.5267 309.66 17.9017 309.035 17.1308 309.035C16.3598 309.035 15.7349 309.66 15.7349 310.431C15.7349 311.202 16.3598 311.826 17.1308 311.826Z" fill="#222222"/>
<path d="M2.27945 216.339C3.05039 216.339 3.67536 215.714 3.67536 214.943C3.67536 214.172 3.05039 213.547 2.27945 213.547C1.50851 213.547 0.883545 214.172 0.883545 214.943C0.883545 215.714 1.50851 216.339 2.27945 216.339Z" fill="#222222"/>
<path d="M56.7023 239.168C57.4732 239.168 58.0982 238.543 58.0982 237.772C58.0982 237.001 57.4732 236.376 56.7023 236.376C55.9314 236.376 55.3064 237.001 55.3064 237.772C55.3064 238.543 55.9314 239.168 56.7023 239.168Z" fill="#222222"/>
<path d="M112.211 226.473C112.982 226.473 113.607 225.848 113.607 225.077C113.607 224.306 112.982 223.681 112.211 223.681C111.44 223.681 110.815 224.306 110.815 225.077C110.815 225.848 111.44 226.473 112.211 226.473Z" fill="#222222"/>
<path d="M150.705 208.105C151.476 208.105 152.101 207.48 152.101 206.709C152.101 205.938 151.476 205.313 150.705 205.313C149.934 205.313 149.309 205.938 149.309 206.709C149.309 207.48 149.934 208.105 150.705 208.105Z" fill="#222222"/>
<path d="M170.018 199.058C170.789 199.058 171.414 198.433 171.414 197.662C171.414 196.891 170.789 196.266 170.018 196.266C169.247 196.266 168.622 196.891 168.622 197.662C168.622 198.433 169.247 199.058 170.018 199.058Z" fill="#222222"/>
<path d="M233.488 213.503C234.259 213.503 234.884 212.878 234.884 212.107C234.884 211.336 234.259 210.711 233.488 210.711C232.717 210.711 232.092 211.336 232.092 212.107C232.092 212.878 232.717 213.503 233.488 213.503Z" fill="#222222"/>
<path d="M199.862 238.895C200.633 238.895 201.258 238.27 201.258 237.499C201.258 236.728 200.633 236.103 199.862 236.103C199.091 236.103 198.466 236.728 198.466 237.499C198.466 238.27 199.091 238.895 199.862 238.895Z" fill="#222222"/>
<path d="M341.6 198.917C342.37 198.917 342.995 198.292 342.995 197.521C342.995 196.75 342.37 196.125 341.6 196.125C340.829 196.125 340.204 196.75 340.204 197.521C340.204 198.292 340.829 198.917 341.6 198.917Z" fill="#222222"/>
<path d="M349.233 216.339C350.004 216.339 350.629 215.714 350.629 214.943C350.629 214.172 350.004 213.547 349.233 213.547C348.462 213.547 347.837 214.172 347.837 214.943C347.837 215.714 348.462 216.339 349.233 216.339Z" fill="#222222"/>
<path d="M437.016 214.042C437.787 214.042 438.412 213.417 438.412 212.646C438.412 211.875 437.787 211.25 437.016 211.25C436.245 211.25 435.62 211.875 435.62 212.646C435.62 213.417 436.245 214.042 437.016 214.042Z" fill="#222222"/>
<path d="M487.392 204.73C488.163 204.73 488.788 204.105 488.788 203.334C488.788 202.563 488.163 201.938 487.392 201.938C486.622 201.938 485.997 202.563 485.997 203.334C485.997 204.105 486.622 204.73 487.392 204.73Z" fill="#222222"/>
<path d="M473.345 225.527C474.116 225.527 474.741 224.902 474.741 224.131C474.741 223.36 474.116 222.735 473.345 222.735C472.574 222.735 471.949 223.36 471.949 224.131C471.949 224.902 472.574 225.527 473.345 225.527Z" fill="#222222"/>
<path d="M484.292 252.129C485.063 252.129 485.688 251.504 485.688 250.733C485.688 249.962 485.063 249.337 484.292 249.337C483.521 249.337 482.896 249.962 482.896 250.733C482.896 251.504 483.521 252.129 484.292 252.129Z" fill="#222222"/>
<path d="M462.275 239.301C463.046 239.301 463.671 238.676 463.671 237.905C463.671 237.134 463.046 236.509 462.275 236.509C461.504 236.509 460.879 237.134 460.879 237.905C460.879 238.676 461.504 239.301 462.275 239.301Z" fill="#222222"/>
<path d="M474.432 264.692C475.203 264.692 475.828 264.067 475.828 263.296C475.828 262.525 475.203 261.9 474.432 261.9C473.661 261.9 473.036 262.525 473.036 263.296C473.036 264.067 473.661 264.692 474.432 264.692Z" fill="#222222"/>
<path d="M487.932 281.841C488.703 281.841 489.327 281.216 489.327 280.445C489.327 279.674 488.703 279.049 487.932 279.049C487.161 279.049 486.536 279.674 486.536 280.445C486.536 281.216 487.161 281.841 487.932 281.841Z" fill="#222222"/>
<path d="M489.018 183.12C489.789 183.12 490.414 182.495 490.414 181.724C490.414 180.953 489.789 180.328 489.018 180.328C488.248 180.328 487.623 180.953 487.623 181.724C487.623 182.495 488.248 183.12 489.018 183.12Z" fill="#222222"/>
<path d="M434.586 199.058C435.357 199.058 435.982 198.433 435.982 197.662C435.982 196.891 435.357 196.266 434.586 196.266C433.815 196.266 433.19 196.891 433.19 197.662C433.19 198.433 433.815 199.058 434.586 199.058Z" fill="#222222"/>
<path d="M363.413 199.173C364.184 199.173 364.809 198.548 364.809 197.777C364.809 197.006 364.184 196.381 363.413 196.381C362.642 196.381 362.017 197.006 362.017 197.777C362.017 198.548 362.642 199.173 363.413 199.173Z" fill="#222222"/>
<path d="M476.323 165.963C477.094 165.963 477.719 165.338 477.719 164.567C477.719 163.796 477.094 163.171 476.323 163.171C475.552 163.171 474.927 163.796 474.927 164.567C474.927 165.338 475.552 165.963 476.323 165.963Z" fill="#222222"/>
<path d="M326.271 108.024C327.042 108.024 327.667 107.399 327.667 106.628C327.667 105.857 327.042 105.232 326.271 105.232C325.5 105.232 324.875 105.857 324.875 106.628C324.875 107.399 325.5 108.024 326.271 108.024Z" fill="#222222"/>
<path d="M299.669 121.532C300.44 121.532 301.065 120.907 301.065 120.136C301.065 119.365 300.44 118.74 299.669 118.74C298.898 118.74 298.273 119.365 298.273 120.136C298.273 120.907 298.898 121.532 299.669 121.532Z" fill="#222222"/>
<path d="M314.795 88.3133C315.566 88.3133 316.191 87.6883 316.191 86.9174C316.191 86.1464 315.566 85.5215 314.795 85.5215C314.024 85.5215 313.399 86.1464 313.399 86.9174C313.399 87.6883 314.024 88.3133 314.795 88.3133Z" fill="#222222"/>
<path d="M203.237 67.1092C204.008 67.1092 204.633 66.4842 204.633 65.7133C204.633 64.9423 204.008 64.3174 203.237 64.3174C202.466 64.3174 201.841 64.9423 201.841 65.7133C201.841 66.4842 202.466 67.1092 203.237 67.1092Z" fill="#222222"/>
<path d="M339.373 81.9608C340.144 81.9608 340.769 81.3358 340.769 80.5649C340.769 79.7939 340.144 79.1689 339.373 79.1689C338.603 79.1689 337.978 79.7939 337.978 80.5649C337.978 81.3358 338.603 81.9608 339.373 81.9608Z" fill="#222222"/>
<path d="M211.613 25.9124C212.384 25.9124 213.009 25.2875 213.009 24.5165C213.009 23.7456 212.384 23.1206 211.613 23.1206C210.842 23.1206 210.217 23.7456 210.217 24.5165C210.217 25.2875 210.842 25.9124 211.613 25.9124Z" fill="#222222"/>
<path d="M193.413 11.5296C194.183 11.5296 194.808 10.9046 194.808 10.1337C194.808 9.36276 194.183 8.73779 193.413 8.73779C192.642 8.73779 192.017 9.36276 192.017 10.1337C192.017 10.9046 192.642 11.5296 193.413 11.5296Z" fill="#222222"/>
<path d="M236.633 111.116C237.404 111.116 238.029 110.491 238.029 109.72C238.029 108.949 237.404 108.324 236.633 108.324C235.862 108.324 235.237 108.949 235.237 109.72C235.237 110.491 235.862 111.116 236.633 111.116Z" fill="#222222"/>
<path d="M259.047 90.5838C259.818 90.5838 260.443 89.9588 260.443 89.1879C260.443 88.417 259.818 87.792 259.047 87.792C258.276 87.792 257.651 88.417 257.651 89.1879C257.651 89.9588 258.276 90.5838 259.047 90.5838Z" fill="#222222"/>
<path d="M220.695 89.5057C221.466 89.5057 222.091 88.8807 222.091 88.1098C222.091 87.3388 221.466 86.7139 220.695 86.7139C219.924 86.7139 219.299 87.3388 219.299 88.1098C219.299 88.8807 219.924 89.5057 220.695 89.5057Z" fill="#222222"/>
<path d="M164.646 45.6053C165.417 45.6053 166.042 44.9803 166.042 44.2094C166.042 43.4384 165.417 42.8135 164.646 42.8135C163.875 42.8135 163.25 43.4384 163.25 44.2094C163.25 44.9803 163.875 45.6053 164.646 45.6053Z" fill="#222222"/>
<path d="M203.944 52.7703C204.715 52.7703 205.34 52.1454 205.34 51.3744C205.34 50.6035 204.715 49.9785 203.944 49.9785C203.173 49.9785 202.548 50.6035 202.548 51.3744C202.548 52.1454 203.173 52.7703 203.944 52.7703Z" fill="#222222"/>
<path d="M235.149 81.1302C235.92 81.1302 236.545 80.5052 236.545 79.7343C236.545 78.9633 235.92 78.3384 235.149 78.3384C234.378 78.3384 233.753 78.9633 233.753 79.7343C233.753 80.5052 234.378 81.1302 235.149 81.1302Z" fill="#222222"/>
<path d="M224.344 121.514C225.115 121.514 225.74 120.89 225.74 120.119C225.74 119.348 225.115 118.723 224.344 118.723C223.573 118.723 222.948 119.348 222.948 120.119C222.948 120.89 223.573 121.514 224.344 121.514Z" fill="#222222"/>
<path d="M175.991 112.061C176.762 112.061 177.387 111.436 177.387 110.665C177.387 109.895 176.762 109.27 175.991 109.27C175.22 109.27 174.595 109.895 174.595 110.665C174.595 111.436 175.22 112.061 175.991 112.061Z" fill="#222222"/>
<path d="M163.162 121.647C163.933 121.647 164.558 121.022 164.558 120.251C164.558 119.48 163.933 118.855 163.162 118.855C162.391 118.855 161.766 119.48 161.766 120.251C161.766 121.022 162.391 121.647 163.162 121.647Z" fill="#222222"/>
<path d="M132.505 81.6693C133.276 81.6693 133.901 81.0443 133.901 80.2734C133.901 79.5024 133.276 78.8774 132.505 78.8774C131.734 78.8774 131.109 79.5024 131.109 80.2734C131.109 81.0443 131.734 81.6693 132.505 81.6693Z" fill="#222222"/>
<path d="M100.09 82.2793C101.105 82.2793 101.928 81.4566 101.928 80.4417C101.928 79.4267 101.105 78.604 100.09 78.604C99.0752 78.604 98.2524 79.4267 98.2524 80.4417C98.2524 81.4566 99.0752 82.2793 100.09 82.2793Z" fill="#222222"/>
<path d="M163.295 82.4824C164.31 82.4824 165.132 81.6597 165.132 80.6448C165.132 79.6299 164.31 78.8071 163.295 78.8071C162.28 78.8071 161.457 79.6299 161.457 80.6448C161.457 81.6597 162.28 82.4824 163.295 82.4824Z" fill="#222222"/>
<path d="M176.132 26.4336C177.147 26.4336 177.969 25.6109 177.969 24.596C177.969 23.581 177.147 22.7583 176.132 22.7583C175.117 22.7583 174.294 23.581 174.294 24.596C174.294 25.6109 175.117 26.4336 176.132 26.4336Z" fill="#222222"/>
<path d="M319.892 16.2388C320.907 16.2388 321.73 15.416 321.73 14.4011C321.73 13.3862 320.907 12.5635 319.892 12.5635C318.877 12.5635 318.055 13.3862 318.055 14.4011C318.055 15.416 318.877 16.2388 319.892 16.2388Z" fill="#222222"/>
<path d="M338.931 51.8867C339.946 51.8867 340.769 51.064 340.769 50.0491C340.769 49.0342 339.946 48.2114 338.931 48.2114C337.917 48.2114 337.094 49.0342 337.094 50.0491C337.094 51.064 337.917 51.8867 338.931 51.8867Z" fill="#222222"/>
<path d="M384.316 82.6856C385.331 82.6856 386.154 81.8628 386.154 80.8479C386.154 79.833 385.331 79.0103 384.316 79.0103C383.301 79.0103 382.479 79.833 382.479 80.8479C382.479 81.8628 383.301 82.6856 384.316 82.6856Z" fill="#222222"/>
<path d="M450.56 87.9512C451.575 87.9512 452.397 87.1284 452.397 86.1135C452.397 85.0986 451.575 84.2759 450.56 84.2759C449.545 84.2759 448.722 85.0986 448.722 86.1135C448.722 87.1284 449.545 87.9512 450.56 87.9512Z" fill="#222222"/>
<path d="M501.405 166.148C502.42 166.148 503.243 165.326 503.243 164.311C503.243 163.296 502.42 162.473 501.405 162.473C500.39 162.473 499.567 163.296 499.567 164.311C499.567 165.326 500.39 166.148 501.405 166.148Z" fill="#222222"/>
<path d="M500.795 258.322C501.81 258.322 502.633 257.5 502.633 256.485C502.633 255.47 501.81 254.647 500.795 254.647C499.78 254.647 498.958 255.47 498.958 256.485C498.958 257.5 499.78 258.322 500.795 258.322Z" fill="#222222"/>
<path d="M462.514 269.057C463.529 269.057 464.352 268.234 464.352 267.219C464.352 266.204 463.529 265.381 462.514 265.381C461.499 265.381 460.676 266.204 460.676 267.219C460.676 268.234 461.499 269.057 462.514 269.057Z" fill="#222222"/>
<path d="M418.755 239.478C419.77 239.478 420.592 238.655 420.592 237.64C420.592 236.625 419.77 235.802 418.755 235.802C417.74 235.802 416.917 236.625 416.917 237.64C416.917 238.655 417.74 239.478 418.755 239.478Z" fill="#222222"/>
<path d="M353.721 239.884C354.736 239.884 355.559 239.061 355.559 238.046C355.559 237.031 354.736 236.208 353.721 236.208C352.707 236.208 351.884 237.031 351.884 238.046C351.884 239.061 352.707 239.884 353.721 239.884Z" fill="#222222"/>
<path d="M272.282 239.884C273.296 239.884 274.119 239.061 274.119 238.046C274.119 237.031 273.296 236.208 272.282 236.208C271.267 236.208 270.444 237.031 270.444 238.046C270.444 239.061 271.267 239.884 272.282 239.884Z" fill="#222222"/>
<path d="M164.717 239.681C165.732 239.681 166.555 238.858 166.555 237.843C166.555 236.828 165.732 236.005 164.717 236.005C163.702 236.005 162.879 236.828 162.879 237.843C162.879 238.858 163.702 239.681 164.717 239.681Z" fill="#222222"/>
<path d="M99.887 239.884C100.902 239.884 101.725 239.061 101.725 238.046C101.725 237.031 100.902 236.208 99.887 236.208C98.8721 236.208 98.0493 237.031 98.0493 238.046C98.0493 239.061 98.8721 239.884 99.887 239.884Z" fill="#222222"/>
<path d="M41.7446 239.681C42.7595 239.681 43.5823 238.858 43.5823 237.843C43.5823 236.828 42.7595 236.005 41.7446 236.005C40.7297 236.005 39.907 236.828 39.907 237.843C39.907 238.858 40.7297 239.681 41.7446 239.681Z" fill="#222222"/>
<path d="M41.135 299.855C42.1499 299.855 42.9727 299.033 42.9727 298.018C42.9727 297.003 42.1499 296.18 41.135 296.18C40.1201 296.18 39.2974 297.003 39.2974 298.018C39.2974 299.033 40.1201 299.855 41.135 299.855Z" fill="#222222"/>
<path d="M41.5415 356.372C42.5564 356.372 43.3792 355.549 43.3792 354.534C43.3792 353.519 42.5564 352.696 41.5415 352.696C40.5266 352.696 39.7039 353.519 39.7039 354.534C39.7039 355.549 40.5266 356.372 41.5415 356.372Z" fill="#222222"/>
<path d="M93.6055 425.858C94.6204 425.858 95.4431 425.035 95.4431 424.02C95.4431 423.005 94.6204 422.183 93.6055 422.183C92.5906 422.183 91.7678 423.005 91.7678 424.02C91.7678 425.035 92.5906 425.858 93.6055 425.858Z" fill="#222222"/>
<path d="M161.068 426.061C162.083 426.061 162.906 425.238 162.906 424.223C162.906 423.209 162.083 422.386 161.068 422.386C160.053 422.386 159.23 423.209 159.23 424.223C159.23 425.238 160.053 426.061 161.068 426.061Z" fill="#222222"/>
<path d="M219.008 425.858C220.022 425.858 220.845 425.035 220.845 424.02C220.845 423.005 220.022 422.183 219.008 422.183C217.993 422.183 217.17 423.005 217.17 424.02C217.17 425.035 217.993 425.858 219.008 425.858Z" fill="#222222"/>
<path d="M263.774 447.53C264.789 447.53 265.611 446.707 265.611 445.692C265.611 444.677 264.789 443.854 263.774 443.854C262.759 443.854 261.936 444.677 261.936 445.692C261.936 446.707 262.759 447.53 263.774 447.53Z" fill="#222222"/>
<path d="M196.929 465.155C197.944 465.155 198.767 464.332 198.767 463.318C198.767 462.303 197.944 461.48 196.929 461.48C195.914 461.48 195.091 462.303 195.091 463.318C195.091 464.332 195.914 465.155 196.929 465.155Z" fill="#222222"/>
<path d="M118.935 465.968C119.95 465.968 120.772 465.145 120.772 464.13C120.772 463.115 119.95 462.292 118.935 462.292C117.92 462.292 117.097 463.115 117.097 464.13C117.097 465.145 117.92 465.968 118.935 465.968Z" fill="#222222"/>
<path d="M31.4168 447.936C32.4317 447.936 33.2544 447.113 33.2544 446.098C33.2544 445.083 32.4317 444.261 31.4168 444.261C30.4018 444.261 29.5791 445.083 29.5791 446.098C29.5791 447.113 30.4018 447.936 31.4168 447.936Z" fill="#222222"/>
<path d="M2.04078 329.222C3.05568 329.222 3.87843 328.399 3.87843 327.385C3.87843 326.37 3.05568 325.547 2.04078 325.547C1.02587 325.547 0.203125 326.37 0.203125 327.385C0.203125 328.399 1.02587 329.222 2.04078 329.222Z" fill="#222222"/>
<path d="M2.04078 398.912C3.05568 398.912 3.87843 398.089 3.87843 397.074C3.87843 396.059 3.05568 395.236 2.04078 395.236C1.02587 395.236 0.203125 396.059 0.203125 397.074C0.203125 398.089 1.02587 398.912 2.04078 398.912Z" fill="#222222"/>
<path d="M1.83765 269.666C2.85256 269.666 3.6753 268.843 3.6753 267.828C3.6753 266.813 2.85256 265.991 1.83765 265.991C0.822744 265.991 0 266.813 0 267.828C0 268.843 0.822744 269.666 1.83765 269.666Z" fill="#222222"/>
<path d="M41.9478 156.218C42.9627 156.218 43.7854 155.396 43.7854 154.381C43.7854 153.366 42.9627 152.543 41.9478 152.543C40.9328 152.543 40.1101 153.366 40.1101 154.381C40.1101 155.396 40.9328 156.218 41.9478 156.218Z" fill="#222222"/>
<path d="M41.5415 199.977C42.5564 199.977 43.3792 199.154 43.3792 198.139C43.3792 197.125 42.5564 196.302 41.5415 196.302C40.5266 196.302 39.7039 197.125 39.7039 198.139C39.7039 199.154 40.5266 199.977 41.5415 199.977Z" fill="#222222"/>
<path d="M135.138 122.186C136.153 122.186 136.976 121.363 136.976 120.348C136.976 119.333 136.153 118.511 135.138 118.511C134.123 118.511 133.3 119.333 133.3 120.348C133.3 121.363 134.123 122.186 135.138 122.186Z" fill="#222222"/>
<path d="M216.471 199.359C217.486 199.359 218.309 198.536 218.309 197.521C218.309 196.506 217.486 195.684 216.471 195.684C215.457 195.684 214.634 196.506 214.634 197.521C214.634 198.536 215.457 199.359 216.471 199.359Z" fill="#222222"/>
<path d="M248.18 122.186C249.195 122.186 250.018 121.363 250.018 120.348C250.018 119.333 249.195 118.511 248.18 118.511C247.165 118.511 246.342 119.333 246.342 120.348C246.342 121.363 247.165 122.186 248.18 122.186Z" fill="#222222"/>
<path d="M311.314 199.306C312.329 199.306 313.151 198.483 313.151 197.468C313.151 196.453 312.329 195.63 311.314 195.63C310.299 195.63 309.476 196.453 309.476 197.468C309.476 198.483 310.299 199.306 311.314 199.306Z" fill="#222222"/>
<path d="M389.325 199.526C390.34 199.526 391.163 198.704 391.163 197.689C391.163 196.674 390.34 195.851 389.325 195.851C388.311 195.851 387.488 196.674 387.488 197.689C387.488 198.704 388.311 199.526 389.325 199.526Z" fill="#222222"/>
<path d="M462.107 166.758C463.122 166.758 463.945 165.935 463.945 164.92C463.945 163.905 463.122 163.083 462.107 163.083C461.092 163.083 460.27 163.905 460.27 164.92C460.27 165.935 461.092 166.758 462.107 166.758Z" fill="#222222"/>
<path d="M352.714 121.983C353.729 121.983 354.552 121.16 354.552 120.145C354.552 119.13 353.729 118.308 352.714 118.308C351.699 118.308 350.876 119.13 350.876 120.145C350.876 121.16 351.699 121.983 352.714 121.983Z" fill="#222222"/>
<path d="M130.677 200.383C131.691 200.383 132.514 199.561 132.514 198.546C132.514 197.531 131.691 196.708 130.677 196.708C129.662 196.708 128.839 197.531 128.839 198.546C128.839 199.561 129.662 200.383 130.677 200.383Z" fill="#222222"/>
<path d="M2.04078 193.695C3.05568 193.695 3.87843 192.873 3.87843 191.858C3.87843 190.843 3.05568 190.02 2.04078 190.02C1.02587 190.02 0.203125 190.843 0.203125 191.858C0.203125 192.873 1.02587 193.695 2.04078 193.695Z" fill="#222222"/>
<path d="M253.746 288.211C254.761 288.211 255.584 287.388 255.584 286.373C255.584 285.358 254.761 284.536 253.746 284.536C252.731 284.536 251.908 285.358 251.908 286.373C251.908 287.388 252.731 288.211 253.746 288.211Z" fill="#222222"/>
<path d="M233.629 256.494C234.644 256.494 235.466 255.671 235.466 254.656C235.466 253.641 234.644 252.818 233.629 252.818C232.614 252.818 231.791 253.641 231.791 254.656C231.791 255.671 232.614 256.494 233.629 256.494Z" fill="#222222"/>
<path d="M483.178 298.433C484.193 298.433 485.016 297.61 485.016 296.595C485.016 295.58 484.193 294.757 483.178 294.757C482.164 294.757 481.341 295.58 481.341 296.595C481.341 297.61 482.164 298.433 483.178 298.433Z" fill="#222222"/>
<path d="M271.478 42.9727C272.493 42.9727 273.315 42.1499 273.315 41.135C273.315 40.1201 272.493 39.2974 271.478 39.2974C270.463 39.2974 269.64 40.1201 269.64 41.135C269.64 42.1499 270.463 42.9727 271.478 42.9727Z" fill="#222222"/>
<path d="M247.774 3.6753C248.789 3.6753 249.611 2.85256 249.611 1.83765C249.611 0.822744 248.789 0 247.774 0C246.759 0 245.936 0.822744 245.936 1.83765C245.936 2.85256 246.759 3.6753 247.774 3.6753Z" fill="#222222"/>
<path d="M204.014 82.0762C205.029 82.0762 205.852 81.2534 205.852 80.2385C205.852 79.2236 205.029 78.4009 204.014 78.4009C203 78.4009 202.177 79.2236 202.177 80.2385C202.177 81.2534 203 82.0762 204.014 82.0762Z" fill="#222222"/>
<path d="M300.651 81.8726C301.666 81.8726 302.488 81.0498 302.488 80.0349C302.488 79.02 301.666 78.1973 300.651 78.1973C299.636 78.1973 298.813 79.02 298.813 80.0349C298.813 81.0498 299.636 81.8726 300.651 81.8726Z" fill="#222222"/>
<path d="M226.702 42.9727C227.717 42.9727 228.54 42.1499 228.54 41.135C228.54 40.1201 227.717 39.2974 226.702 39.2974C225.687 39.2974 224.865 40.1201 224.865 41.135C224.865 42.1499 225.687 42.9727 226.702 42.9727Z" fill="#222222"/>
<path d="M79.9908 424.55H242.128C245.823 424.514 249.472 425.376 252.76 427.061C256.049 428.746 258.879 431.204 261.008 434.224C264.03 438.642 265.576 444.411 261.998 451.311C260.073 454.918 257.201 457.932 253.69 460.028C250.18 462.123 246.164 463.221 242.075 463.203L84.8146 463.689C68.9575 463.828 53.3683 459.597 39.7568 451.461C20.0551 439.516 -0.318096 416.254 2.41188 371.338L2.68576 153.117C2.68576 153.117 6.18436 78.8068 91.8206 80.3971L165.15 80.6091L164.691 47.4165C164.67 46.0997 164.87 44.7887 165.282 43.538C165.282 43.4497 165.335 43.3613 165.371 43.273C169.285 31.653 176.694 21.5266 186.585 14.28C196.476 7.0334 208.365 3.02087 220.624 2.79166L280.816 1.57245C295.936 1.15891 310.684 6.30109 322.269 16.0263C331.236 23.6684 338.923 34.6943 338.932 50.0493L339.373 80.5649L424.188 81.6163C443.412 81.734 461.938 88.8366 476.314 101.601C484.86 109.269 491.546 118.783 495.865 129.422C499.742 139.051 501.666 149.355 501.528 159.734L500.645 274.587C500.662 279.809 499.204 284.929 496.439 289.359C492.906 294.952 486.721 299.961 476.738 294.916C472.476 292.703 468.903 289.361 466.41 285.256C463.918 281.15 462.6 276.439 462.602 271.636L462.302 237.878L272.352 238.02L272.122 264.719C272.136 268.708 271.077 272.627 269.057 276.067C267.036 279.507 264.128 282.34 260.637 284.27C258.139 285.72 255.289 286.451 252.401 286.383C249.514 286.314 246.701 285.449 244.275 283.882C241.181 281.958 238.626 279.281 236.849 276.101C235.072 272.921 234.131 269.342 234.115 265.699L233.7 237.066L41.8153 237.817L41.6563 381.065C41.6163 387.567 42.8157 394.016 45.1903 400.069C48.5917 408.568 55.2002 418.41 68.0372 422.686C71.8971 423.94 75.9324 424.569 79.9908 424.55V424.55Z" stroke="#222222" stroke-width="0.25" stroke-miterlimit="10"/>
<path d="M41.5239 198.139L41.9303 156.218C41.9303 156.218 45.9944 121.577 80.5828 120.119L419.188 119.474C426.609 119.41 433.933 121.16 440.524 124.572C450.755 129.926 461.94 140.872 462.107 163.118L462.814 197.291L41.5239 198.139Z" stroke="#222222" stroke-width="0.25" stroke-miterlimit="10"/>
<path d="M204.015 78.4006L203.917 55.4299C203.917 55.4299 204.289 39.8187 217.868 40.6404C219.449 40.7376 221.031 40.8436 222.621 40.8436H277.052C279.12 40.8436 281.187 40.7376 283.237 40.6051C288.034 40.287 300.023 41.25 299.785 58.7165L300.668 80.0174L204.032 80.2206L204.015 78.4006Z" stroke="#222222" stroke-width="0.25" stroke-miterlimit="10"/>
<path d="M237.136 463.715L241.73 451.426L218.362 444.137L250.371 439.95L241.73 451.426" stroke="#222222" stroke-width="0.25" stroke-miterlimit="10"/>
<path d="M223.636 462.911L222.55 456.833L199.862 443.192L185.814 454.262L196.929 463.317L218.362 444.137L199.862 443.192L218.768 423.198L231.464 431.035L241.73 451.426L222.55 456.833L218.362 444.137L232.542 431.309L250.371 439.949L264.418 445.886L241.73 451.426L256.582 459.934L250.371 439.949L253.613 427.253L231.464 431.035" stroke="#222222" stroke-width="0.25" stroke-miterlimit="10"/>
<path d="M218.362 444.137L199.862 423.746L186.088 431.848L199.729 442.653L213.097 463.176L222.55 456.833" stroke="#222222" stroke-width="0.25" stroke-miterlimit="10"/>
<path d="M172.58 444.809L186.089 431.848L185.815 454.262L153.126 463.176L141.243 453.458L153.798 439.004L173.649 444.305L161.06 424.259L153.798 439.04L153.126 463.212L173.649 444.305L176.627 424.321L186.08 432.961L170.955 463.486L185.806 454.297C185.806 454.297 172.174 445.215 172.58 444.809Z" stroke="#222222" stroke-width="0.25" stroke-miterlimit="10"/>
<path d="M197.433 462.637L199.73 442.653L200.675 423.746" stroke="#222222" stroke-width="0.25" stroke-miterlimit="10"/>
<path d="M129.766 442.105L131.25 424.824L153.806 439.004L129.766 442.105Z" stroke="#222222" stroke-width="0.25" stroke-miterlimit="10"/>
<path d="M118.555 463.176L142.648 453.449L129.766 442.105L107.617 452.371L109.915 432.652L132.063 424.824L141.791 453.997L173.658 444.27L199.73 442.653" stroke="#222222" stroke-width="0.25" stroke-miterlimit="10"/>
<path d="M176.635 424.286L153.806 439.005L147.188 424.286" stroke="#222222" stroke-width="0.25" stroke-miterlimit="10"/>
<path d="M119.642 464.254L107.617 452.371L91.8207 448.183L109.914 432.652L129.766 442.105L137.47 463.715L141.252 453.449L107.617 452.371L93.6053 424.02L75.7501 435.894L71.9688 453.855L90.5131 463.176L91.8207 448.183L75.7501 435.894L109.914 432.652L108.837 424.285" stroke="#222222" stroke-width="0.25" stroke-miterlimit="10"/>
<path d="M107.617 452.371L89.6562 462.911L75.7501 435.894L55.3504 431.574L62.3741 420.769L71.9688 453.855L52.5144 448.863L75.7501 435.894L72.9141 423.746" stroke="#222222" stroke-width="0.25" stroke-miterlimit="10"/>
<path d="M91.8205 448.183L71.9685 453.855L61.5699 461.559L52.5142 448.864L31.8494 445.886L55.3502 431.574L52.5142 448.864L40.2249 417.8L28.8809 434.277L55.3502 431.574L44.1476 399.609L21.0444 414.964L40.2249 417.8L14.0295 426.715L28.8809 434.277L31.8494 445.886" stroke="#222222" stroke-width="0.25" stroke-miterlimit="10"/>
<path d="M62.3743 420.769L40.2253 417.8L44.5455 398.62L13.8886 400.246L34.0144 385.659L12.9432 381.878L2.04102 397.074L21.0448 414.964L14.0299 426.715" stroke="#222222" stroke-width="0.25" stroke-miterlimit="10"/>
<path d="M7.81018 414.559L13.8886 400.246L21.0448 414.965L34.0144 385.66L41.5858 381.092L38.5201 370.393L12.9432 381.878L13.8886 400.246L2.04102 397.074" stroke="#222222" stroke-width="0.25" stroke-miterlimit="10"/>
<path d="M43.7414 397.569L34.0231 385.686L17.6698 361.213L29.8265 340.637L0.883545 354.057H41.8508C41.038 354.057 12.9431 381.878 12.9431 381.878L2.41198 369.182L17.6698 361.231L37.1065 370.41L41.8331 354.075" stroke="#222222" stroke-width="0.25" stroke-miterlimit="10"/>
<path d="M12.9431 381.878L17.6697 361.213L1.59912 353.509" stroke="#222222" stroke-width="0.25" stroke-miterlimit="10"/>
<path d="M41.8509 354.057L29.8266 340.637L25.9128 325.962L11.0526 341.627L2.04102 327.385L25.9128 325.962L43.1054 327.447L29.9592 341.9L11.0526 341.627L2.68596 354.057" stroke="#222222" stroke-width="0.25" stroke-miterlimit="10"/>
<path d="M33.2011 310.837L41.1348 298.017L26.8576 297.063L17.8108 311.102L2.13771 308.814L10.3806 290.04L17.8108 311.102H34.2878L27.8472 326.368L17.8108 311.102L1.33374 326.501L34.2878 311.102L41.8504 327.314" stroke="#222222" stroke-width="0.25" stroke-miterlimit="10"/>
<path d="M26.7253 275.992L10.3809 290.04L26.8579 297.063L42.1157 267.352L34.0141 258.57C34.0141 258.57 26.9904 275.718 26.7253 275.992Z" stroke="#222222" stroke-width="0.25" stroke-miterlimit="10"/>
<path d="M15.514 257.174L26.7255 275.992L26.858 295.667L1.59912 267.078C1.59912 267.078 15.9028 256.741 15.514 257.174Z" stroke="#222222" stroke-width="0.25" stroke-miterlimit="10"/>
<path d="M15.9206 258.702L14.9752 232.507L16.7245 198.466L2.27954 214.943L26.7256 212.514L42.6548 237.366L30.772 243.71L34.0144 258.57L15.9206 258.702ZM15.9206 258.702L2.95099 250.601L14.9752 232.507L30.772 243.71L14.8339 258.437L9.70082 290.04L2.41206 281.125L26.7256 275.992" stroke="#222222" stroke-width="0.25" stroke-miterlimit="10"/>
<path d="M41.135 298.017L26.7253 275.992L41.7093 267.352" stroke="#222222" stroke-width="0.25" stroke-miterlimit="10"/>
<path d="M34.0144 258.57L41.8509 238.179L14.9752 232.507L26.7256 212.514L41.8509 197.123L55.8983 218.592L41.8509 238.179V198.201L16.7245 198.466L30.233 183.747L16.1856 176.052L2.41206 191.178L16.7245 198.466L26.7256 212.514L55.8983 218.592L14.9752 232.507L2.27954 214.943" stroke="#222222" stroke-width="0.25" stroke-miterlimit="10"/>
<path d="M14.975 232.507H2.13794" stroke="#222222" stroke-width="0.25" stroke-miterlimit="10"/>
<path d="M41.5415 196.302L30.2329 183.748L2.68579 191.99" stroke="#222222" stroke-width="0.25" stroke-miterlimit="10"/>
<path d="M16.1855 199.553V176.052L26.319 154.442L41.5768 173.888L30.2329 183.747L34.5531 138.504L15.9204 138.239L9.84203 159.982L16.1855 176.052L2.68579 172.81L26.319 154.442L34.5531 138.504L41.9479 154.38L26.319 154.442L2.95084 148.77L15.9204 138.239L12.678 119.871L27.8033 117.035L30.5068 98.8003L46.436 119.059L34.5531 138.504L27.8033 117.035L51.5691 133.645L46.436 119.059L15.9204 138.239L27.8033 117.035L21.8574 107.441" stroke="#222222" stroke-width="0.25" stroke-miterlimit="10"/>
<path d="M34.553 138.504L51.5689 133.645" stroke="#222222" stroke-width="0.25" stroke-miterlimit="10"/>
<path d="M95.6022 92.5891L76.4659 107.034L66.0231 96.229L62.3743 117.035L46.4715 119.058L45.8001 93.7553L27.8035 117.035L66.0231 96.229L57.6741 82.4997L45.9414 95.5576L62.3743 117.035L81.811 120.136L75.0965 107.034L82.3676 80.397L66.0231 96.1937C66.0231 96.1937 95.6022 93.128 95.6022 92.5891Z" stroke="#222222" stroke-width="0.25" stroke-miterlimit="10"/>
<path d="M61.2961 126.082L62.374 117.035L75.0697 107.034L94.2502 110.957L107.158 98.7737L94.206 92.5892L100.196 79.8936" stroke="#222222" stroke-width="0.25" stroke-miterlimit="10"/>
<path d="M82.3673 80.4326L95.602 92.5894L95.063 110.683L81.8196 120.136" stroke="#222222" stroke-width="0.25" stroke-miterlimit="10"/>
<path d="M132.876 80.9712L132.064 91.7762L120.72 110.957L104.366 98.7734L132.064 91.7762L100.196 80.6973L106.407 98.526L105.321 119.871L95.0632 110.683L120.72 110.957L135.845 119.871L150.06 100.399L130.986 92.0501L135.845 119.871" stroke="#222222" stroke-width="0.25" stroke-miterlimit="10"/>
<path d="M119.907 110.144V80.1587L106.407 98.5264" stroke="#222222" stroke-width="0.25" stroke-miterlimit="10"/>
<path d="M193.651 120.41L175.982 110.692L171.935 94.8865L186.071 77.2168C186.071 77.2168 161.51 79.8938 162.314 80.3973C163.118 80.9009 171.944 94.8247 171.944 94.8247L149.857 119.288L150.025 100.364L171.909 94.8247L162.853 120.154L150.06 100.417L147.728 80.1765L130.942 92.0682L165.088 80.6624L150.016 100.417L120.676 111.019L117.142 119.659" stroke="#222222" stroke-width="0.25" stroke-miterlimit="10"/>
<path d="M26.319 153.046L15.9204 139.317" stroke="#222222" stroke-width="0.25" stroke-miterlimit="10"/>
<path d="M162.862 120.137L175.99 110.657L197.698 98.2616L204.182 79.355L186.089 77.1904L193.28 120.119L236.598 109.067L220.695 88.1103L197.698 98.2616L171.944 94.8601L204.182 79.355L224.98 120.411L197.698 98.2616" stroke="#222222" stroke-width="0.25" stroke-miterlimit="10"/>
<path d="M197.972 97.1742L193.28 120.118L220.695 88.1097L202.177 80.2378" stroke="#222222" stroke-width="0.25" stroke-miterlimit="10"/>
<path d="M248.754 120.41L236.633 109.72L260.443 89.1877L235.149 79.7344L220.695 88.1098L221.472 112.574" stroke="#222222" stroke-width="0.25" stroke-miterlimit="10"/>
<path d="M224.176 120.675L236.633 109.72L264.957 103.394L220.695 88.11L259.02 89.8858L271.31 80.8389L287.787 97.1745L264.957 103.394L259.02 89.8858L248.48 119.597L264.957 103.394L271.31 80.8389" stroke="#222222" stroke-width="0.25" stroke-miterlimit="10"/>
<path d="M235.149 79.7344L236.633 108.324" stroke="#222222" stroke-width="0.25" stroke-miterlimit="10"/>
<path d="M301.428 79.3545L287.787 97.1744L287.107 79.3545L264.958 103.394L299.537 119.597L287.787 97.1744L316.191 86.9171L326.271 106.628L327.084 119.597H299.537L314.795 86.9171L301.428 79.3545Z" stroke="#222222" stroke-width="0.25" stroke-miterlimit="10"/>
<path d="M271.442 119.324L264.958 103.421L326.271 106.654C326.271 106.654 271.442 118.785 271.442 119.324Z" stroke="#222222" stroke-width="0.25" stroke-miterlimit="10"/>
<path d="M287.787 95.7788L271.442 119.324L236.633 109.72" stroke="#222222" stroke-width="0.25" stroke-miterlimit="10"/>
<path d="M326.271 106.628L287.398 96.6355L352.9 95.0188L339.373 80.5649C339.373 80.5649 326.545 106.628 326.271 106.628Z" stroke="#222222" stroke-width="0.25" stroke-miterlimit="10"/>
<path d="M352.714 120.154C351.937 120.684 352.882 95.0281 352.882 95.0281L326.271 106.628L337.35 119.324L352.882 95.0192L314.795 86.9177L322.808 63.1431L300.385 79.355L339.418 80.5654L314.839 86.9177" stroke="#222222" stroke-width="0.25" stroke-miterlimit="10"/>
<path d="M353.288 119.323L369.765 109.87L352.882 95.0187L361.116 81.5102L386.375 119.597L396.005 93.128L369.765 109.87L384.617 81.2451L352.882 95.0187" stroke="#222222" stroke-width="0.25" stroke-miterlimit="10"/>
<path d="M300.341 120.136L326.272 106.628L369.766 109.87L373.812 119.597" stroke="#222222" stroke-width="0.25" stroke-miterlimit="10"/>
<path d="M384.891 80.4326L394.609 93.1283L352.882 95.019" stroke="#222222" stroke-width="0.25" stroke-miterlimit="10"/>
<path d="M394.609 91.7321L398.125 80.9712L414.063 104.066L444.446 110.86L452.398 86.1131L410.547 120.136L414.063 104.066L386.375 119.597L369.765 109.87L414.063 104.066L417.438 81.2451L394.609 93.128L414.063 104.066" stroke="#222222" stroke-width="0.25" stroke-miterlimit="10"/>
<path d="M417.438 81.2451L444.446 109.472L436.212 122.566L413.524 104.746L451.338 86.3782L394.609 93.128L409.195 119.871" stroke="#222222" stroke-width="0.25" stroke-miterlimit="10"/>
<path d="M339.374 80.5651L320.017 63.1427L338.932 50.0495L299.537 57.7446L312.904 32.8922L285.083 12.5013L304.397 6.68799L285.711 32.2207L320.335 13.9856L312.904 32.8922L335.46 31.5404L321.412 63.6817L299.537 57.7446" stroke="#222222" stroke-width="0.25" stroke-miterlimit="10"/>
<path d="M339.241 66.924L321.412 63.6816L300.615 69.3536" stroke="#222222" stroke-width="0.25" stroke-miterlimit="10"/>
<path d="M321.412 63.6816L312.904 32.8921L293.591 42.8843L339.78 50.1819L312.904 32.8921L286.568 32.6182L271.981 40.7286L256.856 19.6575L284.403 12.6338L286.568 32.6182L293.591 42.8843" stroke="#222222" stroke-width="0.25" stroke-miterlimit="10"/>
<path d="M246.051 40.7288L285.083 12.5014L275.224 1.55504L257.934 20.4705L237.137 14.5246L247.942 1.01611L285.083 12.5014L271.981 40.7288" stroke="#222222" stroke-width="0.25" stroke-miterlimit="10"/>
<path d="M287.38 32.6184L256.856 19.9227L246.864 40.7288L237.949 13.7118L226.87 41.8067L211.206 25.0558L258.658 20.3291L247.941 1.01611" stroke="#222222" stroke-width="0.25" stroke-miterlimit="10"/>
<path d="M237.137 14.5243L275.224 1.55469" stroke="#222222" stroke-width="0.25" stroke-miterlimit="10"/>
<path d="M175.549 24.5165H211.613L185.179 34.2172L180.85 57.7179L203.944 51.3745L185.179 34.2172L193.378 9.66512L237.949 13.7115L211.613 24.5165L219.211 2.2085L237.949 13.7115" stroke="#222222" stroke-width="0.25" stroke-miterlimit="10"/>
<path d="M193.377 9.66553L210.941 23.978" stroke="#222222" stroke-width="0.25" stroke-miterlimit="10"/>
<path d="M211.613 24.5166L203.944 51.3746L163.25 44.2183L186.575 34.2173L176.361 24.5166L165.291 60.1741L180.85 57.718L185.718 76.6246L203.237 65.7135L180.85 57.718L211.613 24.5166Z" stroke="#222222" stroke-width="0.25" stroke-miterlimit="10"/>
<path d="M162.314 81.5105L180.849 57.7183" stroke="#222222" stroke-width="0.25" stroke-miterlimit="10"/>
<path d="M185.718 76.6245L165.557 60.9868" stroke="#222222" stroke-width="0.25" stroke-miterlimit="10"/>
<path d="M444.446 109.473L472.4 117.972L456.471 139.856L468.618 143.911L493.789 122.707L472.4 117.972L475.96 100.691L444.446 109.473Z" stroke="#222222" stroke-width="0.25" stroke-miterlimit="10"/>
<path d="M451.337 86.3784L472.4 118.785L435.399 122.301" stroke="#222222" stroke-width="0.25" stroke-miterlimit="10"/>
<path d="M456.471 139.856L444.446 109.473L468.618 143.911L490.635 153.364L492.932 122.84" stroke="#222222" stroke-width="0.25" stroke-miterlimit="10"/>
<path d="M490.635 153.364L500.494 144.45" stroke="#222222" stroke-width="0.25" stroke-miterlimit="10"/>
<path d="M503.242 164.311L476.322 164.567L462.946 185.506L468.353 196.982L489.018 181.724L461.33 164.973L476.322 164.567L489.018 181.724L503.242 164.311ZM503.242 164.311L490.635 153.364L476.322 164.567L468.618 143.911L491.315 139.317L472.4 118.785L468.618 143.911" stroke="#222222" stroke-width="0.25" stroke-miterlimit="10"/>
<path d="M501.307 180.099L489.018 181.724" stroke="#222222" stroke-width="0.25" stroke-miterlimit="10"/>
<path d="M473.213 224.67L490.953 224.935L484.292 250.733L462.275 237.905L473.213 224.67Z" stroke="#222222" stroke-width="0.25" stroke-miterlimit="10"/>
<path d="M501.308 256.812L484.292 250.733L473.213 224.67L454.58 209.545L468.354 196.982L473.213 224.67L487.393 203.334L468.893 197.662" stroke="#222222" stroke-width="0.25" stroke-miterlimit="10"/>
<path d="M443.457 230.881L474.025 224.396L501.307 213.326L455.976 209.545L434.586 197.662L437.016 212.646L454.845 209.81L444.314 230.881L419.196 237.905L400.687 228.452L437.016 212.646L444.314 230.881L401.632 209.545L420.141 205.896L437.016 212.646L419.735 197.662L420.141 205.896" stroke="#222222" stroke-width="0.25" stroke-miterlimit="10"/>
<path d="M463.671 237.905L445.118 230.616L485.997 203.334" stroke="#222222" stroke-width="0.25" stroke-miterlimit="10"/>
<path d="M462.947 237.658L489.558 224.971L461.869 267.378L474.432 263.279L484.292 250.716L500.495 241.192L489.558 224.989C491.042 223.363 501.308 213.371 501.308 213.371L487.393 203.379L489.019 181.769L462.947 185.532L487.393 203.361L501.573 194.712L489.019 181.751L490.635 153.391L462.143 155.008" stroke="#222222" stroke-width="0.25" stroke-miterlimit="10"/>
<path d="M501.034 279.773L487.932 280.445L484.292 250.733" stroke="#222222" stroke-width="0.25" stroke-miterlimit="10"/>
<path d="M483.479 297.328L487.932 280.445L467.815 286.797L474.432 263.296L500.495 255.999L489.328 280.445L461.869 267.351" stroke="#222222" stroke-width="0.25" stroke-miterlimit="10"/>
<path d="M495.097 291.117C495.097 291.117 488.109 281.982 487.932 280.445C487.799 279.234 473.213 265.187 474.432 263.296C475.651 261.406 462.275 237.905 462.275 237.905" stroke="#222222" stroke-width="0.25" stroke-miterlimit="10"/>
<path d="M418.754 239.477L420.141 205.896L388.672 197.388L383.265 218.327L400.961 209.006L400.687 228.452H369.217L349.233 214.943L363.006 197.662L383.265 218.327L369.217 228.452L353.827 238.444L334.646 224.67L349.233 214.943L383.265 218.327L384.351 237.905L400.687 228.452L383.265 218.327" stroke="#222222" stroke-width="0.25" stroke-miterlimit="10"/>
<path d="M363.819 197.927L368.414 227.913L334.647 224.67L326.678 204.818L349.233 214.943L353.827 238.444" stroke="#222222" stroke-width="0.25" stroke-miterlimit="10"/>
<path d="M400.961 209.006L388.672 197.389L349.233 214.943L342.209 196.85L326.678 204.819L311.42 216.295L293.317 203.061L311.314 197.468L311.42 216.295L299.263 229.804L319.248 231.562L334.647 224.671L311.42 216.295" stroke="#222222" stroke-width="0.25" stroke-miterlimit="10"/>
<path d="M374.351 237.64L369.218 227.639L331.678 238.179" stroke="#222222" stroke-width="0.25" stroke-miterlimit="10"/>
<path d="M400.687 228.452L446.248 230.881" stroke="#222222" stroke-width="0.25" stroke-miterlimit="10"/>
<path d="M326.678 204.818L311.314 197.468" stroke="#222222" stroke-width="0.25" stroke-miterlimit="10"/>
<path d="M312.224 215.756L319.247 231.561L331.678 238.179L334.647 224.67" stroke="#222222" stroke-width="0.25" stroke-miterlimit="10"/>
<path d="M274.685 217.647L311.42 216.295" stroke="#222222" stroke-width="0.25" stroke-miterlimit="10"/>
<path d="M293.317 203.061L299.263 229.804L273.606 218.46L278.192 205.225L233.487 212.107L259.064 197.883L253.207 223.814L272.281 238.047L293.317 203.061ZM293.317 203.061L278.192 205.225L253.207 225.21L274.684 218.46L272.52 237.092" stroke="#222222" stroke-width="0.25" stroke-miterlimit="10"/>
<path d="M272.281 238.046L299.263 229.803L307.638 237.905" stroke="#222222" stroke-width="0.25" stroke-miterlimit="10"/>
<path d="M273.607 217.373L256.043 208.193L220.395 223.593L239.973 231.915L259.559 247.358L244.973 257.757L256.856 272.211L271.716 266.804L244.973 257.757L238.214 278.696L256.856 272.211L253.614 286.258L233.629 254.921L244.973 257.757L239.973 233.311L253.207 225.209L259.559 247.358L271.442 237.366L239.973 233.311L233.488 212.107L253.207 225.209" stroke="#222222" stroke-width="0.25" stroke-miterlimit="10"/>
<path d="M271.716 266.804L259.559 248.171L256.856 270.134L266.044 280.586" stroke="#222222" stroke-width="0.25" stroke-miterlimit="10"/>
<path d="M246.369 257.757L253.207 225.209L220.395 223.592L215.526 197.388L233.488 212.107L235.785 197.662L220.395 223.592L189.596 209.81L203.644 197.662L200.136 237.366L220.395 223.592L233.629 237.092L239.973 233.311L233.629 254.921" stroke="#222222" stroke-width="0.25" stroke-miterlimit="10"/>
<path d="M257.668 197.927L278.192 205.225L280.356 197.388" stroke="#222222" stroke-width="0.25" stroke-miterlimit="10"/>
<path d="M188.792 210.358L233.488 212.107L178.526 226.835L150.705 206.709L170.018 197.662L164.717 237.843L179.878 226.561L188.792 210.358Z" stroke="#222222" stroke-width="0.25" stroke-miterlimit="10"/>
<path d="M170.018 197.662L189.596 209.81L185.011 236.827L180.593 226.561L200.401 238.179L216.613 197.662" stroke="#222222" stroke-width="0.25" stroke-miterlimit="10"/>
<path d="M217.417 236.827L220.394 223.593" stroke="#222222" stroke-width="0.25" stroke-miterlimit="10"/>
<path d="M189.596 209.81L190.135 197.389L149.618 226.287L117.212 203.599L130.676 198.546L150.705 206.736L126.391 237.932L149.362 225.236L164.487 237.119L150.705 206.736L150.192 197.124L112.202 225.077L102.069 212.249L117.203 203.599L112.202 225.077C112.202 225.077 125.843 237.366 126.338 237.905C126.833 238.444 130.623 198.546 130.623 198.546" stroke="#222222" stroke-width="0.25" stroke-miterlimit="10"/>
<path d="M147.188 237.366L148.54 225.748C148.54 225.748 148.814 208.193 150.705 206.709C152.595 205.225 187.935 210.49 187.935 210.49" stroke="#222222" stroke-width="0.25" stroke-miterlimit="10"/>
<path d="M60.6246 197.901C60.6246 197.901 55.8892 217.779 55.8892 218.221C55.8892 218.663 56.702 237.808 56.702 237.808L80.7416 218.76L84.6643 237.402L102.484 211.568" stroke="#222222" stroke-width="0.25" stroke-miterlimit="10"/>
<path d="M100.055 237.905C100.461 237.905 112.618 225.077 112.618 225.077L113.696 237.233" stroke="#222222" stroke-width="0.25" stroke-miterlimit="10"/>
<path d="M71.8274 236.96L102.723 212.346L87.4297 197.963L81.1481 201.708L60.2184 198.201L80.3353 219.131L102.087 212.248L80.7417 201.982L71.8274 236.96ZM71.8274 236.96L55.3503 218.459L80.9891 201.276L81.1481 201.17L100.461 238.444L102.087 212.248L98.3054 197.662L117.477 204.006" stroke="#222222" stroke-width="0.25" stroke-miterlimit="10"/>
</svg>
