<svg width="215" height="213" viewBox="0 0 215 213" fill="none" xmlns="http://www.w3.org/2000/svg">
<path d="M147.719 25.6395C148.49 25.6395 149.115 25.0145 149.115 24.2436C149.115 23.4726 148.49 22.8477 147.719 22.8477C146.948 22.8477 146.323 23.4726 146.323 24.2436C146.323 25.0145 146.948 25.6395 147.719 25.6395Z" fill="#40916C"/>
<path d="M173.649 67.6405C174.42 67.6405 175.045 67.0155 175.045 66.2445C175.045 65.4736 174.42 64.8486 173.649 64.8486C172.878 64.8486 172.253 65.4736 172.253 66.2445C172.253 67.0155 172.878 67.6405 173.649 67.6405Z" fill="#40916C"/>
<path d="M128.954 39.5457C129.724 39.5457 130.349 38.9207 130.349 38.1498C130.349 37.3789 129.724 36.7539 128.954 36.7539C128.183 36.7539 127.558 37.3789 127.558 38.1498C127.558 38.9207 128.183 39.5457 128.954 39.5457Z" fill="#40916C"/>
<path d="M171.9 118.017C172.671 118.017 173.296 117.392 173.296 116.621C173.296 115.85 172.671 115.225 171.9 115.225C171.129 115.225 170.504 115.85 170.504 116.621C170.504 117.392 171.129 118.017 171.9 118.017Z" fill="#40916C"/>
<path d="M162.986 95.868C163.757 95.868 164.382 95.243 164.382 94.4721C164.382 93.7011 163.757 93.0762 162.986 93.0762C162.215 93.0762 161.59 93.7011 161.59 94.4721C161.59 95.243 162.215 95.868 162.986 95.868Z" fill="#40916C"/>
<path d="M160.017 74.6644C160.788 74.6644 161.413 74.0394 161.413 73.2685C161.413 72.4975 160.788 71.8726 160.017 71.8726C159.246 71.8726 158.621 72.4975 158.621 73.2685C158.621 74.0394 159.246 74.6644 160.017 74.6644Z" fill="#40916C"/>
<path d="M158.126 125.579C158.897 125.579 159.522 124.954 159.522 124.184C159.522 123.413 158.897 122.788 158.126 122.788C157.355 122.788 156.73 123.413 156.73 124.184C156.73 124.954 157.355 125.579 158.126 125.579Z" fill="#40916C"/>
<path d="M146.376 101.001C147.147 101.001 147.772 100.376 147.772 99.6054C147.772 98.8344 147.147 98.2095 146.376 98.2095C145.605 98.2095 144.98 98.8344 144.98 99.6054C144.98 100.376 145.605 101.001 146.376 101.001Z" fill="#40916C"/>
<path d="M134.935 135.66C134.458 135.059 134.316 137.056 133.539 137.056C133.169 137.056 132.814 136.909 132.552 136.647C132.29 136.385 132.143 136.03 132.143 135.66C132.143 134.891 133.027 133.698 133.539 134.264C136.039 136.941 137.444 138.778 134.935 135.66Z" fill="#40916C"/>
<path d="M143.672 147.596C144.443 147.596 145.068 146.971 145.068 146.2C145.068 145.429 144.443 144.804 143.672 144.804C142.901 144.804 142.276 145.429 142.276 146.2C142.276 146.971 142.901 147.596 143.672 147.596Z" fill="#40916C"/>
<path d="M106.805 175.011C107.576 175.011 108.201 174.386 108.201 173.615C108.201 172.844 107.576 172.219 106.805 172.219C106.034 172.219 105.409 172.844 105.409 173.615C105.409 174.386 106.034 175.011 106.805 175.011Z" fill="#40916C"/>
<path d="M114.773 159.479C115.544 159.479 116.169 158.854 116.169 158.083C116.169 157.312 115.544 156.687 114.773 156.687C114.002 156.687 113.377 157.312 113.377 158.083C113.377 158.854 114.002 159.479 114.773 159.479Z" fill="#40916C"/>
<path d="M92.0766 139.892C92.8475 139.892 93.4725 139.267 93.4725 138.496C93.4725 137.726 92.8475 137.101 92.0766 137.101C91.3056 137.101 90.6807 137.726 90.6807 138.496C90.6807 139.267 91.3056 139.892 92.0766 139.892Z" fill="#40916C"/>
<path d="M92.3505 161.908C93.1215 161.908 93.7464 161.284 93.7464 160.513C93.7464 159.742 93.1215 159.117 92.3505 159.117C91.5796 159.117 90.9546 159.742 90.9546 160.513C90.9546 161.284 91.5796 161.908 92.3505 161.908Z" fill="#40916C"/>
<path d="M56.8344 153.268C57.6053 153.268 58.2303 152.643 58.2303 151.872C58.2303 151.101 57.6053 150.476 56.8344 150.476C56.0634 150.476 55.4385 151.101 55.4385 151.872C55.4385 152.643 56.0634 153.268 56.8344 153.268Z" fill="#40916C"/>
<path d="M49.537 134.353C50.308 134.353 50.9329 133.728 50.9329 132.957C50.9329 132.186 50.308 131.561 49.537 131.561C48.7661 131.561 48.1411 132.186 48.1411 132.957C48.1411 133.728 48.7661 134.353 49.537 134.353Z" fill="#40916C"/>
<path d="M15.7699 137.869C16.5409 137.869 17.1658 137.244 17.1658 136.473C17.1658 135.702 16.5409 135.077 15.7699 135.077C14.999 135.077 14.374 135.702 14.374 136.473C14.374 137.244 14.999 137.869 15.7699 137.869Z" fill="#40916C"/>
<path d="M40.8964 93.2967C41.6673 93.2967 42.2923 92.6717 42.2923 91.9008C42.2923 91.1298 41.6673 90.5049 40.8964 90.5049C40.1255 90.5049 39.5005 91.1298 39.5005 91.9008C39.5005 92.6717 40.1255 93.2967 40.8964 93.2967Z" fill="#40916C"/>
<path d="M1.59023 83.0399C2.36117 83.0399 2.98615 82.4149 2.98615 81.644C2.98615 80.873 2.36117 80.248 1.59023 80.248C0.819293 80.248 0.194336 80.873 0.194336 81.644C0.194336 82.4149 0.819293 83.0399 1.59023 83.0399Z" fill="#40916C"/>
<path d="M31.8495 116.126C32.6204 116.126 33.2454 115.501 33.2454 114.73C33.2454 113.959 32.6204 113.334 31.8495 113.334C31.0786 113.334 30.4536 113.959 30.4536 114.73C30.4536 115.501 31.0786 116.126 31.8495 116.126Z" fill="#40916C"/>
<path d="M31.4433 81.6878C32.2142 81.6878 32.8392 81.0629 32.8392 80.2919C32.8392 79.521 32.2142 78.896 31.4433 78.896C30.6723 78.896 30.0474 79.521 30.0474 80.2919C30.0474 81.0629 30.6723 81.6878 31.4433 81.6878Z" fill="#40916C"/>
<path d="M31.9818 137.463C32.7528 137.463 33.3778 136.838 33.3778 136.067C33.3778 135.296 32.7528 134.671 31.9818 134.671C31.2109 134.671 30.5859 135.296 30.5859 136.067C30.5859 136.838 31.2109 137.463 31.9818 137.463Z" fill="#40916C"/>
<path d="M31.3017 102.891C32.0726 102.891 32.6976 102.266 32.6976 101.496C32.6976 100.725 32.0726 100.1 31.3017 100.1C30.5307 100.1 29.9058 100.725 29.9058 101.496C29.9058 102.266 30.5307 102.891 31.3017 102.891Z" fill="#40916C"/>
<path d="M16.4501 118.555C17.221 118.555 17.846 117.931 17.846 117.16C17.846 116.389 17.221 115.764 16.4501 115.764C15.6792 115.764 15.0542 116.389 15.0542 117.16C15.0542 117.931 15.6792 118.555 16.4501 118.555Z" fill="#40916C"/>
<path d="M15.9115 94.3836C16.6825 94.3836 17.3074 93.7587 17.3074 92.9877C17.3074 92.2168 16.6825 91.5918 15.9115 91.5918C15.1406 91.5918 14.5156 92.2168 14.5156 92.9877C14.5156 93.7587 15.1406 94.3836 15.9115 94.3836Z" fill="#40916C"/>
<path d="M13.3403 75.159C14.1112 75.159 14.7362 74.534 14.7362 73.7631C14.7362 72.9921 14.1112 72.3672 13.3403 72.3672C12.5693 72.3672 11.9443 72.9921 11.9443 73.7631C11.9443 74.534 12.5693 75.159 13.3403 75.159Z" fill="#40916C"/>
<path d="M6.59072 62.3748C7.36166 62.3748 7.98664 61.7498 7.98664 60.9789C7.98664 60.208 7.36166 59.583 6.59072 59.583C5.81978 59.583 5.19482 60.208 5.19482 60.9789C5.19482 61.7498 5.81978 62.3748 6.59072 62.3748Z" fill="#40916C"/>
<path d="M29.4111 26.8499C30.182 26.8499 30.807 26.225 30.807 25.454C30.807 24.6831 30.182 24.0581 29.4111 24.0581C28.6401 24.0581 28.0151 24.6831 28.0151 25.454C28.0151 26.225 28.6401 26.8499 29.4111 26.8499Z" fill="#40916C"/>
<path d="M25.6298 54.6712C26.4007 54.6712 27.0257 54.0462 27.0257 53.2753C27.0257 52.5044 26.4007 51.8794 25.6298 51.8794C24.8588 51.8794 24.2339 52.5044 24.2339 53.2753C24.2339 54.0462 24.8588 54.6712 25.6298 54.6712Z" fill="#40916C"/>
<path d="M24.1454 42.5233C24.9163 42.5233 25.5413 41.8983 25.5413 41.1273C25.5413 40.3564 24.9163 39.7314 24.1454 39.7314C23.3745 39.7314 22.7495 40.3564 22.7495 41.1273C22.7495 41.8983 23.3745 42.5233 24.1454 42.5233Z" fill="#40916C"/>
<path d="M46.4271 39.8197C47.1981 39.8197 47.8231 39.1947 47.8231 38.4237C47.8231 37.6528 47.1981 37.0278 46.4271 37.0278C45.6562 37.0278 45.0312 37.6528 45.0312 38.4237C45.0312 39.1947 45.6562 39.8197 46.4271 39.8197Z" fill="#40916C"/>
<path d="M34.0053 64.1243C34.7762 64.1243 35.4012 63.4994 35.4012 62.7284C35.4012 61.9575 34.7762 61.3325 34.0053 61.3325C33.2343 61.3325 32.6094 61.9575 32.6094 62.7284C32.6094 63.4994 33.2343 64.1243 34.0053 64.1243Z" fill="#40916C"/>
<path d="M38.1933 27.2562C38.9642 27.2562 39.5892 26.6312 39.5892 25.8603C39.5892 25.0893 38.9642 24.4644 38.1933 24.4644C37.4223 24.4644 36.7974 25.0893 36.7974 25.8603C36.7974 26.6312 37.4223 27.2562 38.1933 27.2562Z" fill="#40916C"/>
<path d="M45.8886 53.4607C46.6595 53.4607 47.2845 52.8358 47.2845 52.0648C47.2845 51.2939 46.6595 50.6689 45.8886 50.6689C45.1177 50.6689 44.4927 51.2939 44.4927 52.0648C44.4927 52.8358 45.1177 53.4607 45.8886 53.4607Z" fill="#40916C"/>
<path d="M52.6469 59.1326C53.4178 59.1326 54.0428 58.5077 54.0428 57.7367C54.0428 56.9658 53.4178 56.3408 52.6469 56.3408C51.876 56.3408 51.251 56.9658 51.251 57.7367C51.251 58.5077 51.876 59.1326 52.6469 59.1326Z" fill="#40916C"/>
<path d="M75.4677 165.151C76.2386 165.151 76.8636 164.526 76.8636 163.755C76.8636 162.984 76.2386 162.359 75.4677 162.359C74.6967 162.359 74.0718 162.984 74.0718 163.755C74.0718 164.526 74.6967 165.151 75.4677 165.151Z" fill="#40916C"/>
<path d="M46.7011 114.775C47.472 114.775 48.097 114.15 48.097 113.379C48.097 112.608 47.472 111.983 46.7011 111.983C45.9301 111.983 45.3052 112.608 45.3052 113.379C45.3052 114.15 45.9301 114.775 46.7011 114.775Z" fill="#40916C"/>
<path d="M31.9818 156.776C32.7528 156.776 33.3778 156.151 33.3778 155.38C33.3778 154.609 32.7528 153.984 31.9818 153.984C31.2109 153.984 30.5859 154.609 30.5859 155.38C30.5859 156.151 31.2109 156.776 31.9818 156.776Z" fill="#40916C"/>
<path d="M79.7875 148.267C80.5585 148.267 81.1834 147.642 81.1834 146.871C81.1834 146.101 80.5585 145.476 79.7875 145.476C79.0166 145.476 78.3916 146.101 78.3916 146.871C78.3916 147.642 79.0166 148.267 79.7875 148.267Z" fill="#40916C"/>
<path d="M84.788 177.705C85.559 177.705 86.1839 177.08 86.1839 176.309C86.1839 175.539 85.559 174.914 84.788 174.914C84.0171 174.914 83.3921 175.539 83.3921 176.309C83.3921 177.08 84.0171 177.705 84.788 177.705Z" fill="#40916C"/>
<path d="M110.719 140.431C111.49 140.431 112.115 139.806 112.115 139.035C112.115 138.264 111.49 137.639 110.719 137.639C109.948 137.639 109.323 138.264 109.323 139.035C109.323 139.806 109.948 140.431 110.719 140.431Z" fill="#40916C"/>
<path d="M123.953 171.229C124.724 171.229 125.349 170.604 125.349 169.833C125.349 169.062 124.724 168.438 123.953 168.438C123.182 168.438 122.557 169.062 122.557 169.833C122.557 170.604 123.182 171.229 123.953 171.229Z" fill="#40916C"/>
<path d="M142.047 122.47C142.818 122.47 143.443 121.845 143.443 121.074C143.443 120.303 142.818 119.678 142.047 119.678C141.276 119.678 140.651 120.303 140.651 121.074C140.651 121.845 141.276 122.47 142.047 122.47Z" fill="#40916C"/>
<path d="M160.556 150.026C161.327 150.026 161.952 149.401 161.952 148.63C161.952 147.859 161.327 147.234 160.556 147.234C159.785 147.234 159.16 147.859 159.16 148.63C159.16 149.401 159.785 150.026 160.556 150.026Z" fill="#40916C"/>
<path d="M207.823 181.76C208.594 181.76 209.219 181.135 209.219 180.364C209.219 179.593 208.594 178.968 207.823 178.968C207.052 178.968 206.427 179.593 206.427 180.364C206.427 181.135 207.052 181.76 207.823 181.76Z" fill="#40916C"/>
<path d="M149.071 176.901C149.842 176.901 150.467 176.276 150.467 175.505C150.467 174.734 149.842 174.109 149.071 174.109C148.3 174.109 147.675 174.734 147.675 175.505C147.675 176.276 148.3 176.901 149.071 176.901Z" fill="#40916C"/>
<path d="M174.868 202.69C175.639 202.69 176.264 202.065 176.264 201.294C176.264 200.523 175.639 199.898 174.868 199.898C174.097 199.898 173.472 200.523 173.472 201.294C173.472 202.065 174.097 202.69 174.868 202.69Z" fill="#40916C"/>
<path d="M204.713 193.378C205.484 193.378 206.109 192.753 206.109 191.982C206.109 191.211 205.484 190.586 204.713 190.586C203.942 190.586 203.317 191.211 203.317 191.982C203.317 192.753 203.942 193.378 204.713 193.378Z" fill="#40916C"/>
<path d="M199.314 208.371C200.085 208.371 200.71 207.746 200.71 206.975C200.71 206.204 200.085 205.579 199.314 205.579C198.543 205.579 197.918 206.204 197.918 206.975C197.918 207.746 198.543 208.371 199.314 208.371Z" fill="#40916C"/>
<path d="M190.4 178.253C191.171 178.253 191.796 177.628 191.796 176.857C191.796 176.086 191.171 175.461 190.4 175.461C189.629 175.461 189.004 176.086 189.004 176.857C189.004 177.628 189.629 178.253 190.4 178.253Z" fill="#40916C"/>
<path d="M164.337 174.472C165.108 174.472 165.733 173.847 165.733 173.076C165.733 172.305 165.108 171.68 164.337 171.68C163.566 171.68 162.941 172.305 162.941 173.076C162.941 173.847 163.566 174.472 164.337 174.472Z" fill="#40916C"/>
<path d="M175.681 162.58C176.452 162.58 177.077 161.955 177.077 161.184C177.077 160.413 176.452 159.788 175.681 159.788C174.91 159.788 174.285 160.413 174.285 161.184C174.285 161.955 174.91 162.58 175.681 162.58Z" fill="#40916C"/>
<path d="M189.455 191.753C190.226 191.753 190.851 191.128 190.851 190.357C190.851 189.586 190.226 188.961 189.455 188.961C188.684 188.961 188.059 189.586 188.059 190.357C188.059 191.128 188.684 191.753 189.455 191.753Z" fill="#40916C"/>
<path d="M174.594 188.652C175.365 188.652 175.99 188.027 175.99 187.256C175.99 186.485 175.365 185.86 174.594 185.86C173.823 185.86 173.198 186.485 173.198 187.256C173.198 188.027 173.823 188.652 174.594 188.652Z" fill="#40916C"/>
<path d="M149.609 161.228C150.38 161.228 151.005 160.603 151.005 159.832C151.005 159.062 150.38 158.437 149.609 158.437C148.838 158.437 148.213 159.062 148.213 159.832C148.213 160.603 148.838 161.228 149.609 161.228Z" fill="#40916C"/>
<path d="M178.111 151.916C178.882 151.916 179.507 151.291 179.507 150.52C179.507 149.749 178.882 149.125 178.111 149.125C177.34 149.125 176.715 149.749 176.715 150.52C176.715 151.291 177.34 151.916 178.111 151.916Z" fill="#40916C"/>
<path d="M159.204 56.9681C159.975 56.9681 160.6 56.3431 160.6 55.5722C160.6 54.8012 159.975 54.1763 159.204 54.1763C158.433 54.1763 157.808 54.8012 157.808 55.5722C157.808 56.3431 158.433 56.9681 159.204 56.9681Z" fill="#40916C"/>
<path d="M139.891 62.6405C140.662 62.6405 141.287 62.0155 141.287 61.2446C141.287 60.4736 140.662 59.8486 139.891 59.8486C139.12 59.8486 138.495 60.4736 138.495 61.2446C138.495 62.0155 139.12 62.6405 139.891 62.6405Z" fill="#40916C"/>
<path d="M122.336 54.5384C123.107 54.5384 123.732 53.9134 123.732 53.1425C123.732 52.3715 123.107 51.7466 122.336 51.7466C121.565 51.7466 120.94 52.3715 120.94 53.1425C120.94 53.9134 121.565 54.5384 122.336 54.5384Z" fill="#40916C"/>
<path d="M134.891 107.618C135.661 107.618 136.286 106.993 136.286 106.222C136.286 105.451 135.661 104.826 134.891 104.826C134.12 104.826 133.495 105.451 133.495 106.222C133.495 106.993 134.12 107.618 134.891 107.618Z" fill="#40916C"/>
<path d="M112.883 133.681C113.654 133.681 114.279 133.056 114.279 132.285C114.279 131.514 113.654 130.889 112.883 130.889C112.112 130.889 111.487 131.514 111.487 132.285C111.487 133.056 112.112 133.681 112.883 133.681Z" fill="#40916C"/>
<path d="M45.8886 14.428C46.6595 14.428 47.2845 13.8031 47.2845 13.0322C47.2845 12.2612 46.6595 11.6362 45.8886 11.6362C45.1177 11.6362 44.4927 12.2612 44.4927 13.0322C44.4927 13.8031 45.1177 14.428 45.8886 14.428Z" fill="#40916C"/>
<path d="M58.5839 27.389C59.3548 27.389 59.9798 26.764 59.9798 25.9931C59.9798 25.2221 59.3548 24.5972 58.5839 24.5972C57.813 24.5972 57.188 25.2221 57.188 25.9931C57.188 26.764 57.813 27.389 58.5839 27.389Z" fill="#40916C"/>
<path d="M70.0604 44.9354C70.8314 44.9354 71.4564 44.3104 71.4564 43.5395C71.4564 42.7685 70.8314 42.1436 70.0604 42.1436C69.2895 42.1436 68.6646 42.7685 68.6646 43.5395C68.6646 44.3104 69.2895 44.9354 70.0604 44.9354Z" fill="#40916C"/>
<path d="M88.0302 2.81037C88.8011 2.81037 89.4261 2.18542 89.4261 1.41448C89.4261 0.643539 88.8011 0.0185547 88.0302 0.0185547C87.2592 0.0185547 86.6343 0.643539 86.6343 1.41448C86.6343 2.18542 87.2592 2.81037 88.0302 2.81037Z" fill="#40916C"/>
<path d="M110.312 46.3045C111.083 46.3045 111.708 45.6795 111.708 44.9086C111.708 44.1377 111.083 43.5127 110.312 43.5127C109.541 43.5127 108.916 44.1377 108.916 44.9086C108.916 45.6795 109.541 46.3045 110.312 46.3045Z" fill="#40916C"/>
<path d="M112.609 6.4593C113.38 6.4593 114.005 5.83431 114.005 5.06338C114.005 4.29244 113.38 3.66748 112.609 3.66748C111.838 3.66748 111.213 4.29244 111.213 5.06338C111.213 5.83431 111.838 6.4593 112.609 6.4593Z" fill="#40916C"/>
<path d="M102.078 31.3113C102.849 31.3113 103.473 30.6864 103.473 29.9154C103.473 29.1445 102.849 28.5195 102.078 28.5195C101.307 28.5195 100.682 29.1445 100.682 29.9154C100.682 30.6864 101.307 31.3113 102.078 31.3113Z" fill="#40916C"/>
<path d="M115.578 24.014C116.349 24.014 116.973 23.389 116.973 22.6181C116.973 21.8472 116.349 21.2222 115.578 21.2222C114.807 21.2222 114.182 21.8472 114.182 22.6181C114.182 23.389 114.807 24.014 115.578 24.014Z" fill="#40916C"/>
<path d="M87.4916 17.5379C88.2626 17.5379 88.8875 16.9129 88.8875 16.142C88.8875 15.3711 88.2626 14.7461 87.4916 14.7461C86.7207 14.7461 86.0957 15.3711 86.0957 16.142C86.0957 16.9129 86.7207 17.5379 87.4916 17.5379Z" fill="#40916C"/>
<path d="M100.452 9.8343C101.223 9.8343 101.848 9.20931 101.848 8.43838C101.848 7.66744 101.223 7.04248 100.452 7.04248C99.6811 7.04248 99.0562 7.66744 99.0562 8.43838C99.0562 9.20931 99.6811 9.8343 100.452 9.8343Z" fill="#40916C"/>
<path d="M71.1469 36.7098C71.9178 36.7098 72.5428 36.0848 72.5428 35.3139C72.5428 34.543 71.9178 33.918 71.1469 33.918C70.376 33.918 69.751 34.543 69.751 35.3139C69.751 36.0848 70.376 36.7098 71.1469 36.7098Z" fill="#40916C"/>
<path d="M56.4281 15.9124C57.1991 15.9124 57.824 15.2874 57.824 14.5165C57.824 13.7456 57.1991 13.1206 56.4281 13.1206C55.6572 13.1206 55.0322 13.7456 55.0322 14.5165C55.0322 15.2874 55.6572 15.9124 56.4281 15.9124Z" fill="#40916C"/>
<path d="M73.5766 23.0687C74.3475 23.0687 74.9725 22.4437 74.9725 21.6728C74.9725 20.9018 74.3475 20.2769 73.5766 20.2769C72.8056 20.2769 72.1807 20.9018 72.1807 21.6728C72.1807 22.4437 72.8056 23.0687 73.5766 23.0687Z" fill="#40916C"/>
<path d="M4.32934 110.499C5.34424 110.499 6.16698 109.676 6.16698 108.661C6.16698 107.646 5.34424 106.823 4.32934 106.823C3.31443 106.823 2.4917 107.646 2.4917 108.661C2.4917 109.676 3.31443 110.499 4.32934 110.499Z" fill="#40916C"/>
<path d="M62.2683 173.5C63.2832 173.5 64.106 172.677 64.106 171.662C64.106 170.647 63.2832 169.825 62.2683 169.825C61.2534 169.825 60.4307 170.647 60.4307 171.662C60.4307 172.677 61.2534 173.5 62.2683 173.5Z" fill="#40916C"/>
<path d="M136.614 165.195C137.628 165.195 138.451 164.372 138.451 163.357C138.451 162.342 137.628 161.52 136.614 161.52C135.599 161.52 134.776 162.342 134.776 163.357C134.776 164.372 135.599 165.195 136.614 165.195Z" fill="#40916C"/>
<path d="M164.169 137.242C165.184 137.242 166.007 136.419 166.007 135.404C166.007 134.389 165.184 133.566 164.169 133.566C163.154 133.566 162.332 134.389 162.332 135.404C162.332 136.419 163.154 137.242 164.169 137.242Z" fill="#40916C"/>
<path d="M192.733 165.601C193.748 165.601 194.57 164.778 194.57 163.763C194.57 162.749 193.748 161.926 192.733 161.926C191.718 161.926 190.895 162.749 190.895 163.763C190.895 164.778 191.718 165.601 192.733 165.601Z" fill="#40916C"/>
<path d="M211.975 204.899C212.99 204.899 213.812 204.076 213.812 203.061C213.812 202.046 212.99 201.224 211.975 201.224C210.96 201.224 210.137 202.046 210.137 203.061C210.137 204.076 210.96 204.899 211.975 204.899Z" fill="#40916C"/>
<path d="M186.654 213C187.669 213 188.492 212.178 188.492 211.163C188.492 210.148 187.669 209.325 186.654 209.325C185.639 209.325 184.816 210.148 184.816 211.163C184.816 212.178 185.639 213 186.654 213Z" fill="#40916C"/>
<path d="M160.927 189.703C161.942 189.703 162.765 188.88 162.765 187.865C162.765 186.851 161.942 186.028 160.927 186.028C159.912 186.028 159.089 186.851 159.089 187.865C159.089 188.88 159.912 189.703 160.927 189.703Z" fill="#40916C"/>
<path d="M176.927 96.3184C177.942 96.3184 178.765 95.4956 178.765 94.4807C178.765 93.4658 177.942 92.6431 176.927 92.6431C175.912 92.6431 175.089 93.4658 175.089 94.4807C175.089 95.4956 175.912 96.3184 176.927 96.3184Z" fill="#40916C"/>
<path d="M160.521 40.1992C161.536 40.1992 162.358 39.3765 162.358 38.3616C162.358 37.3467 161.536 36.5239 160.521 36.5239C159.506 36.5239 158.683 37.3467 158.683 38.3616C158.683 39.3765 159.506 40.1992 160.521 40.1992Z" fill="#40916C"/>
<path d="M13.4466 47.8945C14.4615 47.8945 15.2842 47.0718 15.2842 46.0569C15.2842 45.042 14.4615 44.2192 13.4466 44.2192C12.4316 44.2192 11.6089 45.042 11.6089 46.0569C11.6089 47.0718 12.4316 47.8945 13.4466 47.8945Z" fill="#40916C"/>
<path d="M130.942 13.0498C131.957 13.0498 132.779 12.2271 132.779 11.2122C132.779 10.1973 131.957 9.37451 130.942 9.37451C129.927 9.37451 129.104 10.1973 129.104 11.2122C129.104 12.2271 129.927 13.0498 130.942 13.0498Z" fill="#40916C"/>
<path d="M68.1433 5.55812C69.1582 5.55812 69.981 4.73536 69.981 3.72045C69.981 2.70554 69.1582 1.88281 68.1433 1.88281C67.1284 1.88281 66.3057 2.70554 66.3057 3.72045C66.3057 4.73536 67.1284 5.55812 68.1433 5.55812Z" fill="#40916C"/>
<path d="M92.6511 42.0195C93.666 42.0195 94.4888 41.1968 94.4888 40.1819C94.4888 39.167 93.666 38.3442 92.6511 38.3442C91.6362 38.3442 90.8135 39.167 90.8135 40.1819C90.8135 41.1968 91.6362 42.0195 92.6511 42.0195Z" fill="#40916C"/>
<path d="M65.1043 132.983C66.1192 132.983 66.9419 132.16 66.9419 131.145C66.9419 130.13 66.1192 129.308 65.1043 129.308C64.0894 129.308 63.2666 130.13 63.2666 131.145C63.2666 132.16 64.0894 132.983 65.1043 132.983Z" fill="#40916C"/>
<path d="M42.6194 75.8569C43.6343 75.8569 44.457 75.0342 44.457 74.0193C44.457 73.0044 43.6343 72.1816 42.6194 72.1816C41.6045 72.1816 40.7817 73.0044 40.7817 74.0193C40.7817 75.0342 41.6045 75.8569 42.6194 75.8569Z" fill="#40916C"/>
<path d="M122.636 125.288C123.651 125.288 124.474 124.465 124.474 123.45C124.474 122.436 123.651 121.613 122.636 121.613C121.622 121.613 120.799 122.436 120.799 123.45C120.799 124.465 121.622 125.288 122.636 125.288Z" fill="#40916C"/>
<path d="M137.426 81.3257C138.441 81.3257 139.264 80.503 139.264 79.4881C139.264 78.4731 138.441 77.6504 137.426 77.6504C136.411 77.6504 135.588 78.4731 135.588 79.4881C135.588 80.503 136.411 81.3257 137.426 81.3257Z" fill="#40916C"/>
<path d="M89.2412 138.364C116.244 138.364 138.133 116.292 138.133 89.0651C138.133 61.8383 116.244 39.7666 89.2412 39.7666C62.2389 39.7666 40.3491 61.8383 40.3491 89.0651C40.3491 116.292 62.2389 138.364 89.2412 138.364Z" stroke="#40916C" stroke-width="0.25" stroke-miterlimit="10"/>
<path d="M89.6031 176.451C137.782 176.451 176.838 137.085 176.838 88.5261C176.838 39.9667 137.782 0.601562 89.6031 0.601562C41.4243 0.601562 2.36768 39.9667 2.36768 88.5261C2.36768 137.085 41.4243 176.451 89.6031 176.451Z" stroke="#40916C" stroke-width="0.25" stroke-miterlimit="10"/>
<path d="M163.657 134.715L207.831 178.969C207.831 178.969 220.801 194.651 208.768 206.56C200.692 214.555 187.608 214.405 179.339 206.622C178.526 205.853 177.704 205.014 176.865 204.086C174.435 201.374 171.988 198.697 169.408 196.135L136.251 163.216L150.016 159.161L175.681 161.184L149.176 175.638L160.52 150.52L163.763 173.747L171.9 143.258" stroke="#40916C" stroke-width="0.25" stroke-miterlimit="10"/>
<path d="M102.476 29.3769L129.625 38.0881L148.461 23.8993L115.648 22.4857L131.445 10.7354L129.625 38.0881L122.734 52.6656L139.891 61.2442L159.814 55.3072L160.415 37.4785L129.625 38.0881L139.891 61.2442L148.461 23.8993" stroke="#40916C" stroke-width="0.25" stroke-miterlimit="10"/>
<path d="M129.625 38.123L159.204 55.5454L160.017 73.3035L146.844 99.4988L162.985 94.5071C162.985 94.5071 180.099 95.1962 178.764 94.5071C177.43 93.818 137.523 79.4349 137.523 79.4349L139.891 61.2704L160.043 73.2681L174.02 65.6348L159.231 55.51L169.152 52.4708" stroke="#40916C" stroke-width="0.25" stroke-miterlimit="10"/>
<path d="M158.126 124.184L172.165 116.48L146.376 99.6052L142.047 121.074L164.381 94.4722C164.381 94.4722 158.126 123.822 158.126 124.184Z" stroke="#40916C" stroke-width="0.25" stroke-miterlimit="10"/>
<path d="M176.423 94.6047L158.118 124.184L142.047 121.074L133.274 135.934L143.602 146.872L142.047 121.074L134.891 105.949L146.376 99.6053L137.523 79.4088L160.008 73.2686L162.986 94.4722L176.627 80.4248L160.008 73.2686" stroke="#40916C" stroke-width="0.25" stroke-miterlimit="10"/>
<path d="M164.267 135.731L143.602 146.872L158.118 124.184L133.274 135.934L122.133 123.371L142.595 120.535" stroke="#40916C" stroke-width="0.25" stroke-miterlimit="10"/>
<path d="M113.219 132.082L110.718 139.035L115.242 158.419L106.805 173.615L91.7412 160.442L124.156 169.763L133.274 135.934L115.242 158.419L136.516 163.888L144.211 146.262L110.718 139.035" stroke="#40916C" stroke-width="0.25" stroke-miterlimit="10"/>
<path d="M122.133 123.371L114.773 158.083" stroke="#40916C" stroke-width="0.25" stroke-miterlimit="10"/>
<path d="M110.718 139.035L133.274 135.934L112.203 132.285" stroke="#40916C" stroke-width="0.25" stroke-miterlimit="10"/>
<path d="M91.5376 138.567L91.7408 160.442L110.718 137.639L106.804 173.615L75.3345 163.278L79.9905 146.492L91.7408 160.468L115.242 158.445C115.242 158.445 91.7408 138.77 91.5376 138.567Z" stroke="#40916C" stroke-width="0.25" stroke-miterlimit="10"/>
<path d="M84.8499 177.051L75.3347 163.278L61.9588 171.989L57.0996 151.121L65.104 131.146L79.9907 146.465L91.9443 137.957L84.8499 176.247" stroke="#40916C" stroke-width="0.25" stroke-miterlimit="10"/>
<path d="M56.8347 151.872L79.9909 146.466L49.5371 132.957C49.5371 132.957 56.8347 152.208 56.8347 151.872Z" stroke="#40916C" stroke-width="0.25" stroke-miterlimit="10"/>
<path d="M75.4671 162.359L56.8344 151.872L31.5756 155.176L31.7788 135.527L49.5369 132.956L31.5756 114.253L15.77 136.473L31.7788 135.527L56.8344 151.872L47.9819 165.31" stroke="#40916C" stroke-width="0.25" stroke-miterlimit="10"/>
<path d="M32.3887 136.137L31.5758 114.253L16.4506 117.16L15.9116 92.9878L31.3726 100.886L46.975 112.84" stroke="#40916C" stroke-width="0.25" stroke-miterlimit="10"/>
<path d="M31.3021 101.496L40.8967 91.3622L15.9117 92.9878L13.3408 73.7632L32.8393 80.2922L4.02002 108.175L16.4507 117.16L10.3016 125.2" stroke="#40916C" stroke-width="0.25" stroke-miterlimit="10"/>
<path d="M4.01992 108.175L31.3726 100.886L31.9822 80.4244L42.5134 73.5332L13.3407 73.7629L1.59033 81.2372L15.9735 92.378L2.60634 94.4012" stroke="#40916C" stroke-width="0.25" stroke-miterlimit="10"/>
<path d="M16.1767 92.9881L34.0054 62.7287L25.6299 53.2754L13.3407 73.7634L13.7471 45.5802L24.6846 40.7211L46.3654 52.065L46.5686 37.6819L38.1931 25.8608L34.0054 62.7287L42.5134 73.5337L7.05908 61.377L24.6846 40.7211L25.6299 53.2754L46.5686 37.6819L59.3261 25.5251L38.1931 25.8608L29.3494 25.5251L24.0838 41.525L46.5686 37.6819V12.5555L56.4283 14.5169L67.9754 2.9697L73.5767 21.6731L87.4916 16.1425L87.8892 0.805176L101.062 7.89957L102.078 29.916L116.258 21.8763L113.016 4.65716L128.406 37.4787L110.586 44.361" stroke="#40916C" stroke-width="0.25" stroke-miterlimit="10"/>
<path d="M52.6469 57.7366L46.3653 52.0646L34.0054 62.7283L46.7718 64.2214L46.3653 52.0646L71.2796 34.8455L58.5221 26.3375L56.4282 14.5164L73.5767 21.6727L92.9604 40.3142L102.476 29.3767L87.4916 16.1421L101.062 7.89914L113.016 4.65674L102.476 30.1807L110.18 44.9702L116.258 21.8759L101.062 7.89914" stroke="#40916C" stroke-width="0.25" stroke-miterlimit="10"/>
<path d="M69.8659 43.5565L46.5684 37.6814L71.2795 34.8454L73.3026 21.063L59.3259 25.5246" stroke="#40916C" stroke-width="0.25" stroke-miterlimit="10"/>
<path d="M31.5756 155.176L49.5368 132.957L46.7715 113.644L31.982 115.066L31.3017 101.496L17.1924 117.089L15.77 136.473" stroke="#40916C" stroke-width="0.25" stroke-miterlimit="10"/>
<path d="M87.4915 1.41455L73.3028 21.0633L102.475 30.1808L71.2796 34.8457L70.4756 43.3536" stroke="#40916C" stroke-width="0.25" stroke-miterlimit="10"/>
<path d="M67.9756 2.96924L87.4918 16.142L92.9606 40.3142L71.2798 34.8454" stroke="#40916C" stroke-width="0.25" stroke-miterlimit="10"/>
<path d="M136.516 163.888L164.602 173.748L175.681 161.184L161.952 148.63L150.016 159.161L149.212 175.638L164.602 173.748L160.008 188.334L174.603 187.256L191.796 176.858L175.681 161.184L178.111 150.521H160.556L164.47 135.122L158.117 124.184L146.376 99.6055" stroke="#40916C" stroke-width="0.25" stroke-miterlimit="10"/>
<path d="M174.869 201.029L174.604 187.256L175.681 161.184L192.962 163.755L191.081 176.99L164.337 171.68L174.604 187.256L189.455 190.357L204.713 191.982L199.315 206.975L186.213 211.295L189.455 190.357L174.869 201.029Z" stroke="#40916C" stroke-width="0.25" stroke-miterlimit="10"/>
<path d="M174.868 201.029L199.314 206.975L212.681 202.381L204.712 191.983L208.361 179.958L191.08 176.99L189.454 190.357L208.361 179.958" stroke="#40916C" stroke-width="0.25" stroke-miterlimit="10"/>
<path d="M189.455 190.357L199.315 206.975" stroke="#40916C" stroke-width="0.25" stroke-miterlimit="10"/>
<path d="M160.017 188.333L192.962 163.755" stroke="#40916C" stroke-width="0.25" stroke-miterlimit="10"/>
</svg>
