<svg width="80" height="80" viewBox="0 0 80 80" fill="none" xmlns="http://www.w3.org/2000/svg">
<path d="M12.44 22.3201C13.1764 22.3201 13.7734 21.7232 13.7734 20.9868C13.7734 20.2504 13.1764 19.6534 12.44 19.6534C11.7036 19.6534 11.1067 20.2504 11.1067 20.9868C11.1067 21.7232 11.7036 22.3201 12.44 22.3201Z" fill="white"/>
<path d="M21.3333 22.3201C22.0697 22.3201 22.6667 21.7232 22.6667 20.9868C22.6667 20.2504 22.0697 19.6534 21.3333 19.6534C20.597 19.6534 20 20.2504 20 20.9868C20 21.7232 20.597 22.3201 21.3333 22.3201Z" fill="white"/>
<path d="M16.8934 22.3201C17.6298 22.3201 18.2267 21.7232 18.2267 20.9868C18.2267 20.2504 17.6298 19.6534 16.8934 19.6534C16.157 19.6534 15.5601 20.2504 15.5601 20.9868C15.5601 21.7232 16.157 22.3201 16.8934 22.3201Z" fill="white"/>
<path d="M26.6667 40.3334L30.6667 36.3334C30.9178 36.0824 31.0588 35.7418 31.0588 35.3868C31.0588 35.0317 30.9178 34.6912 30.6667 34.4401C30.4156 34.189 30.0751 34.048 29.72 34.048C29.365 34.048 29.0245 34.189 28.7734 34.4401L23.8134 39.4134C23.565 39.6632 23.4257 40.0012 23.4257 40.3534C23.4257 40.7057 23.565 41.0436 23.8134 41.2934L28.7734 46.2668C28.8973 46.3917 29.0448 46.4909 29.2073 46.5586C29.3698 46.6263 29.544 46.6612 29.72 46.6612C29.8961 46.6612 30.0703 46.6263 30.2328 46.5586C30.3953 46.4909 30.5428 46.3917 30.6667 46.2668C30.9151 46.0169 31.0544 45.679 31.0544 45.3268C31.0544 44.9745 30.9151 44.6366 30.6667 44.3868L26.6667 40.3334Z" fill="white"/>
<path d="M45.76 46.2402C46.0099 46.4885 46.3478 46.6279 46.7001 46.6279C47.0523 46.6279 47.3902 46.4885 47.64 46.2402L52.6134 41.3335C52.8617 41.0837 53.0011 40.7458 53.0011 40.3935C53.0011 40.0413 52.8617 39.7033 52.6134 39.4535L47.64 34.4802C47.389 34.2309 47.0492 34.0915 46.6953 34.0928C46.3415 34.094 46.0027 34.2358 45.7534 34.4869C45.5041 34.7379 45.3647 35.0778 45.366 35.4316C45.3672 35.7854 45.509 36.1242 45.76 36.3735L49.7601 40.3735L45.76 44.3735C45.5157 44.6228 45.3789 44.9579 45.3789 45.3069C45.3789 45.6559 45.5157 45.991 45.76 46.2402Z" fill="white"/>
<path d="M41.3333 34.8667C41.1811 34.7786 41.013 34.7214 40.8387 34.6985C40.6643 34.6756 40.4871 34.6874 40.3173 34.7333C40.1475 34.7791 39.9885 34.8581 39.8494 34.9657C39.7102 35.0733 39.5938 35.2073 39.5066 35.3601L34.5867 44.0001C34.4902 44.1518 34.4254 44.3215 34.3962 44.499C34.367 44.6764 34.374 44.8579 34.4168 45.0326C34.4596 45.2073 34.5373 45.3715 34.6452 45.5153C34.7531 45.6592 34.8889 45.7797 35.0446 45.8697C35.2003 45.9597 35.3726 46.0173 35.5511 46.039C35.7296 46.0607 35.9107 46.046 36.0834 45.9959C36.2561 45.9458 36.4169 45.8613 36.556 45.7474C36.6952 45.6336 36.81 45.4928 36.8933 45.3334L41.8666 36.7334C41.9597 36.5772 42.0198 36.4036 42.0433 36.2233C42.0667 36.043 42.0531 35.8597 42.0031 35.6849C41.9531 35.5101 41.868 35.3473 41.7528 35.2066C41.6376 35.0659 41.4948 34.9502 41.3333 34.8667Z" fill="white"/>
<path d="M74.48 53.3334C74.4013 53.3328 74.3247 53.3083 74.2604 53.263C74.1961 53.2177 74.1471 53.1539 74.12 53.0801C73.5894 51.6845 72.8376 50.3834 71.8933 49.2268C71.8486 49.1621 71.8246 49.0854 71.8246 49.0068C71.8246 48.9282 71.8486 48.8514 71.8933 48.7868C72.2994 48.0829 72.4095 47.2467 72.1995 46.4617C71.9895 45.6767 71.4766 45.0072 70.7733 44.6001L69.7733 44.0001V19.6534C69.7733 18.5926 69.3519 17.5752 68.6017 16.825C67.8516 16.0749 66.8342 15.6534 65.7733 15.6534H10.6666C9.60576 15.6534 8.58834 16.0749 7.8382 16.825C7.08805 17.5752 6.66663 18.5926 6.66663 19.6534V53.4401C6.67014 54.263 6.99857 55.0511 7.58042 55.633C8.16228 56.2148 8.95043 56.5433 9.77329 56.5468H28L26.6666 61.4801H24.8933C23.5946 61.481 22.3342 61.9197 21.3156 62.7254C20.2971 63.531 19.5799 64.6565 19.28 65.9201H16C15.6463 65.9201 15.3072 66.0606 15.0572 66.3106C14.8071 66.5607 14.6666 66.8998 14.6666 67.2534C14.6666 67.6071 14.8071 67.9462 15.0572 68.1963C15.3072 68.4463 15.6463 68.5868 16 68.5868H49.96C49.9374 68.9053 49.9689 69.2254 50.0533 69.5334C50.1533 69.9246 50.3312 70.2915 50.5763 70.6122C50.8214 70.933 51.1288 71.201 51.48 71.4001L54.2933 73.0268C54.6426 73.2273 55.028 73.3571 55.4274 73.4086C55.8269 73.4602 56.2326 73.4326 56.6214 73.3273C57.0102 73.2221 57.3744 73.0413 57.6933 72.7952C58.0122 72.5492 58.2795 72.2428 58.48 71.8934C58.5232 71.8254 58.5853 71.7715 58.6587 71.7384C58.7322 71.7052 58.8137 71.6942 58.8933 71.7068C60.358 71.9601 61.8553 71.9601 63.32 71.7068C63.4011 71.6936 63.4842 71.7058 63.5582 71.7416C63.6321 71.7773 63.6933 71.835 63.7333 71.9068C64.0051 72.3721 64.3946 72.7576 64.8628 73.0244C65.3309 73.2913 65.8611 73.43 66.4 73.4268C66.9375 73.432 67.4668 73.2939 67.9333 73.0268L70.7466 71.4001C71.0959 71.1986 71.4018 70.9299 71.6467 70.6095C71.8916 70.2891 72.0705 69.9234 72.1733 69.5334C72.2795 69.1458 72.307 68.7409 72.2544 68.3425C72.2017 67.944 72.0699 67.5602 71.8666 67.2134C71.8208 67.1468 71.7962 67.0677 71.7962 66.9868C71.7962 66.9058 71.8208 66.8268 71.8666 66.7601C72.808 65.6064 73.5596 64.3102 74.0933 62.9201C74.1187 62.8452 74.1673 62.7803 74.232 62.7347C74.2967 62.6892 74.3742 62.6654 74.4533 62.6668C75.2655 62.6633 76.0435 62.339 76.6179 61.7647C77.1922 61.1903 77.5164 60.4124 77.52 59.6001V56.3468C77.5061 55.5473 77.1805 54.7849 76.6126 54.222C76.0448 53.6591 75.2795 53.3403 74.48 53.3334ZM9.33329 19.6534C9.33329 19.2998 9.47377 18.9607 9.72382 18.7106C9.97387 18.4606 10.313 18.3201 10.6666 18.3201H65.7733C66.1269 18.3201 66.4661 18.4606 66.7161 18.7106C66.9662 18.9607 67.1066 19.2998 67.1066 19.6534V23.6534H9.33329V19.6534ZM9.77329 53.8801C9.71551 53.8801 9.6583 53.8687 9.60491 53.8466C9.55153 53.8245 9.50302 53.7921 9.46217 53.7512C9.42131 53.7104 9.3889 53.6619 9.36679 53.6085C9.34467 53.5551 9.33329 53.4979 9.33329 53.4401V26.3201H67.1066V42.6668C66.4757 42.4992 65.8076 42.5383 65.2005 42.7782C64.5934 43.0182 64.0792 43.4464 63.7333 44.0001C63.6918 44.0659 63.6314 44.1176 63.5601 44.1485C63.4887 44.1794 63.4097 44.1881 63.3333 44.1734C61.8675 43.9334 60.3724 43.9334 58.9066 44.1734C58.8302 44.1901 58.7505 44.1823 58.6787 44.1512C58.6069 44.1201 58.5467 44.0673 58.5066 44.0001C58.3063 43.6506 58.0389 43.3441 57.7196 43.0984C57.4003 42.8527 57.0356 42.6726 56.6465 42.5685C56.2573 42.4644 55.8514 42.4383 55.4521 42.4918C55.0528 42.5453 54.668 42.6773 54.32 42.8801L51.5066 44.5068C51.1564 44.7038 50.8495 44.9695 50.6043 45.288C50.3592 45.6064 50.1808 45.9711 50.08 46.3601C49.8667 47.1462 49.9721 47.9846 50.3733 48.6934C50.4219 48.7565 50.4483 48.8338 50.4483 48.9134C50.4483 48.9931 50.4219 49.0704 50.3733 49.1334C49.429 50.29 48.6772 51.5911 48.1466 52.9868C48.1195 53.0606 48.0705 53.1244 48.0062 53.1697C47.9419 53.2149 47.8653 53.2395 47.7866 53.2401C47.1336 53.241 46.498 53.4513 45.9733 53.8401L9.77329 53.8801ZM45.3333 61.4801H29.3333L30.6666 56.5468H44.6666V59.6001C44.6752 60.2832 44.9096 60.9443 45.3333 61.4801ZM24.9066 64.1468H48.64C48.9447 64.7615 49.2922 65.354 49.68 65.9201H22.0933C22.345 65.3904 22.7416 64.9427 23.2371 64.6289C23.7326 64.315 24.3068 64.1479 24.8933 64.1468H24.9066ZM74.88 59.6001C74.88 59.7062 74.8378 59.8079 74.7628 59.883C74.6878 59.958 74.5861 60.0001 74.48 60.0001C73.8589 60.0017 73.2528 60.1909 72.7412 60.5431C72.2296 60.8952 71.8364 61.3938 71.6133 61.9734C71.1871 63.0976 70.5839 64.1464 69.8266 65.0801C69.4361 65.5625 69.2005 66.1515 69.1505 66.7701C69.1005 67.3887 69.2386 68.008 69.5466 68.5468C69.5681 68.5927 69.5792 68.6428 69.5792 68.6934C69.5792 68.7441 69.5681 68.7942 69.5466 68.8401C69.535 68.8931 69.5124 68.943 69.4802 68.9866C69.4481 69.0303 69.4071 69.0667 69.36 69.0934L66.5866 70.6668C66.5403 70.6925 66.4893 70.7088 66.4367 70.7147C66.384 70.7206 66.3307 70.716 66.2798 70.7011C66.229 70.6862 66.1816 70.6614 66.1404 70.628C66.0992 70.5947 66.0651 70.5534 66.04 70.5068C65.7247 69.9694 65.2539 69.5403 64.6898 69.2761C64.1256 69.0119 63.4946 68.9249 62.88 69.0268C61.7062 69.2267 60.5071 69.2267 59.3333 69.0268C58.7173 68.9262 58.0853 69.0151 57.521 69.2818C56.9566 69.5485 56.4867 69.9803 56.1733 70.5201C56.1179 70.6095 56.0306 70.6744 55.929 70.7017C55.8274 70.7289 55.7193 70.7165 55.6266 70.6668L52.8133 69.0401C52.7662 69.0133 52.7252 68.9769 52.693 68.9333C52.6609 68.8896 52.6382 68.8397 52.6266 68.7868C52.6052 68.7409 52.5941 68.6908 52.5941 68.6401C52.5941 68.5894 52.6052 68.5394 52.6266 68.4934C52.9311 67.9536 53.0671 67.335 53.0172 66.7173C52.9673 66.0995 52.7338 65.5108 52.3466 65.0268C51.5825 64.0954 50.9746 63.0462 50.5466 61.9201C50.323 61.3558 49.9355 60.8713 49.4341 60.5291C48.9327 60.1869 48.3403 60.0027 47.7333 60.0001C47.6272 60.0001 47.5255 59.958 47.4505 59.883C47.3754 59.8079 47.3333 59.7062 47.3333 59.6001V56.3468C47.3314 56.2937 47.3405 56.2409 47.3599 56.1915C47.3794 56.1422 47.4088 56.0973 47.4463 56.0598C47.4838 56.0223 47.5287 55.9929 47.578 55.9734C47.6274 55.954 47.6803 55.9449 47.7333 55.9468C48.3525 55.9444 48.9565 55.7546 49.4658 55.4024C49.9751 55.0501 50.3659 54.552 50.5866 53.9734C51.0116 52.8459 51.6197 51.7962 52.3866 50.8668C52.7738 50.3828 53.0073 49.7941 53.0572 49.1763C53.1071 48.5585 52.9711 47.94 52.6666 47.4001C52.6449 47.3519 52.6337 47.2996 52.6337 47.2468C52.6337 47.1939 52.6449 47.1416 52.6666 47.0934C52.6775 47.0419 52.6999 46.9935 52.7322 46.9519C52.7646 46.9103 52.806 46.8766 52.8533 46.8534L55.6666 45.2268C55.7321 45.2086 55.8012 45.2086 55.8666 45.2268C55.9333 45.2276 55.9988 45.2451 56.057 45.2777C56.1152 45.3103 56.1644 45.357 56.2 45.4134C56.5147 45.9519 56.9849 46.3827 57.5488 46.6492C58.1128 46.9157 58.7441 47.0055 59.36 46.9068C60.5337 46.7068 61.7329 46.7068 62.9066 46.9068C63.5266 46.9905 64.1574 46.8851 64.7165 46.6044C65.2755 46.3237 65.7368 45.8807 66.04 45.3334C66.066 45.2895 66.1006 45.2511 66.1416 45.2205C66.1826 45.19 66.2292 45.1679 66.2788 45.1555C66.3284 45.1431 66.38 45.1406 66.4305 45.1483C66.4811 45.156 66.5296 45.1736 66.5733 45.2001L69.3866 46.8268C69.4339 46.85 69.4753 46.8836 69.5077 46.9252C69.54 46.9668 69.5625 47.0152 69.5733 47.0668C69.595 47.115 69.6062 47.1672 69.6062 47.2201C69.6062 47.273 69.595 47.3252 69.5733 47.3734C69.2664 47.9102 69.1289 48.5272 69.1789 49.1434C69.2289 49.7597 69.4639 50.3465 69.8533 50.8268C70.6109 51.7652 71.214 52.8184 71.64 53.9468C71.8501 54.5361 72.2341 55.0478 72.7411 55.4144C73.2482 55.781 73.8545 55.9852 74.48 56.0001C74.533 55.9982 74.5858 56.0073 74.6352 56.0268C74.6846 56.0462 74.7294 56.0756 74.767 56.1131C74.8045 56.1506 74.8339 56.1955 74.8533 56.2449C74.8727 56.2942 74.8818 56.3471 74.88 56.4001V59.6001Z" fill="white"/>
<path d="M61.1066 51.9202C59.9093 51.9202 58.739 52.2752 57.7435 52.9403C56.748 53.6055 55.9722 54.5509 55.514 55.657C55.0558 56.7631 54.936 57.9802 55.1695 59.1544C55.4031 60.3287 55.9796 61.4073 56.8262 62.2538C57.6728 63.1004 58.7514 63.6769 59.9256 63.9105C61.0998 64.1441 62.317 64.0242 63.4231 63.566C64.5292 63.1079 65.4746 62.332 66.1397 61.3365C66.8049 60.3411 67.1599 59.1707 67.1599 57.9735C67.1599 56.3681 66.5221 54.8284 65.3869 53.6931C64.2517 52.5579 62.712 51.9202 61.1066 51.9202ZM61.1066 61.3602C60.4367 61.3602 59.782 61.1615 59.225 60.7894C58.6681 60.4173 58.234 59.8883 57.9777 59.2695C57.7214 58.6507 57.6543 57.9697 57.785 57.3128C57.9156 56.6558 58.2382 56.0524 58.7118 55.5788C59.1855 55.1051 59.7889 54.7826 60.4458 54.6519C61.1028 54.5212 61.7837 54.5883 62.4026 54.8446C63.0214 55.101 63.5503 55.535 63.9225 56.092C64.2946 56.6489 64.4932 57.3037 64.4932 57.9735C64.4862 58.8671 64.1263 59.7216 63.4919 60.351C62.8576 60.9804 62.0002 61.3335 61.1066 61.3335V61.3602Z" fill="white"/>
</svg>
