<svg width="80" height="80" viewBox="0 0 80 80" fill="none" xmlns="http://www.w3.org/2000/svg">
<g clip-path="url(#clip0_362_403)">
<path d="M40.0605 17.2434C28.7377 17.2434 19.487 26.4941 19.487 37.8169C19.487 43.7374 22.0772 49.4358 26.4435 53.2841C29.6998 56.5404 29.4037 63.4969 29.3297 63.5709C29.3297 63.9409 29.4037 64.2369 29.6998 64.533C29.9218 64.755 30.2918 64.903 30.5878 64.903H49.4592C49.8293 64.903 50.1253 64.755 50.3473 64.533C50.5693 64.3109 50.7173 63.9409 50.7173 63.5709C50.7173 63.4969 50.3473 56.5404 53.6036 53.2841C53.6776 53.2101 53.7516 53.1361 53.8256 53.0621C58.1179 49.1398 60.6341 43.5894 60.6341 37.8169C60.6341 26.4941 51.3834 17.2434 40.0605 17.2434ZM51.9014 51.36C51.8274 51.434 51.6794 51.582 51.6794 51.656C48.7932 54.7642 48.2752 59.8706 48.2011 62.3128H31.8459C31.7719 59.8706 31.2539 54.5422 28.1456 51.36C24.2234 47.9557 21.9292 42.9973 21.9292 37.7429C21.9292 27.7522 29.9958 19.6856 39.9865 19.6856C49.9773 19.6856 58.0439 27.7522 58.0439 37.7429C58.0439 42.9973 55.8237 47.9557 51.9014 51.36Z" fill="white"/>
<path d="M39.9866 22.4979C39.3206 22.4979 38.7285 23.0899 38.7285 23.756C38.7285 24.422 39.3206 25.0141 39.9866 25.0141C47.4612 25.0141 53.4556 31.0825 53.4556 38.4831C53.4556 39.1491 54.0477 39.7412 54.7137 39.7412C55.3798 39.7412 55.9718 39.1491 55.9718 38.4831C56.0458 29.6764 48.8673 22.4979 39.9866 22.4979Z" fill="white"/>
<path d="M48.2013 66.309H31.772C30.0699 66.309 28.6638 67.7151 28.6638 69.4173C28.6638 71.1194 30.0699 72.5255 31.772 72.5255H48.1273C49.9034 72.4515 51.3095 71.1194 51.3095 69.4173C51.3095 67.7151 49.9034 66.309 48.2013 66.309ZM48.2013 69.9353H31.772C31.476 69.9353 31.18 69.7133 31.18 69.3432C31.18 68.9732 31.402 68.7512 31.772 68.7512H48.1273C48.4233 68.7512 48.7193 68.9732 48.7193 69.3432C48.7193 69.7133 48.4973 69.9353 48.2013 69.9353Z" fill="white"/>
<path d="M45.7592 73.7836H34.2144C32.5122 73.7836 31.1061 75.1897 31.1061 76.8919C31.1061 78.594 32.5122 80.0001 34.2144 80.0001H45.7592C47.4614 80.0001 48.8675 78.594 48.8675 76.8919C48.8675 75.1157 47.4614 73.7836 45.7592 73.7836ZM45.7592 77.4099H34.2144C33.9184 77.4099 33.6223 77.1879 33.6223 76.8179C33.6223 76.4478 33.8443 76.2258 34.2144 76.2258H45.7592C46.0553 76.2258 46.3513 76.4478 46.3513 76.8179C46.3513 77.1879 46.0553 77.4099 45.7592 77.4099Z" fill="white"/>
<path d="M39.9866 11.101C40.7267 11.101 41.2447 10.5089 41.2447 9.84287V1.25822C41.2447 0.592167 40.6527 0.00012207 39.9866 0.00012207C39.3206 0.00012207 38.7285 0.592167 38.7285 1.25822V9.84287C38.7285 10.5089 39.3206 11.101 39.9866 11.101Z" fill="white"/>
<path d="M60.9303 6.36466C60.3383 5.92063 59.5982 6.14265 59.2282 6.66069L54.4919 13.7652C54.0479 14.3573 54.1959 15.1713 54.7879 15.5414C55.0099 15.6894 55.2319 15.7634 55.454 15.7634C55.898 15.7634 56.268 15.5414 56.49 15.1713L61.2263 8.06679C61.6704 7.54875 61.5224 6.73469 60.9303 6.36466Z" fill="white"/>
<path d="M24.9634 15.4673C25.1854 15.4673 25.4074 15.3933 25.6294 15.2453C26.2215 14.8753 26.3695 14.0612 25.9995 13.4692L21.4111 6.29064C21.0411 5.69859 20.227 5.55058 19.635 5.92061C19.043 6.29064 18.8949 7.1047 19.265 7.69674L23.8533 14.8753C24.1493 15.3193 24.5194 15.4673 24.9634 15.4673Z" fill="white"/>
<path d="M16.0089 23.3119L8.53438 19.2415C7.94233 18.9455 7.12827 19.1675 6.83225 19.7596C6.46222 20.3516 6.68424 21.1657 7.35029 21.4617L14.8249 25.532C15.0469 25.606 15.1949 25.68 15.4169 25.68C15.8609 25.68 16.305 25.458 16.527 25.014C16.823 24.4219 16.601 23.6079 16.0089 23.3119Z" fill="white"/>
<path d="M73.2153 19.7596C72.9193 19.1675 72.1052 18.9455 71.5132 19.2415L63.9646 23.3119C63.3726 23.6079 63.1506 24.4219 63.4466 25.014C63.6686 25.458 64.1126 25.68 64.5567 25.68C64.7787 25.68 65.0007 25.606 65.1487 25.532L72.6973 21.4617C73.2893 21.1657 73.5114 20.3516 73.2153 19.7596Z" fill="white"/>
</g>
<defs>
<clipPath id="clip0_362_403">
<rect width="80" height="80" fill="white" transform="translate(0 0.00012207)"/>
</clipPath>
</defs>
</svg>
