<svg width="66" height="81" viewBox="0 0 66 81" fill="none" xmlns="http://www.w3.org/2000/svg">
<path d="M52.3548 21.6247V20.3343C52.3548 19.6224 51.7765 19.044 51.0645 19.044H34.2903V13.8827H47.1936C47.6825 13.8827 48.1292 13.6068 48.3484 13.1689C48.5677 12.7316 48.5185 12.2093 48.2256 11.8181L44.9355 7.4311L48.2256 3.04413C48.5198 2.65288 48.5664 2.13058 48.3484 1.69333C48.1304 1.25545 47.6825 0.979492 47.1936 0.979492H33C32.2881 0.979492 31.7097 1.55787 31.7097 2.26981V19.044H14.9355C14.2235 19.044 13.6452 19.6224 13.6452 20.3343V21.6247C6.53012 21.6247 0.741943 27.4128 0.741943 34.5279C0.741943 41.6429 6.53012 47.4311 13.6452 47.4311H14.7742C16.6952 52.8387 20.9461 57.1369 26.3228 59.1228L24.1511 73.2376H20.0968C19.3848 73.2376 18.8065 73.8159 18.8065 74.5279V79.6892C18.8065 80.4011 19.3848 80.9795 20.0968 80.9795H45.9032C46.6152 80.9795 47.1936 80.4011 47.1936 79.6892V74.5279C47.1936 73.8159 46.6152 73.2376 45.9032 73.2376H40.5586L38.4517 59.5392C44.4063 57.7871 49.1612 53.2451 51.2258 47.4311H52.3548C59.4699 47.4311 65.2581 41.6429 65.2581 34.5279C65.2581 27.4128 59.4699 21.6247 52.3548 21.6247ZM34.2903 3.56014H44.6129L42.2906 6.65679C41.9459 7.11482 41.9459 7.74739 42.2906 8.20542L44.6129 11.3021H34.2903V3.56014ZM52.3548 29.3666C55.2014 29.3666 57.5161 31.6814 57.5161 34.5279C57.5161 37.3744 55.2014 39.6892 52.3548 39.6892V29.3666ZM8.48388 34.5279C8.48388 31.6814 10.7986 29.3666 13.6452 29.3666V39.6892C10.7986 39.6892 8.48388 37.3744 8.48388 34.5279ZM13.6452 44.8505C7.95338 44.8505 3.32259 40.2197 3.32259 34.5279C3.32259 28.8361 7.95338 24.2053 13.6452 24.2053V26.7859C9.37539 26.7859 5.90323 30.2581 5.90323 34.5279C5.90323 38.7977 9.37539 42.2698 13.6452 42.2698H13.7107C13.7693 43.1449 13.8644 44.0106 14.0364 44.8505H13.6452ZM44.6129 78.3988H21.3871V75.8182H44.6129V78.3988ZM37.9483 73.2376H26.7626L28.8191 59.8675C30.168 60.1655 31.5641 60.3343 33 60.3343C33.9961 60.3343 34.9676 60.2348 35.9253 60.0892L37.9483 73.2376ZM33 57.7537C23.751 57.7537 16.2258 50.2285 16.2258 40.9795V21.6247H49.7742V40.9795C49.7742 50.2285 42.249 57.7537 33 57.7537ZM52.3548 44.8505H51.9655C52.1369 44.0106 52.232 43.1449 52.2906 42.2698H52.3548C56.6246 42.2698 60.0968 38.7977 60.0968 34.5279C60.0968 30.2581 56.6246 26.7859 52.3548 26.7859V24.2053C58.0466 24.2053 62.6774 28.8361 62.6774 34.5279C62.6774 40.2197 58.0466 44.8505 52.3548 44.8505Z" fill="white"/>
<path d="M46.2581 34.5783L37.7721 32.1539L34.155 24.9204C33.7178 24.0453 32.2838 24.0453 31.8465 24.9204L28.2301 32.1539L19.7435 34.5783C19.2325 34.7238 18.862 35.1692 18.8129 35.6997C18.7638 36.2296 19.0454 36.7355 19.5204 36.9731L26.3047 40.3652L24.0183 48.368C23.8778 48.8594 24.0416 49.3886 24.4348 49.715C24.8285 50.0401 25.3779 50.1031 25.8366 49.8763L33.0001 46.2932L40.1656 49.875C40.347 49.9664 40.5461 50.0117 40.7421 50.0117C41.0376 50.0117 41.3305 49.9097 41.5668 49.715C41.9599 49.3886 42.1238 48.8594 41.9833 48.368L39.6968 40.3652L46.4817 36.9731C46.9574 36.7343 47.2378 36.2283 47.1887 35.6997C47.1395 35.1692 46.769 34.7238 46.2581 34.5783ZM37.585 38.5343C37.0299 38.8115 36.7514 39.4466 36.9215 40.0426L38.6957 46.2542L33.5766 43.6956C33.3964 43.6055 33.1974 43.5601 33.0001 43.5601C32.8029 43.5601 32.6039 43.6055 32.4237 43.6956L27.3046 46.2542L29.0788 40.0426C29.2489 39.4453 28.9704 38.8115 28.4153 38.5343L23.6403 36.1471L29.4826 34.4775C29.831 34.3779 30.1202 34.1366 30.2828 33.814L33.0001 28.3806L35.7163 33.814C35.8775 34.1366 36.168 34.3779 36.5164 34.4775L42.3588 36.1471L37.585 38.5343Z" fill="white"/>
</svg>
