<svg width="80" height="81" viewBox="0 0 80 81" fill="none" xmlns="http://www.w3.org/2000/svg">
<path d="M78.5485 4.90668H1.53309C0.721456 4.90668 0 5.62813 0 6.43977V62.8035C0 63.6152 0.721456 64.3366 1.53309 64.3366H28.4975V69.0261H26.243C22.6357 69.0261 19.7499 71.9119 19.7499 75.5192C19.7499 76.3308 20.4713 77.0523 21.283 77.0523C22.0946 77.0523 22.816 76.3308 22.816 75.5192C22.816 73.6254 24.3491 72.0923 26.243 72.0923H53.7485C55.6423 72.0923 57.1754 73.6254 57.1754 75.5192C57.1754 76.3308 57.8968 77.0523 58.7085 77.0523C59.5201 77.0523 60.2416 76.3308 60.2416 75.5192C60.2416 71.9119 57.3557 69.0261 53.7485 69.0261H51.4939V64.3366H78.4583C79.27 64.3366 79.9914 63.6152 79.9914 62.8035V6.43977C80.0816 5.53795 79.4503 4.90668 78.5485 4.90668ZM31.5637 68.5752V64.3366H48.4277V68.5752H31.5637ZM77.0154 61.2704H3.06619V53.605H77.0154V61.2704ZM77.0154 50.5388H3.06619V7.97286H77.0154V50.5388Z" fill="white"/>
<path d="M35.2612 59.106H44.8205C45.6322 59.106 46.3536 58.3846 46.3536 57.5729C46.3536 56.7613 45.7224 56.0399 44.8205 56.0399H35.2612C34.4496 56.0399 33.7281 56.7613 33.7281 57.5729C33.7281 58.3846 34.4496 59.106 35.2612 59.106Z" fill="white"/>
<path d="M15.6014 45.3082C18.848 45.3082 21.4633 42.6929 21.4633 39.4464C21.4633 38.6347 21.2829 37.8231 21.0123 37.1918L28.6778 31.1496C29.6698 31.8711 30.8422 32.322 32.1949 32.322C33.728 32.322 35.1709 31.6907 36.2531 30.6987L40.4015 33.1336C40.3113 33.5845 40.2211 34.0354 40.2211 34.5765C40.2211 37.8231 42.8364 40.4384 46.0829 40.4384C49.3295 40.4384 51.9448 37.8231 51.9448 34.5765C51.9448 34.0354 51.8546 33.4042 51.6742 32.9533L60.963 26.5503C61.955 27.4522 63.3077 27.9933 64.7506 27.9933C67.9972 27.9933 70.6124 25.378 70.6124 22.1314C70.6124 18.8849 67.9972 16.2696 64.7506 16.2696C61.5041 16.2696 58.8888 18.8849 58.8888 22.1314C58.8888 22.7627 58.979 23.394 59.2495 24.0252L49.9608 30.338C48.8786 29.346 47.5259 28.7147 45.9928 28.7147C44.3695 28.7147 42.9266 29.346 41.8444 30.4282L37.7862 27.9933C37.9666 27.4522 38.0567 26.9111 38.0567 26.37C38.0567 23.1234 35.4415 20.5081 32.1949 20.5081C28.9484 20.5081 26.3331 23.1234 26.3331 26.37C26.3331 27.1816 26.5134 27.9031 26.784 28.6245L19.1185 34.6667C18.1265 33.9453 16.9542 33.4944 15.6916 33.4944C12.4451 33.4944 9.82978 36.1096 9.82978 39.3562C9.7396 42.6929 12.3549 45.3082 15.6014 45.3082ZM64.7506 19.3358C66.2837 19.3358 67.5462 20.5983 67.5462 22.1314C67.5462 23.6645 66.2837 24.9271 64.7506 24.9271C63.2175 24.9271 61.955 23.6645 61.955 22.1314C61.955 20.5983 63.2175 19.3358 64.7506 19.3358ZM43.5578 33.2238C44.0088 32.322 44.9106 31.7809 45.9928 31.7809C47.5259 31.7809 48.7884 33.0434 48.7884 34.5765C48.7884 36.1096 47.5259 37.3722 45.9928 37.3722C44.4597 37.3722 43.1971 36.1096 43.1971 34.5765C43.1971 34.1256 43.2873 33.6747 43.5578 33.2238ZM32.1047 23.6645C33.6378 23.6645 34.9004 24.9271 34.9004 26.4602C34.9004 27.0012 34.72 27.4522 34.5396 27.9031C34.5396 27.9031 34.5396 27.9031 34.5396 27.9933C33.9986 28.7147 33.1869 29.2558 32.1949 29.2558C31.2931 29.2558 30.4815 28.8049 30.0305 28.1736C29.6698 27.7227 29.4895 27.1816 29.4895 26.5503C29.3091 24.9271 30.5716 23.6645 32.1047 23.6645ZM15.6014 36.6507C16.5032 36.6507 17.2247 37.1016 17.7658 37.7329C18.1265 38.1838 18.3971 38.8151 18.3971 39.4464C18.3971 40.9795 17.1345 42.242 15.6014 42.242C14.0683 42.242 12.8058 40.9795 12.8058 39.4464C12.8058 37.9133 14.0683 36.6507 15.6014 36.6507Z" fill="white"/>
</svg>
