<svg width="80" height="81" viewBox="0 0 80 81" fill="none" xmlns="http://www.w3.org/2000/svg">
<path d="M52.2781 47.7686L41.0281 31.5186C40.9131 31.3523 40.7595 31.2163 40.5804 31.1225C40.4013 31.0286 40.2022 30.9795 40 30.9795C39.7978 30.9795 39.5986 31.0286 39.4195 31.1225C39.2405 31.2163 39.0869 31.3523 38.9719 31.5186L27.7219 47.7686C27.6114 47.928 27.5397 48.111 27.5123 48.3031C27.4849 48.4951 27.5026 48.6908 27.564 48.8748L30.7656 58.4795H30C29.6685 58.4795 29.3505 58.6112 29.1161 58.8456C28.8817 59.08 28.75 59.398 28.75 59.7295V63.4795C28.75 63.811 28.8817 64.129 29.1161 64.3634C29.3505 64.5978 29.6685 64.7295 30 64.7295H31.25V78.4795C31.25 78.811 31.3817 79.129 31.6161 79.3634C31.8505 79.5978 32.1685 79.7295 32.5 79.7295H47.5C47.8315 79.7295 48.1494 79.5978 48.3839 79.3634C48.6183 79.129 48.75 78.811 48.75 78.4795V64.7295H50C50.3315 64.7295 50.6494 64.5978 50.8839 64.3634C51.1183 64.129 51.25 63.811 51.25 63.4795V59.7295C51.25 59.398 51.1183 59.08 50.8839 58.8456C50.6494 58.6112 50.3315 58.4795 50 58.4795H49.2344L52.4359 48.8748C52.4974 48.6908 52.5151 48.4951 52.4877 48.3031C52.4603 48.111 52.3885 47.928 52.2781 47.7686ZM40 45.9795C40.2472 45.9795 40.4889 46.0528 40.6944 46.1902C40.9 46.3275 41.0602 46.5227 41.1548 46.7512C41.2494 46.9796 41.2742 47.2309 41.226 47.4734C41.1777 47.7158 41.0587 47.9386 40.8839 48.1134C40.7091 48.2882 40.4863 48.4073 40.2438 48.4555C40.0014 48.5037 39.75 48.479 39.5216 48.3843C39.2932 48.2897 39.098 48.1295 38.9606 47.924C38.8233 47.7184 38.75 47.4767 38.75 47.2295C38.7504 46.8981 38.8823 46.5804 39.1166 46.3461C39.3509 46.1118 39.6686 45.98 40 45.9795ZM46.25 77.2295H33.75V64.7295H46.25V77.2295ZM48.75 62.2295H31.25V60.9795H48.75V62.2295ZM46.5984 58.4795H33.4015L30.1328 48.6779L38.75 36.2311V43.4795C38.7507 43.5497 38.7569 43.6197 38.7687 43.6889C37.9315 43.9799 37.2245 44.558 36.773 45.3207C36.3215 46.0834 36.1548 46.9814 36.3023 47.8553C36.4499 48.7293 36.9022 49.5227 37.5791 50.0949C38.256 50.6671 39.1137 50.981 40 50.981C40.8863 50.981 41.744 50.6671 42.4208 50.0949C43.0977 49.5227 43.5501 48.7293 43.6976 47.8553C43.8452 46.9814 43.6784 46.0834 43.227 45.3207C42.7755 44.558 42.0684 43.9799 41.2312 43.6889C41.243 43.6197 41.2493 43.5497 41.25 43.4795V36.2311L49.8672 48.6779L46.5984 58.4795Z" fill="white"/>
<path d="M77.5 15.9795H72.5C72.1685 15.9795 71.8505 16.1112 71.6161 16.3456C71.3817 16.58 71.25 16.898 71.25 17.2295V18.4904C71.1982 18.4836 71.146 18.48 71.0938 18.4795H43.75V17.2295C43.75 16.898 43.6183 16.58 43.3839 16.3456C43.1495 16.1112 42.8315 15.9795 42.5 15.9795H41.25V9.72949H42.5C42.8315 9.72949 43.1495 9.5978 43.3839 9.36338C43.6183 9.12895 43.75 8.81101 43.75 8.47949V3.47949C43.75 3.14797 43.6183 2.83003 43.3839 2.59561C43.1495 2.36119 42.8315 2.22949 42.5 2.22949H37.5C37.1685 2.22949 36.8505 2.36119 36.6161 2.59561C36.3817 2.83003 36.25 3.14797 36.25 3.47949V8.47949C36.25 8.81101 36.3817 9.12895 36.6161 9.36338C36.8505 9.5978 37.1685 9.72949 37.5 9.72949H38.75V15.9795H37.5C37.1685 15.9795 36.8505 16.1112 36.6161 16.3456C36.3817 16.58 36.25 16.898 36.25 17.2295V18.4795H8.75V17.2295C8.75 16.898 8.6183 16.58 8.38388 16.3456C8.14946 16.1112 7.83152 15.9795 7.5 15.9795H2.5C2.16848 15.9795 1.85054 16.1112 1.61612 16.3456C1.3817 16.58 1.25 16.898 1.25 17.2295V22.2295C1.25 22.561 1.3817 22.879 1.61612 23.1134C1.85054 23.3478 2.16848 23.4795 2.5 23.4795H7.5C7.83152 23.4795 8.14946 23.3478 8.38388 23.1134C8.6183 22.879 8.75 22.561 8.75 22.2295V20.9795H29.4156C27.7658 22.071 26.2912 23.4065 25.0422 24.9404C21.8375 28.8264 20 33.7607 20 38.4795H18.75C18.4185 38.4795 18.1005 38.6112 17.8661 38.8456C17.6317 39.08 17.5 39.398 17.5 39.7295V44.7295C17.5 45.061 17.6317 45.379 17.8661 45.6134C18.1005 45.8478 18.4185 45.9795 18.75 45.9795H23.75C24.0815 45.9795 24.3995 45.8478 24.6339 45.6134C24.8683 45.379 25 45.061 25 44.7295V39.7295C25 39.398 24.8683 39.08 24.6339 38.8456C24.3995 38.6112 24.0815 38.4795 23.75 38.4795H22.5C22.5 29.2107 29.6313 21.8998 36.25 21.0607V22.2295C36.25 22.561 36.3817 22.879 36.6161 23.1134C36.8505 23.3478 37.1685 23.4795 37.5 23.4795H42.5C42.8315 23.4795 43.1495 23.3478 43.3839 23.1134C43.6183 22.879 43.75 22.561 43.75 22.2295V21.0561C47.1344 21.4576 50.3828 23.4857 53.0047 26.8686C55.5563 30.1576 57.1766 34.417 57.4562 38.4795H56.25C55.9185 38.4795 55.6005 38.6112 55.3661 38.8456C55.1317 39.08 55 39.398 55 39.7295V44.7295C55 45.061 55.1317 45.379 55.3661 45.6134C55.6005 45.8478 55.9185 45.9795 56.25 45.9795H61.25C61.5815 45.9795 61.8995 45.8478 62.1339 45.6134C62.3683 45.379 62.5 45.061 62.5 44.7295V39.7295C62.5 39.398 62.3683 39.08 62.1339 38.8456C61.8995 38.6112 61.5815 38.4795 61.25 38.4795H59.9609C59.6875 33.8373 57.9078 29.1092 54.9813 25.3357C53.6942 23.6461 52.143 22.1751 50.3875 20.9795H71.0938C71.146 20.979 71.1982 20.9754 71.25 20.9686V22.2295C71.25 22.561 71.3817 22.879 71.6161 23.1134C71.8505 23.3478 72.1685 23.4795 72.5 23.4795H77.5C77.8315 23.4795 78.1495 23.3478 78.3839 23.1134C78.6183 22.879 78.75 22.561 78.75 22.2295V17.2295C78.75 16.898 78.6183 16.58 78.3839 16.3456C78.1495 16.1112 77.8315 15.9795 77.5 15.9795ZM6.25 20.9795H3.75V18.4795H6.25V20.9795ZM22.5 43.4795H20V40.9795H22.5V43.4795ZM38.75 4.72949H41.25V7.22949H38.75V4.72949ZM41.25 20.9795H38.75V18.4795H41.25V20.9795ZM57.5 40.9795H60V43.4795H57.5V40.9795ZM76.25 20.9795H73.75V18.4795H76.25V20.9795Z" fill="white"/>
</svg>
